<?xml version="1.0" standalone="no"?>
<!DOCTYPE svg PUBLIC "-//W3C//DTD SVG 1.1//EN" "http://www.w3.org/Graphics/SVG/1.1/DTD/svg11.dtd" >
<svg>
<metadata>
Created by FontForge 20110222 at Mon Mar  7 13:35:33 2011
 By www-data
Copyright (c) 2011 by Mans Greba:ck. All rights reserved.
</metadata>
<defs>
<font id="WalkDaWalkOne" horiz-adv-x="413" >
  <font-face 
    font-family="Walk Da Walk One"
    font-weight="400"
    font-stretch="normal"
    units-per-em="1000"
    panose-1="2 0 5 6 0 0 0 2 0 4"
    ascent="750"
    descent="-250"
    x-height="579"
    cap-height="729"
    bbox="-150 -393 940 932"
    underline-thickness="50"
    underline-position="-50"
    unicode-range="U+0020-2122"
  />
    <missing-glyph />
    <glyph glyph-name="space" unicode=" " horiz-adv-x="310" 
 />
    <glyph glyph-name="space" unicode="&#xa0;" horiz-adv-x="310" 
 />
    <glyph glyph-name="a" unicode="a" horiz-adv-x="417" 
d="M355 306q-2 -61 7.5 -96.5t20.5 -54.5q13 -22 31 -31q-70 -63 -125 -113q-24 -21 -46.5 -41.5t-40 -36.5t-28 -25.5l-10.5 -9.5q-14 27 -40.5 46.5t-53.5 33.5q-32 16 -67 27q9 2 18.5 5.5t17.5 16t13 38t5 71.5q0 26 -7 40.5t-15 21.5q-10 8 -21 10q49 44 89 78l90 78
q11 -23 26 -36.5t29 -20.5q3 53 10 86.5t8 35.5q-28 30 -53 41.5t-44 13.5q-6 -17 -5.5 -28t3 -20.5t5.5 -19.5t3 -25l-109 -99q0 32 -9 48t-20 23q-13 7 -30 6l124 112l124 112q14 -27 40.5 -47t53.5 -34q32 -16 67 -27q-9 -2 -19 -7.5t-19 -23.5t-15.5 -53t-7.5 -95z
M153 62q30 -33 57.5 -43.5t47.5 -9.5q10 29 10.5 60t-3 61.5t-9.5 60.5t-8 56l-44 -47q-24 26 -47 38q2 -13 4 -26.5t2 -27.5q0 -19 -1.5 -40t-3 -39t-3.5 -30t-2 -13z" />
    <glyph glyph-name="o" unicode="o" 
d="M352 306q-2 -61 7.5 -96.5t20.5 -54.5q13 -22 31 -31q-70 -63 -125 -113q-24 -21 -46.5 -41.5t-40 -36.5t-28 -25.5l-10.5 -9.5q-14 27 -40.5 46.5t-53.5 33.5q-32 16 -67 27q9 2 19 8t19 24t15.5 53t7.5 95t-8 96t-20 55q-13 22 -31 31q70 63 125 113q23 21 45.5 41.5
t40.5 36.5q20 18 39 35q14 -27 40.5 -47t53.5 -34q32 -16 67 -27q-9 -2 -19 -7.5t-19 -23.5t-15.5 -53t-7.5 -95zM150 62q30 -33 57.5 -43.5t47.5 -9.5q11 32 11 66.5t-5 68.5t-11 66t-6 59q0 33 3 62t6.5 50.5t6.5 34t3 13.5q-30 32 -56.5 43t-45.5 12q-11 -32 -11.5 -67
t4 -69.5t10 -67t5.5 -59.5q0 -33 -3 -61.5t-6.5 -50t-6.5 -34t-3 -13.5z" />
    <glyph glyph-name="b" unicode="b" 
d="M354 306q-2 -61 7.5 -96.5t20.5 -54.5q13 -22 31 -31q-71 -63 -126 -113q-24 -21 -46.5 -41.5t-40 -36.5t-28.5 -25.5l-11 -9.5q-14 27 -40.5 46.5t-53.5 33.5q-32 16 -67 27q9 2 19 24t19 59.5t15.5 89t7.5 111.5q1 61 -8 113.5t-20 92.5q-13 46 -31 85l188 170
q-17 -20 -25.5 -48t-12.5 -60.5t-3 -68t4 -70.5q14 13 31.5 28.5t33 29.5t26 23l10.5 9q14 -27 40.5 -47t53.5 -34q32 -16 67 -27q-9 -2 -19 -7.5t-19 -23.5t-15.5 -53t-7.5 -95zM150 62q31 -34 59 -44t48 -9q11 32 11 66.5t-5 68.5t-11 66t-6 59q0 33 3 62t6.5 50.5t6.5 34
t3 13.5q-33 36 -62 46t-48 9q4 -48 9 -90t5 -68q0 -33 -3 -78t-6.5 -86t-6.5 -70t-3 -30z" />
    <glyph glyph-name="c" unicode="c" horiz-adv-x="364" 
d="M150 62q14 -15 31 -22t35 -8t35.5 3t34.5 11q39 16 79 46q-57 -54 -102 -97q-19 -18 -37.5 -36t-32.5 -31.5t-23 -21.5l-9 -8q-14 27 -40.5 46.5t-53.5 33.5q-32 16 -67 27q9 2 19 8t19 24t15.5 53t7.5 95t-8 96t-20 55q-13 22 -31 31l254 228q14 -27 31.5 -41t34.5 -20
q19 -7 39 -7l-94 -96q-32 34 -59 44.5t-47 10.5q-12 -33 -12 -68t4.5 -69.5t10 -67t5.5 -60.5q0 -33 -3 -61.5t-6.5 -50t-6.5 -34t-3 -13.5z" />
    <glyph glyph-name="e" unicode="e" horiz-adv-x="374" 
d="M150 62q14 -15 31 -22t35 -8t35.5 3t34.5 11q39 16 79 46q-57 -54 -102 -97q-19 -18 -37.5 -36t-32.5 -31.5t-23 -21.5l-9 -8q-14 27 -40.5 46.5t-53.5 33.5q-32 16 -67 27q9 2 19 8t19 24t15.5 53t7.5 95t-8 96t-20 55q-13 22 -31 31l254 228q14 -27 35.5 -41.5
t41.5 -20.5q24 -7 50 -7l-225 -209q5 -26 8 -50t3 -46q0 -33 -3 -61.5t-6.5 -50t-6.5 -34t-3 -13.5zM161 486q-11 -32 -11.5 -66t3.5 -68l101 92q-27 26 -51 34t-42 8z" />
    <glyph glyph-name="d" unicode="d" 
d="M352 306q-2 -61 7.5 -96.5t20.5 -54.5q13 -22 31 -31q-70 -63 -125 -113q-24 -21 -46.5 -41.5t-40 -36.5t-28 -25.5l-10.5 -9.5q-14 27 -40.5 46.5t-53.5 33.5q-32 16 -67 27q9 2 19 8t19 24t15.5 53t7.5 95t-8 96t-20 55q-13 22 -31 31q57 52 102 93q19 17 37.5 34
t32.5 30q17 15 32 29q11 -21 23.5 -34t25.5 -20q3 38 5 62.5t3 25.5q-29 31 -54.5 42t-44.5 13q-23 2 -41 -6l64 58q12 11 23.5 21t20.5 18q11 10 21 18q14 -27 40.5 -47t53.5 -34q32 -16 67 -27q-9 -2 -19 -32t-19 -78t-15.5 -107.5t-7.5 -119.5zM150 62q30 -33 57.5 -43.5
t47.5 -9.5q11 32 11 66.5t-5 68.5t-11 66t-6 59q0 28 2 70t4 86l-33 -36q-18 20 -35 31t-31 17q-3 -28 -0.5 -57t6.5 -56.5t8 -54t4 -48.5q0 -33 -3 -61.5t-6.5 -50t-6.5 -34t-3 -13.5z" />
    <glyph glyph-name="f" unicode="f" horiz-adv-x="350" 
d="M261 380q-31 33 -58 44t-47 11q5 -43 9 -80t4 -60q0 -22 -1.5 -52t-3.5 -61.5t-4.5 -62t-4.5 -55t-3.5 -40l-1.5 -15.5q26 -28 47.5 -38t37 -10t25.5 5.5t13 7.5q-5 -4 -26 -23t-44.5 -40.5t-42.5 -38l-19 -16.5q-14 27 -37.5 45.5t-46.5 29.5q-27 13 -57 21q9 2 19 27.5
t19 67.5t15.5 96.5t7.5 114.5t-8 113t-20 93q-13 47 -31 86l225 199q15 -26 38 -48q20 -19 50.5 -36.5t72.5 -23.5l-133 -107q14 -23 30.5 -35t30.5 -17q17 -6 34 -6zM154 459q14 13 31 28t31.5 27.5t24 21l9.5 8.5q-2 9 -7.5 23.5t-16.5 29t-28 26t-42 14.5q-8 -41 -7 -87
t5 -91zM273 -26q0 1 1 1z" />
    <glyph glyph-name="g" unicode="g" horiz-adv-x="411" 
d="M352 306q-1 -30 0.5 -64.5t4 -70.5t6 -71.5t7.5 -68.5q9 -77 20 -154l-217 -204q-7 41 -26 70q-17 25 -47.5 41.5t-83.5 5.5l129 132q-18 21 -43 36t-48 26q-26 12 -54 21q9 2 19 8t19 24t15.5 53t7.5 95t-8 96t-20 55q-13 22 -31 31q70 63 125 113q23 21 45.5 41.5
t40.5 36.5q20 18 39 35q14 -27 40.5 -47t53.5 -34q32 -16 67 -27q-9 -2 -19 -7.5t-19 -23.5t-15.5 -53t-7.5 -95zM263 429q-30 32 -56.5 43t-45.5 12q-11 -32 -11.5 -67t4 -69.5t10 -67t5.5 -59.5q0 -33 -3 -61.5t-6.5 -50t-6.5 -34t-3 -13.5q18 -20 35.5 -31t33.5 -16.5
t29 -6t23 1.5q-3 42 -7.5 81.5t-9 73.5t-7.5 61t-3 43q0 33 3 62t6.5 50.5t6.5 34t3 13.5zM161 -101q3 -11 10 -24.5t18.5 -26t29 -24t42.5 -18.5q10 43 12 92t-1 99q-14 -13 -33.5 -30t-36.5 -32.5t-29 -26l-12 -10.5v1z" />
    <glyph glyph-name="y" unicode="y" horiz-adv-x="410" 
d="M352 348q-1 -30 0.5 -66.5t4 -75t6 -78t7.5 -76.5q9 -86 20 -175l-217 -204q-7 41 -26 70q-17 25 -47.5 41.5t-83.5 5.5l129 132q-18 21 -43 36t-48 26q-26 12 -54 21q9 2 19 14.5t19 38.5t15.5 67.5t7.5 101.5t-8 96t-20 55q-13 22 -31 31l188 170q-29 -35 -36 -76.5
t-3.5 -83.5t11 -82.5t7.5 -73.5t-3 -68.5t-6.5 -64.5t-6.5 -48t-3 -20q18 -20 35.5 -31t33.5 -16.5t29 -6t23 1.5q-3 42 -7.5 88t-9 88t-7.5 75.5t-3 49.5q0 33 -3.5 52t-8 29t-8 12.5t-3.5 3.5l192 170q-8 -10 -18 -24.5t-19 -40t-16 -65.5t-8 -100zM161 -101
q3 -11 10 -24.5t18.5 -26t29 -24t42.5 -18.5q10 43 12 92t-1 99q-14 -13 -33.5 -30t-36.5 -32.5t-29 -26l-12 -10.5v1z" />
    <glyph glyph-name="h" unicode="h" horiz-adv-x="399" 
d="M401 485q-9 -2 -19 -12.5t-19 -34t-15.5 -63.5t-7.5 -100q-2 -61 3 -114.5t10 -94.5q6 -48 15 -89l-184 -166q19 23 30 58t16.5 75t6.5 82.5t0 82.5t-3 73.5t-2 55.5q0 33 3 67t6.5 61t6.5 44.5t3 18.5q-28 30 -52.5 41.5t-43.5 13.5q5 -48 9.5 -90t4.5 -68q0 -33 -3 -77
t-6.5 -83.5t-6.5 -67t-3 -28.5l-144 -113q8 11 17.5 43.5t17.5 78t13.5 100t6.5 110.5q1 61 -8 113.5t-20 92.5q-13 46 -31 85l188 170q-16 -19 -25 -45.5t-12.5 -57.5t-3.5 -64.5t3 -67.5q14 13 29.5 27t28.5 25.5t21.5 18.5l8.5 7q14 -27 40.5 -47t53.5 -34q32 -16 67 -27
zM6 -43q-4 -4 -6 -4z" />
    <glyph glyph-name="i" unicode="i" horiz-adv-x="236" 
d="M180 550q-29 -35 -34.5 -72t0 -73.5t14.5 -72t9 -68.5t-3 -68.5t-6.5 -65t-6.5 -48.5t-3 -20q29 -31 54.5 -41.5t45.5 -11.5q23 -1 44 8q-38 -34 -67 -60l-24 -22t-21.5 -19t-15 -13l-5.5 -5q-14 27 -40.5 46.5t-53.5 33.5q-32 16 -67 27q9 2 19 17.5t19 45.5t15.5 75
t7.5 105t-8 96t-20 55q-13 22 -31 31zM68 554q-9 29 -22 46.5t-26 27.5q-15 11 -30 17q31 24 57 42q11 8 21 15.5l18 13.5q10 7 18 13q12 -24 25.5 -42t25.5 -30q14 -14 28 -24z" />
    <glyph glyph-name="dieresis" unicode="&#xa8;" horiz-adv-x="310" 
d="M103 606q-9 29 -22 46.5t-26 27.5q-15 11 -30 17q31 24 57 42q11 8 21 15.5l18 13.5q10 7 18 13q12 -24 25.5 -42t25.5 -30q14 -14 28 -24zM253 606q-9 29 -22 46.5t-26 27.5q-15 11 -30 17q31 24 57 42q11 8 21 15.5l18 13.5q10 7 18 13q12 -24 25.5 -42t25.5 -30
q14 -14 28 -24z" />
    <glyph glyph-name="adieresis" unicode="&#xe4;" horiz-adv-x="417" 
d="M355 306q-2 -61 7.5 -96.5t20.5 -54.5q13 -22 31 -31q-70 -63 -125 -113q-24 -21 -46.5 -41.5t-40 -36.5t-28 -25.5l-10.5 -9.5q-14 27 -40.5 46.5t-53.5 33.5q-32 16 -67 27q9 2 18.5 5.5t17.5 16t13 38t5 71.5q0 26 -7 40.5t-15 21.5q-10 8 -21 10q49 44 89 78l90 78
q11 -23 26 -36.5t29 -20.5q3 53 10 86.5t8 35.5q-28 30 -53 41.5t-44 13.5q-6 -17 -5.5 -28t3 -20.5t5.5 -19.5t3 -25l-109 -99q0 32 -9 48t-20 23q-13 7 -30 6l124 112l124 112q14 -27 40.5 -47t53.5 -34q32 -16 67 -27q-9 -2 -19 -7.5t-19 -23.5t-15.5 -53t-7.5 -95z
M153 62q30 -33 57.5 -43.5t47.5 -9.5q10 29 10.5 60t-3 61.5t-9.5 60.5t-8 56l-44 -47q-24 26 -47 38q2 -13 4 -26.5t2 -27.5q0 -19 -1.5 -40t-3 -39t-3.5 -30t-2 -13zM155 606q-9 29 -22 46.5t-26 27.5q-15 11 -30 17q31 24 57 42q11 8 21 15.5l18 13.5q10 7 18 13
q12 -24 25.5 -42t25.5 -30q14 -14 28 -24zM305 606q-9 29 -22 46.5t-26 27.5q-15 11 -30 17q31 24 57 42q11 8 21 15.5l18 13.5q10 7 18 13q12 -24 25.5 -42t25.5 -30q14 -14 28 -24z" />
    <glyph glyph-name="odieresis" unicode="&#xf6;" 
d="M352 306q-2 -61 7.5 -96.5t20.5 -54.5q13 -22 31 -31q-70 -63 -125 -113q-24 -21 -46.5 -41.5t-40 -36.5t-28 -25.5l-10.5 -9.5q-14 27 -40.5 46.5t-53.5 33.5q-32 16 -67 27q9 2 19 8t19 24t15.5 53t7.5 95t-8 96t-20 55q-13 22 -31 31q70 63 125 113q23 21 45.5 41.5
t40.5 36.5q20 18 39 35q14 -27 40.5 -47t53.5 -34q32 -16 67 -27q-9 -2 -19 -7.5t-19 -23.5t-15.5 -53t-7.5 -95zM150 62q30 -33 57.5 -43.5t47.5 -9.5q11 32 11 66.5t-5 68.5t-11 66t-6 59q0 33 3 62t6.5 50.5t6.5 34t3 13.5q-30 32 -56.5 43t-45.5 12q-11 -32 -11.5 -67
t4 -69.5t10 -67t5.5 -59.5q0 -33 -3 -61.5t-6.5 -50t-6.5 -34t-3 -13.5zM143 606q-9 29 -22 46.5t-26 27.5q-15 11 -30 17q31 24 57 42q11 8 21 15.5l18 13.5q10 7 18 13q12 -24 25.5 -42t25.5 -30q14 -14 28 -24zM293 606q-9 29 -22 46.5t-26 27.5q-15 11 -30 17
q31 24 57 42q11 8 21 15.5l18 13.5q10 7 18 13q12 -24 25.5 -42t25.5 -30q14 -14 28 -24z" />
    <glyph glyph-name="l" unicode="l" horiz-adv-x="245" 
d="M190 750q-19 -23 -28 -57.5t-11.5 -74.5t0 -82.5t6.5 -81.5t8 -72.5t4 -55.5q0 -33 -3 -78t-6.5 -86t-6.5 -70t-3 -30q29 -31 54.5 -41.5t45.5 -11.5q23 -1 44 8q-38 -34 -67 -60l-24 -22t-21.5 -19t-15 -13l-5.5 -5q-14 27 -40.5 46.5t-53.5 33.5q-32 16 -67 27
q9 2 19 24t19 59.5t15.5 89t7.5 111.5q1 61 -8 113.5t-20 92.5q-13 46 -31 85z" />
    <glyph glyph-name="u" unicode="u" horiz-adv-x="421" 
d="M374 62q6 -17 21 -24.5t31 -9.5q18 -3 40 -1q-38 -34 -67 -60l-24 -22t-21.5 -19t-15 -13l-5.5 -5q-15 30 -36 49.5t-39 30.5q-15 -13 -32.5 -29t-32.5 -29.5t-25.5 -22.5l-10.5 -9q-14 27 -40.5 46.5t-53.5 33.5q-32 16 -67 27q9 2 19 8t19 24t15.5 53t7.5 95
t-6.5 104.5t-16.5 73.5q-11 34 -25 57l177 170q-29 -35 -36 -84.5t-3.5 -101.5t11 -101t7.5 -82t-3 -61.5t-6.5 -50t-6.5 -34t-3 -13.5q26 -27 48.5 -38.5t42.5 -13.5q8 4 16 13t15 28t11.5 51.5t5.5 82.5q1 60 -8 104.5t-20 73.5q-13 34 -31 57l188 170q-29 -35 -36 -84.5
t-3.5 -101.5t11 -101t7.5 -82t-3 -61.5t-6.5 -50t-6.5 -34t-3 -13.5z" />
    <glyph glyph-name="j" unicode="j" horiz-adv-x="300" 
d="M250 254q-2 -61 4 -127t14 -122q9 -65 20 -128l-217 -204q-7 41 -26 70q-17 25 -47.5 41.5t-83.5 5.5l139 142q2 -27 13 -51q10 -21 31 -42t63 -33q13 54 12 115t-8 118t-14.5 104.5t-7.5 73.5q0 67 3.5 107.5t4.5 42.5q-29 31 -54.5 42t-44.5 13q-23 2 -41 -6l64 58
q12 11 23.5 21t20.5 18q11 10 21 18q14 -27 40.5 -47t53.5 -34q32 -16 67 -27q-9 -2 -17.5 -6t-15 -20t-11.5 -49.5t-6 -93.5zM181 534q-13 27 -28.5 43t-29.5 24q-17 10 -33 12l50 50l18 18t17 16q9 8 16 15q15 -22 31 -37.5t30 -25.5q16 -12 31 -20z" />
    <glyph glyph-name="w" unicode="w" horiz-adv-x="589" 
d="M526 62q6 -17 21 -24.5t31 -9.5q18 -3 40 -1q-38 -34 -67 -60l-24 -22t-21.5 -19t-15 -13l-5.5 -5q-10 20 -23 35t-26.5 26.5t-25.5 18.5t-21 12q-15 -14 -32.5 -30t-33 -30t-26 -23l-10.5 -9q-11 23 -27 40t-31 28q-15 -13 -30.5 -27t-28 -25.5t-21 -18.5l-8.5 -7
q-14 27 -40.5 46.5t-53.5 33.5q-32 16 -67 27q9 2 19 8t19 24t15.5 53t7.5 95t-6.5 104.5t-16.5 73.5q-11 34 -25 57l177 170q-29 -35 -36 -84.5t-3.5 -101.5t11 -101t7.5 -82t-3 -61.5t-6.5 -50t-6.5 -34t-3 -13.5q19 -20 36 -31t33 -16q7 5 14 16t12.5 30.5t9 49.5t4.5 74
q1 60 -8 104.5t-20 73.5q-13 34 -31 57l188 170q-29 -35 -36 -84.5t-3.5 -101.5t11 -101t7.5 -82t-3 -61.5t-6.5 -50t-6.5 -34t-3 -13.5q5 -12 15 -19.5t21.5 -11t23.5 -4.5t20 -1q11 16 19 52t10 107q1 60 -8 104.5t-20 73.5q-13 34 -31 57l188 170q-29 -35 -36 -84.5
t-3.5 -101.5t11 -101t7.5 -82t-3 -61.5t-6.5 -50t-6.5 -34t-3 -13.5z" />
    <glyph glyph-name="m" unicode="m" horiz-adv-x="595" 
d="M533 275q-2 -61 7.5 -103t20.5 -69q13 -32 31 -52l-184 -166q29 35 35 82.5t2 96.5t-12 95t-8 79t3 67t6.5 61t6.5 44.5t3 18.5q-15 17 -29.5 27t-27.5 17q-8 -9 -15 -24t-13 -38.5t-9.5 -57t-4.5 -78.5q-2 -61 7.5 -103t20.5 -69q13 -32 31 -52l-184 -166q20 23 28.5 52
t10.5 61q-15 -14 -32.5 -29.5t-32.5 -29t-25 -22l-10 -8.5q-14 27 -40.5 46.5t-53.5 33.5q-32 16 -67 27q9 2 19 14.5t19 38.5t15.5 67.5t7.5 101.5t-8 101t-20 66q-13 29 -31 46l188 170q-20 -24 -29 -53t-11 -61q14 13 31 28t31.5 28t24.5 21.5l10 8.5q14 -28 41.5 -48
t54.5 -34q14 13 30.5 27.5t30 26.5l22.5 20l9 8q14 -27 40.5 -47t53.5 -34q32 -16 67 -27q-9 -2 -19 -12.5t-19 -34t-15.5 -63.5t-7.5 -100zM148 73q32 -35 61.5 -45t49.5 -8q0 30 -3.5 60t-7.5 58.5t-7.5 54t-3.5 45.5q0 33 3 67t6.5 61t6.5 44.5t3 18.5q-32 35 -60.5 45.5
t-48.5 9.5q0 -29 3 -57.5t7 -55.5t7 -52t3 -45q0 -33 -3 -68.5t-6.5 -64.5t-6.5 -48t-3 -20z" />
    <glyph glyph-name="n" unicode="n" horiz-adv-x="418" 
d="M431 485q-9 -2 -19 -12.5t-19 -34t-15.5 -63.5t-7.5 -100q-2 -61 3 -114.5t10 -94.5q6 -48 15 -89l-184 -166q19 23 30 58t16.5 75t6.5 82.5t0 82.5t-3 73.5t-2 55.5q0 33 3 67t6.5 61t6.5 44.5t3 18.5q-23 24 -43 35.5t-37 16.5q-8 -5 -17 -18.5t-16.5 -37.5t-12.5 -61
t-6 -89q-2 -61 7.5 -103t20.5 -69q13 -32 31 -52l-184 -166q29 35 35 82.5t2 96.5t-12 95t-8 79t3 67t6.5 61t6.5 44.5t3 18.5q-29 31 -54.5 42t-44.5 13q-23 2 -41 -6l64 58q12 11 23.5 21t20.5 18q11 10 21 18q8 -17 22 -31t30.5 -25.5t33.5 -20.5t32 -15q14 13 32 29
t33.5 30t26.5 23.5l11 9.5q14 -27 40.5 -47t53.5 -34q32 -16 67 -27z" />
    <glyph glyph-name="k" unicode="k" horiz-adv-x="431" 
d="M377 86q-2 -61 7.5 -103t20.5 -69q13 -32 31 -52l-184 -166q24 29 32 67t7 78.5t-7.5 81t-10.5 75.5q-14 -13 -33.5 -30t-37 -33t-29.5 -26.5l-12 -10.5q-14 27 -40.5 46.5t-53.5 33.5q-32 16 -67 27q9 2 19 24t19 59.5t15.5 89t7.5 111.5q1 61 -8 113.5t-20 92.5
q-13 46 -31 85l188 170q-17 -20 -25.5 -48t-12.5 -61t-3 -68.5t4 -70.5l100 89q15 -26 38 -48q20 -19 50.5 -36.5t72.5 -23.5l-124 -99q17 -23 43 -39t49 -27q27 -13 56 -22q-9 -2 -19 -12.5t-19 -34t-15.5 -63.5t-7.5 -100zM272 400q-4 12 -12 26.5t-22 27t-34.5 20
t-48.5 6.5q5 -48 9.5 -88t4.5 -66v-18q12 10 27 24t30 27t27.5 24t18.5 17zM150 62q18 -20 35.5 -31t33.5 -16.5t29 -6t23 1.5q-1 11 -1.5 21t-0.5 18q0 33 3 67t6.5 61t6.5 44.5t3 18.5q-19 20 -36.5 31.5t-32.5 17t-28 6.5t-22 0q-1 -35 -4 -75.5t-6 -75t-6 -58t-3 -24.5z
" />
    <glyph glyph-name="germandbls" unicode="&#xdf;" horiz-adv-x="493" 
d="M211 17q1 -4 1 -6q0 -6 -9 0q2 2 3.5 2.5t2.5 1.5zM437 86q-2 -61 7.5 -103t20.5 -69q13 -32 31 -52l-184 -166q29 35 35 82.5t2 96.5t-12 95t-8 79t3 67t6.5 61t6.5 44.5t3 18.5q-29 31 -54.5 42t-44.5 13q-23 2 -41 -6q19 16 37 33q16 14 33.5 29.5t31.5 28.5
q-7 13 -19.5 30.5t-31.5 33.5t-45 26.5t-59 9.5q5 -48 9.5 -88t4.5 -66q0 -33 -3 -78t-6.5 -86t-6.5 -70t-3 -30q22 -24 34.5 -35t18.5 -16q-9 -7 -26.5 -20t-34 -26t-29 -22l-12.5 -9q-14 27 -31 41t-33 21q-18 8 -37 9q9 2 19 24t19 59.5t15.5 89t7.5 111.5q1 61 -8 113.5
t-20 92.5q-13 46 -31 85l188 170q-17 -20 -25.5 -48t-12.5 -61t-3 -68.5t4 -70.5l100 89q26 -28 58 -53q27 -21 64 -40.5t79 -24.5l-107 -86q17 -23 43 -40t50 -28q28 -13 58 -23q-9 -2 -19 -12.5t-19 -34t-15.5 -63.5t-7.5 -100z" />
    <glyph glyph-name="q" unicode="q" horiz-adv-x="403" 
d="M352 306q-1 -30 0.5 -69.5t4 -83.5t6 -90t7.5 -89q9 -102 20 -211l-173 -126q22 26 34.5 65.5t17.5 87t4.5 100.5t-3.5 105q-14 -13 -33 -30t-36 -32t-28.5 -25l-11.5 -10q-14 27 -40.5 46.5t-53.5 33.5q-32 16 -67 27q9 2 19 8t19 24t15.5 53t7.5 95t-8 96t-20 55
q-13 22 -31 31q70 63 125 113q23 21 45.5 41.5t40.5 36.5q20 18 39 35q14 -27 40.5 -47t53.5 -34q32 -16 67 -27q-9 -2 -19 -7.5t-19 -23.5t-15.5 -53t-7.5 -95zM150 62q36 -39 67.5 -47t51.5 -5q-3 43 -7.5 83.5t-8.5 74.5t-6.5 60t-2.5 41q0 33 3 62t6.5 50.5t6.5 34
t3 13.5q-30 32 -56.5 43t-45.5 12q-11 -32 -11.5 -67t4 -69.5t10 -67t5.5 -59.5q0 -33 -3 -61.5t-6.5 -50t-6.5 -34t-3 -13.5z" />
    <glyph glyph-name="p" unicode="p" horiz-adv-x="417" 
d="M364 306q-2 -61 7.5 -96.5t20.5 -54.5q13 -22 31 -31l-175 -164v1q0 1 -0.5 1.5t-0.5 2.5l-8 -7q2 2 4 5t4 5q-2 8 -6.5 21.5t-14 28t-24.5 27t-37 18.5q-2 -38 -4.5 -76.5t-5 -69t-4 -50.5l-1.5 -20q29 -31 54.5 -41.5t45.5 -11.5q23 -1 44 8q-38 -34 -67 -60l-24 -22
t-21.5 -19t-15 -13l-5.5 -5q-14 27 -40.5 46.5t-53.5 33.5q-32 16 -67 27q9 2 19 35.5t19 85t15.5 114.5t7.5 123t-8 113t-20 93q-13 47 -31 85l188 170q-17 -21 -26 -51t-13 -65q13 12 32.5 29t37.5 33t30.5 27l12.5 11q14 -27 40.5 -47t53.5 -34q32 -16 67 -27
q-9 -2 -19 -7.5t-19 -23.5t-15.5 -53t-7.5 -95zM223 177q5 -9 13 -20q7 -9 16.5 -19.5t23.5 -21.5q-4 42 -12 81t-8 72t3 62t6.5 50.5t6.5 34t3 13.5q-20 22 -38.5 33.5t-34.5 16.5t-29 5t-22 -1q-3 -40 -0.5 -83t6.5 -83.5t8 -75t4 -56.5v-25.5t-1 -31.5z" />
    <glyph glyph-name="r" unicode="r" horiz-adv-x="295" 
d="M150 62q29 -31 54.5 -41.5t45.5 -11.5q23 -1 44 8q-38 -34 -67 -60l-24 -22t-21.5 -19t-15 -13l-5.5 -5q-14 27 -40.5 46.5t-53.5 33.5q-32 16 -67 27q9 2 19 12.5t19 34.5t15.5 63.5t7.5 99.5t-8 102.5t-20 68.5q-13 31 -31 51l188 170q-18 -22 -27 -45.5t-12 -49.5
l100 89q15 -26 38 -48q20 -19 50.5 -36.5t72.5 -23.5l-136 -109q-5 31 -20 56q-13 20 -38.5 36.5t-68.5 13.5q-1 -26 2 -59t7 -66t7.5 -63t3.5 -51q0 -33 -3 -66.5t-6.5 -60.5t-6.5 -44t-3 -18z" />
    <glyph glyph-name="s" unicode="s" horiz-adv-x="416" 
d="M184 -96q-12 42 -35 73q-20 26 -53.5 43.5t-86.5 6.5l129 115q16 -25 38 -48q18 -20 44.5 -39.5t59.5 -31.5q-10 19 -27 48t-39.5 63t-48.5 69t-55 66.5t-59.5 56t-60.5 36.5l250 227q15 -33 38 -59q20 -23 50.5 -43.5t72.5 -26.5l-136 -109q-5 35 -19 63
q-12 24 -36 43.5t-64 20.5q9 -22 29.5 -64t55 -92.5t84 -104.5t115.5 -99z" />
    <glyph glyph-name="t" unicode="t" horiz-adv-x="280" 
d="M313 -26q0 1 1 1zM190 9q26 -28 47.5 -38t37 -10t25.5 5.5t13 7.5q-5 -4 -26 -23t-44.5 -40.5t-42.5 -38l-19 -16.5q-14 27 -37.5 45.5t-46.5 29.5q-27 13 -57 21q9 2 19 27.5t19 67.5t15.5 96.5t7.5 114.5q1 53 -6 100t-17 85q-28 1 -54 -2t-46 -8q-24 -5 -45 -12
l297 299q-28 -34 -35 -88t-5 -114q28 -2 54.5 -1.5t48.5 2.5q25 2 48 4l-141 -120q4 -33 6.5 -61t2.5 -47q0 -22 -1.5 -52t-3.5 -61.5t-4.5 -62t-4.5 -55t-3.5 -40z" />
    <glyph glyph-name="v" unicode="v" horiz-adv-x="411" 
d="M404 571q4 5 9 7zM352 306q-2 -61 7.5 -96.5t20.5 -54.5q13 -22 31 -31q-70 -63 -125 -113q-24 -21 -46.5 -41.5t-40 -36.5t-28 -25.5l-10.5 -9.5q-14 27 -40.5 46.5t-53.5 33.5q-32 16 -67 27q9 2 19 8t19 24t15.5 53t7.5 95t-8 110.5t-20 87.5q-13 43 -31 78l188 139
q-19 -24 -28 -55t-11.5 -65.5t0 -71t6.5 -70.5t8 -64.5t4 -52.5q0 -33 -3 -61.5t-6.5 -50t-6.5 -34t-3 -13.5q30 -33 57.5 -43.5t47.5 -9.5q11 32 11 66.5t-5 68.5t-11 66t-6 59q0 33 1 67t2.5 61.5t3 45t1.5 18.5l152 110q-17 -19 -33.5 -89t-18.5 -176z" />
    <glyph glyph-name="x" unicode="x" horiz-adv-x="393" 
d="M397 218q-9 -2 -18 -24.5t-13 -52t2 -59.5t27 -48l-178 -139q29 35 37 81t6.5 87t-7.5 69.5l-6 28.5q-26 28 -49.5 39.5t-43.5 13.5q-10 -34 -12 -68t-0.5 -62t4.5 -45.5t3 -18.5l-149 -88q20 34 23.5 66.5t-1.5 58.5q-5 30 -20 56q34 31 63 58q25 23 48.5 45t33.5 30
q-18 21 -43.5 37t-48.5 27q-27 12 -55 21q9 2 18 16t13 33.5t-2 41.5t-27 40l178 139q-29 -35 -37 -72.5t-6.5 -68.5t7.5 -51.5l6 -20.5q26 -29 49.5 -40t43.5 -13q10 33 12 62.5t0.5 51.5t-4.5 35l-3 13l149 88q-21 -35 -24 -62t2 -47q5 -23 20 -40q-35 -32 -64 -58
q-25 -23 -48.5 -45t-32.5 -30q18 -22 43 -37.5t48 -26.5q27 -12 56 -21z" />
    <glyph glyph-name="z" unicode="z" horiz-adv-x="406" 
d="M256 227q17 -23 42 -41t50 -29q28 -14 60 -23q-9 -2 -19 -7.5t-19 -23.5t-15.5 -53t-7.5 -95q-2 -61 -10 -96.5t-19 -54.5q-12 -22 -27 -31l-184 -166q29 35 53 75.5t41.5 82t27.5 81t10 72.5t3 62t6.5 50.5t6.5 34t3 13.5q-30 23 -60 30.5t-55 8.5q-29 1 -56 -5
q19 23 39.5 55.5t39.5 68t35.5 69.5t29.5 61.5t20.5 44.5t7.5 18q-28 30 -53 41.5t-44 13.5q-6 -17 -5.5 -28t3 -20.5t5.5 -19.5t3 -25l-109 -99q0 32 -9 48t-20 23q-13 7 -30 6l124 112l124 112q14 -27 40.5 -47t53.5 -34q32 -16 67 -27q-5 -1 -13.5 -12.5t-20 -30
t-25 -41.5t-26.5 -47q-31 -56 -68 -127z" />
    <glyph glyph-name="zero" unicode="0" horiz-adv-x="456" 
d="M428 431q3 -35 2.5 -69t-4.5 -69q-3 -23 -7.5 -45.5t-13.5 -44.5q-9 -24 -24.5 -45.5t-34.5 -40.5q-22 -21 -47 -38.5t-54 -28.5q-33 -11 -73 -13q-28 -2 -54 5t-47 27q-19 19 -30 42t-17 49q-15 55 -15 115q0 52 9 102q3 18 9.5 35t12.5 34q12 29 25.5 59.5t30.5 58.5
t39.5 51t52.5 38q2 1 7 3t9 2q10 0 15 -5q0 -1 0.5 -1.5t0.5 -1.5q11 3 21 4.5t21 -0.5t22.5 -4.5t22.5 -7.5q63 -24 91 -84q14 -30 21 -62.5t9 -64.5zM324 174q8 35 11 71.5t2 71.5q-1 29 -3.5 58t-10.5 58q-11 41 -33.5 74.5t-61.5 50.5q-11 4 -20.5 7t-20.5 5
q-6 1 -11.5 1.5t-11.5 0.5h-6q-8 -17 -14.5 -32.5t-12.5 -32.5q-8 -18 -15 -40q-2 -3 -2.5 -6.5t-1.5 -6.5q-1 -2 -1 -3t-1 -3q-9 -52 -9 -106.5t13 -106.5q10 -33 28 -63t51 -45q25 -9 49 -8q9 0 17.5 0.5t16.5 1.5l5 1q2 1 4 1t4 1q5 1 13 3q4 2 6 2q2 5 3 5q1 3 3 7
q3 8 5.5 16.5t4.5 16.5z" />
    <glyph glyph-name="one" unicode="1" horiz-adv-x="312" 
d="M277 65q4 -2 1 -8t-7.5 -12.5t-9.5 -11.5l-6 -6q-15 -17 -35 -29q-8 -5 -17 -9t-19 -2l-18 3q-13 2 -26 4.5t-26 4.5q-1 1 -4 1h-3q-4 0 -4 1q-11 2 -21.5 3.5t-21.5 1.5q-3 1 -9 1q-10 -7 -19.5 -11t-11.5 1l-1 2q-4 1 -4 6q-1 8 5 15.5l10 12.5q7 9 16.5 17.5
t19.5 15.5q11 8 22 14t25 8q0 8 0.5 16.5t0.5 16.5q0 97 -3 195q-2 52 -4 103.5t-4 103.5q-1 11 -1.5 20.5t-0.5 20.5q-2 -2 -4.5 -4t-4.5 -4q-8 -8 -16 -15t-18 -12q-5 -4 -11.5 -7.5t-13.5 -2.5q-9 0 -4 9.5t12 18.5q2 4 5 7l6 6q2 3 4.5 5.5t4.5 5.5q1 2 4.5 6t2.5 3
q2 2 3.5 4.5t3.5 4.5q2 3 3.5 6l3.5 7q1 1 2 3t2 2q1 3 3 7q3 6 5.5 12.5t4.5 12.5q5 18 19.5 32t28.5 25q1 1 8.5 6t15 9t14 4.5t6.5 -6.5q0 -9 1 -13q3 -91 7 -179.5t6 -179.5q2 -48 2.5 -95t-1.5 -95q-1 -14 -1.5 -28t-3.5 -28q0 -3 -2 -9q8 -2 17 -3t17 -3q6 -2 12 -2.5
t13 -2.5q2 0 4.5 -0.5t4.5 -0.5q4 -1 4.5 -2t5.5 -3z" />
    <glyph glyph-name="two" unicode="2" horiz-adv-x="514" 
d="M474 -144q3 -4 -0.5 -10.5t-5.5 -9.5q-4 -5 -7.5 -10t-7.5 -10v1q-18 -24 -43 -41q-11 -7 -21 -13t-22 -11q-19 -6 -37 -1.5t-35 15t-32.5 24t-27.5 24.5q-32 29 -65.5 60t-74.5 49q-20 8 -39 7q-8 -5 -15.5 -9t-15.5 -8q-2 -1 -5.5 -2.5t-7.5 -2t-6.5 0.5t-2.5 6
q1 10 9.5 20t15.5 16q14 14 30.5 28t36.5 23l2 2l6 6q3 4 6.5 7.5t6.5 7.5q6 8 12 14.5t12 13.5q13 16 26 30.5t26 30.5q4 6 6 8t4 6q2 2 4 5t4 5q5 8 11 16t11 16q5 9 11 18.5t11 18.5q1 1 2 3q0 1 0.5 1t0.5 1l1 1q1 2 1.5 3.5t2.5 3.5q2 5 4.5 8.5t4.5 8.5q7 14 13 28
t11 28q1 2 1.5 4t1.5 4v2q0 1 0.5 1.5t0.5 1.5l3 12q2 7 2.5 13t1.5 13q1 11 0.5 22t-3.5 22q-8 27 -27 45t-45 29q-14 5 -28.5 9t-30.5 3h-6.5t-6.5 -1h-3q-2 -1 -6 -1q-8 -2 -15.5 -4t-15.5 -5l-9 -3q-2 0 -3 -1q-1 0 -1.5 -0.5t-1.5 -0.5v-2q0 -7 -5 -13t-9 -11
q-13 -16 -32 -30q-2 -2 -8.5 -6.5t-14 -8t-13.5 -4t-6 6.5q-2 16 6.5 29.5t17.5 25.5q14 19 33 34.5t39 28.5q25 17 54 29t58 17q12 2 24 3.5t24 -0.5q15 -2 29.5 -7.5t28.5 -11.5q22 -11 39 -28t25 -41q9 -30 5 -60.5t-14 -59.5q-14 -40 -35.5 -77t-44.5 -72
q-26 -38 -55 -73t-59 -70q-10 -11 -19.5 -22.5t-20.5 -22.5q35 -4 64.5 -25.5t55.5 -43.5q17 -16 34.5 -32t35.5 -32q14 -12 29 -23.5t32 -19.5q5 -2 9 -3t9 -1q16 13 33 22q3 1 10 4t11 -2z" />
    <glyph glyph-name="three" unicode="3" horiz-adv-x="407" 
d="M314 198q27 -21 41.5 -51.5t19 -64t1 -68.5t-12.5 -65q-11 -38 -28.5 -73.5t-43.5 -66.5q-16 -19 -34.5 -37.5t-40 -33t-45.5 -24.5t-49 -13q-34 -4 -66 7t-58 34q-12 11 -22 23.5t-14 27.5q-6 21 -2 38.5t15 34.5t28.5 32t35.5 24q3 2 10 4.5t11 -1.5q2 -4 0 -8.5
t-4 -8.5q1 1 -0.5 -2l-2.5 -5q0 -1 -0.5 -2.5t-0.5 -2.5t-0.5 -2t-0.5 -3v-9.5t2 -9.5q8 -28 31.5 -48t49.5 -31q23 -10 50 -10h17q1 0 2 1h2q2 0 2.5 0.5t2.5 0.5q3 1 6.5 1.5t6.5 2.5h1q1 0 1 0.5t1 0.5l1 2l2 2q4 6 8 13q2 1 4 5v1q4 7 7 14q6 12 11 24t9 25l2 5
q0 2 0.5 3t0.5 3q2 5 4 13q2 7 2.5 13.5t2.5 13.5q4 27 3.5 54.5t-7.5 54.5q-8 26 -23.5 52.5t-41.5 38.5q-20 7 -42 7q-14 1 -27 0h-6.5t-6.5 -1q-2 0 -6 -0.5t-3 -0.5l-12 -2t-12 -3q-6 -7 -12.5 -13.5t-14.5 -11.5q-2 -1 -8 -5t-13.5 -7.5t-13 -4t-5.5 5.5v5q-1 -4 0.5 3
t0.5 6q2 4 4 7.5t4 6.5q22 28 49 49q19 14 40 25q2 0 4 2l15 12q1 1 3 2t4 3l1 1l10 10q2 2 3.5 4t3.5 4t3.5 4.5t3.5 4.5l6 8t6 9q2 2 3 5t3 5l1 1q0 1 1 2q5 9 9 18.5t7 19.5l2 4v1q1 4 3 10q1 5 1.5 9t0.5 9q1 14 -2 34q-7 21 -22 38t-35 26q-18 7 -37.5 10.5t-39.5 2.5
q-5 -8 -10 -13q-13 -16 -32 -30q-2 -2 -8.5 -6t-13.5 -7.5t-12.5 -4t-6.5 6.5q0 2 -0.5 2t-0.5 -2q0 2 -0.5 2.5t-0.5 2.5v5q0 6 1 8q4 16 13 29q17 23 38 41.5t47 30.5q23 12 49.5 15.5t52.5 -0.5q27 -4 53 -15t42 -35q20 -29 18.5 -62t-13.5 -64q-15 -39 -39.5 -73
t-53.5 -64q-3 -2 -5 -5q3 1 6.5 1t7.5 1q24 2 50.5 0t46.5 -18z" />
    <glyph glyph-name="four" unicode="4" horiz-adv-x="514" 
d="M479 126q2 -6 0 -10.5t-5 -9.5q-6 -8 -13 -15.5t-15 -14.5t-16.5 -13t-18.5 -11l-1 -1q1 -20 1.5 -39.5t1.5 -39.5q1 -17 2 -33.5t2 -33.5q0 -17 -1 -34t-6 -34q-8 -25 -20.5 -45t-30.5 -38q-15 -15 -32.5 -29t-37.5 -22q-11 -5 -23 -8.5t-25 -1.5q-22 2 -39 14l-8 6
t-7 6q-6 9 -13 16q-3 5 0.5 10.5t5.5 8.5q10 15 27 29q8 7 15.5 12.5t16.5 10.5q3 2 9.5 4t10.5 -1q11 -12 27 -22.5t33 -12.5v1q8 35 5.5 70t-4.5 70q-2 37 -3 73.5t-2 73.5l-9 -3q-8 -2 -17.5 -3t-17.5 -1q-20 -2 -39.5 -1t-39.5 2q-40 2 -75 -4q-26 -4 -55.5 -8t-55.5 3
q-5 1 -5.5 4.5t1.5 8.5q64 125 141 239q15 22 29.5 44t28.5 45q17 29 38 57.5t48 48.5q4 3 7.5 6.5t7.5 6.5q1 0 6 3.5t11 6.5t12 5t9 0q5 5 13 11q1 1 7.5 5t14 8t13.5 4.5t6 -6.5q-3 -65 4 -129t7 -130q0 -35 0.5 -69.5t1.5 -69.5q6 5 18 10q4 3 14 5q16 -1 25 -14
q4 -5 8.5 -10.5t6.5 -10.5zM261 139q13 0 26 -0.5t26 -1.5q0 45 -0.5 88t-3.5 87q-2 39 -4.5 79t2.5 79q-2 -2 -3 -4t-3 -4l-27 -42q-14 -23 -27.5 -44t-27.5 -43q-35 -53 -65 -102t-58 -103q23 -2 46 0t46 6q19 2 36.5 4t36.5 1z" />
    <glyph glyph-name="five" unicode="5" horiz-adv-x="430" 
d="M433 98q5 -41 3.5 -82t-12.5 -80q-10 -36 -22.5 -71.5t-35.5 -65.5q-16 -21 -35 -40.5t-41 -35t-46.5 -25.5t-51.5 -11q-30 -2 -60.5 6.5t-56.5 22.5t-48 34.5t-24 52.5q0 6 5.5 13t8.5 12l16 16t17 15q2 1 9 6t14.5 8.5t13.5 4t7 -6.5q2 -15 10.5 -28t20.5 -23.5
t26.5 -18.5t27.5 -14q14 -5 27.5 -9.5t27.5 -6.5q7 -1 13 -1.5t13 -1.5q15 0 26 3q2 0 10 2q0 1 0.5 1.5t0.5 1.5q2 2 2 3q1 2 1.5 3.5t2.5 3.5q4 8 5 13q14 32 22.5 64t11.5 68q3 39 0 78t-13 77q-7 26 -17 51.5t-27 47.5q-30 39 -73 57q-23 9 -47 13.5t-48 6.5
q-27 3 -54 0q-2 -1 -3 -1h-2h-4q-2 -1 -5 -1.5t-5 -1.5h-2q-8 -6 -18.5 -11t-15.5 1q-5 5 2.5 15.5t10.5 14.5q1 1 2.5 3t3 3.5t2.5 3t0 0.5q2 2 3.5 5t3.5 5q1 1 3 4t0 1q2 2 2 4q2 3 6 11q7 14 13 29t11 29q11 30 24.5 58.5t32.5 54.5q18 24 42 42q12 8 23 14q8 5 16 5
q16 -5 30.5 -11t29.5 -13q-2 2 -4 2q19 -8 38.5 -15t39.5 -9q5 -1 10 -1.5t10 0.5q19 19 42 30q3 2 10 4.5t10 -1.5q4 -4 0.5 -10.5t-5.5 -8.5q-17 -26 -40.5 -47t-50.5 -36q-28 -16 -60 -14q-26 2 -51.5 11.5t-49.5 19.5q-3 -8 -6 -15.5t-6 -15.5q-8 -21 -17.5 -41
t-20.5 -39q6 2 9 2q34 5 70.5 3.5t71 -11.5t64.5 -29.5t50 -50.5q23 -34 34 -75t16 -81zM342 478q-5 -5 -3.5 -4t4.5 5z" />
    <glyph glyph-name="six" unicode="6" horiz-adv-x="506" 
d="M439 357q20 -45 14 -93t-29 -90q-17 -30 -39 -56.5t-48 -49.5q-23 -21 -50 -39t-56 -30q-22 -9 -45.5 -14t-47.5 -2q-43 6 -75 38q-20 21 -32.5 47.5t-20.5 54.5q-9 35 -11.5 69t4.5 69q13 72 50.5 132.5t82.5 115.5q22 26 44 52.5t44 52.5q11 13 22 28q5 5 10 13h1
q1 2 4 5q21 29 38 56q10 16 25.5 29.5t32.5 21.5q3 1 7.5 2t8.5 1t5 -2.5t-2 -8.5q-17 -29 -36 -56.5t-39 -53.5q-22 -26 -44 -52.5t-44 -52.5q-5 -7 -11 -13.5t-11 -13.5q-2 -4 -5 -7t-5 -6q-1 -2 -4 -5q-9 -12 -17.5 -24.5t-16.5 -25.5q23 14 47 23t50 10q24 1 47.5 -4.5
t44.5 -16.5q34 -17 63 -43t44 -61zM356 167q5 22 6 43.5t-4 43.5q-13 46 -48 80t-77 52q-17 7 -35 11t-36 3q-10 -1 -16.5 -1.5t-15.5 -3.5q-2 -1 -3 -1t-3 -1q-1 -1 -3 -1.5t-2 -1.5h-1q-3 -2 -1 -1h-1q-1 -1 -2 -1.5t-2 -1.5q-6 -14 -9 -24.5t-6 -25.5q-13 -66 4 -133
q11 -39 32 -75.5t59 -54.5q25 -9 50 -8q8 0 12 1h1q2 0 3 1q5 1 9.5 1.5t9.5 2.5q2 1 3.5 1.5t3.5 1.5q4 2 6 2q2 2 4.5 2.5t4.5 2.5h1q2 2 4 2.5t4 2.5l3 3q2 0 2 2q2 1 4 3l3 3q2 4 5 7q1 1 1.5 2t1.5 2l6 9q1 2 2.5 4.5t2.5 3.5q1 2 1 2.5t1 2.5q5 9 10 22q2 6 3 10
q1 1 1 3q1 1 1 2z" />
    <glyph glyph-name="seven" unicode="7" horiz-adv-x="500" 
d="M459 535q-12 -47 -29.5 -91t-38.5 -87q-11 -23 -23 -46.5t-23 -46.5q6 0 12.5 -0.5t12.5 0.5q10 1 19 4q2 1 5 1.5t5 1.5t6 2.5t5 1.5q4 2 9 1t4 -6q-1 -7 -5.5 -13.5t-8.5 -11.5q-25 -30 -57 -46q-21 -11 -45 -15q-20 -46 -37.5 -92t-37.5 -92q-30 -74 -69 -144
q-23 -43 -54.5 -83.5t-78.5 -58.5q-4 -2 -8.5 -1t-4.5 7q1 7 5.5 13.5t9.5 11.5q10 13 24 24q2 4 4 7t4 7l6 9v1q44 78 76 160.5t67 164.5q8 17 15.5 33.5t15.5 32.5q-15 3 -30 7t-30 7q-11 2 -22 3t-22 0h-3q-3 0 -4 -1q-10 -2 -15 -4q-13 -4 -25 -9t-25 -8q-5 -2 -11 1
q-3 2 -2.5 5.5t1.5 5.5q4 8 9 14t10 11q8 8 18.5 17t21.5 14q14 8 29 14.5t31 12.5q19 6 36.5 8.5t37.5 0.5q11 -2 20.5 -4t19.5 -4q21 41 39 82t31 86q-20 -11 -41.5 -19t-44.5 -11q-31 -3 -60 4t-58 20q-9 3 -18 5.5t-19 4.5q-5 1 -9.5 1.5t-9.5 0.5t-8 -1
q-8 -11 -18 -20.5t-21 -16.5q-8 -7 -17 -13t-19 -8q-8 -2 -11 1t1 11q11 22 25.5 40t32.5 35q17 15 36.5 28t41.5 20q29 9 55.5 4.5t52.5 -15.5q23 -10 48 -15.5t51 -3.5q5 1 9 1.5t11 2.5l12 3q1 1 1.5 1t1.5 1h2q2 2 4 2.5t4 1.5q2 2 4.5 3t3.5 2t1.5 1t1.5 1q2 2 4.5 3.5
t4.5 3.5q7 5 15.5 10.5t16.5 7.5q3 1 9 1t4 -6zM123 249q2 0 4 1.5t2.5 2.5t-2.5 0t-10 -6q4 2 6 2zM85 -211q3 2 6 3t7 3q-5 -2 -13 -6z" />
    <glyph glyph-name="eight" unicode="8" horiz-adv-x="512" 
d="M461 322q19 -32 21.5 -69t-10.5 -72q-17 -46 -53 -84t-76 -66q-18 -12 -38 -24t-41 -21t-43.5 -14t-44.5 -4q-37 1 -68.5 16.5t-55.5 41.5t-38.5 59t-17.5 68q-4 43 8 84t34 77q27 43 63 78q2 1 2.5 2t2.5 2q-25 14 -43.5 35.5t-26.5 50.5q-11 39 -4.5 78t31.5 71
q20 26 43 48.5t51 39.5q11 7 22.5 12.5t24.5 9.5q5 2 15 4q3 0 7 1t6 -2q-2 2 1 2h4q3 0 5 -3q3 1 5.5 1t5.5 1q12 1 27 -2q29 -6 55 -23q12 -8 23 -17t20 -20q10 -11 14.5 -27t5.5 -30q3 -34 -8 -67t-30 -61q-10 -15 -22 -28.5t-26 -26.5q20 -8 39.5 -19.5t36.5 -25.5
q20 -16 39.5 -34.5t33.5 -41.5zM122 612q-2 -26 4 -48q9 -32 29.5 -56t50.5 -38q2 -1 3.5 -1.5t3.5 -1.5q4 1 6 -1q25 -7 45 -4h3h1q2 1 3 1t3 1q8 2 11 3q1 0 1 1l2 4l2 4l4 10l4 10q5 17 7 37.5t-3 40.5q-9 29 -32.5 48.5t-50.5 31.5q-16 7 -32 8q-5 1 -15 1h-2
q-1 0 -2 -1q-3 0 -5 -1q-3 -2 -7 -2t-6 2q-2 4 -2 5q-2 -1 -3.5 -1t-3.5 -1q0 -1 -1 -1t-2 -0.5t-2 -0.5q0 -1 -0.5 -1t-0.5 -1q-1 -3 -2 -5q-1 -1 -1 -1.5t-1 -1.5t-1 -2l-3 -9q-1 -3 -1 -1q-2 -7 -3 -13.5t-1 -14.5zM389 160q1 22 -3 45q-8 27 -24 48.5t-36 41.5
q-22 20 -46 37t-51 28q-15 6 -30.5 10t-31.5 2q-12 -14 -27.5 -27t-32.5 -18q-1 0 -2 -1q-13 -32 -16 -66.5t6 -69.5q12 -42 39 -76.5t68 -51.5q11 -5 21 -7t21 -4q12 -1 23.5 -0.5t20.5 2.5q7 2 13 4t13 4q1 1 2 1t2 1q3 2 6 2.5t5 2.5q3 2 6 2.5t5 2.5q1 1 2 1l1 1
q2 2 5 3t5 3h1l3 3q2 2 4 3q0 1 1 1q0 1 0.5 1t0.5 1q1 1 1.5 2t1.5 2q4 4 7 10q0 1 2 3q1 3 2 5.5t2 5.5q5 11 7 20q3 10 3 22zM172 663h-2h2z" />
    <glyph glyph-name="nine" unicode="9" horiz-adv-x="441" 
d="M403 359q4 -40 -5.5 -79.5t-22.5 -77.5q-13 -36 -28 -71t-27 -72q-14 -41 -33 -79.5t-39 -77.5q-17 -36 -32.5 -72.5t-20.5 -76.5q-1 -7 -5.5 -13.5t-9.5 -11.5q-8 -9 -16 -17t-18 -15q-1 -1 -8.5 -5.5t-16 -8.5t-15 -5t-5.5 7l2 14t3 15q11 42 28.5 81.5t37.5 77.5
q10 20 19.5 39.5t18.5 39.5q8 18 14.5 36.5t13.5 36.5q7 20 14.5 38.5t15.5 37.5q-19 -12 -38.5 -19t-42.5 -9q-17 -1 -34.5 0t-33.5 6q-36 11 -59 40t-37 62q-14 34 -21 69.5t4 71.5q12 44 42 80q10 12 20.5 23t22.5 21q-2 4 1.5 10t5.5 8q11 17 27 30.5t34 22.5q3 2 6.5 3
t7.5 3l-5 -2l2.5 1t5.5 2.5l5 2.5q5 1 11 2t11 1q10 1 19 -0.5t18 -3.5q42 -13 76 -36q17 -11 32.5 -24t27.5 -29q13 -17 19 -37t8 -40zM260 154q10 1 15.5 1.5t14.5 3.5q2 8 4 12q10 33 15 70.5t-3 72.5q-13 44 -50 74t-77 47q-8 3 -17 5.5t-18 4.5q-15 -15 -33 -27
q-2 -2 -2 -1q-1 -3 -3 -7q-4 -9 -7 -20l-1 -2q-1 -1 -1 -3t-0.5 -3t-0.5 -2q-1 -3 -1 -6t-1 -5q-1 -6 -1 -11.5v-11.5q0 -19 5 -42q6 -20 14 -41.5t19.5 -40.5t26.5 -34.5t35 -24.5q16 -5 33 -7t34 -2z" />
    <glyph glyph-name="period" unicode="." horiz-adv-x="206" 
d="M78 -26q-9 29 -22 46.5t-26 27.5q-15 11 -30 17q31 24 57 42q11 8 21 15.5l18 13.5q10 7 18 13q12 -24 25.5 -42t25.5 -30q14 -14 28 -24z" />
    <glyph glyph-name="comma" unicode="," horiz-adv-x="185" 
d="M17 -106q11 47 7 79.5t-14 52.5q-11 24 -31 39q31 24 57 42q11 8 21 15.5l18 13.5q10 7 18 13q12 -24 25.5 -42t25.5 -30q14 -14 28 -24z" />
    <glyph glyph-name="colon" unicode=":" horiz-adv-x="206" 
d="M78 -26q-9 29 -22 46.5t-26 27.5q-15 11 -30 17q31 24 57 42q11 8 21 15.5l18 13.5q10 7 18 13q12 -24 25.5 -42t25.5 -30q14 -14 28 -24zM78 344q-9 29 -22 46.5t-26 27.5q-15 11 -30 17q31 24 57 42q11 8 21 15.5l18 13.5q10 7 18 13q12 -24 25.5 -42t25.5 -30
q14 -14 28 -24z" />
    <glyph glyph-name="semicolon" unicode=";" horiz-adv-x="185" 
d="M17 -106q11 47 7 79.5t-14 52.5q-11 24 -31 39q31 24 57 42q11 8 21 15.5l18 13.5q10 7 18 13q12 -24 25.5 -42t25.5 -30q14 -14 28 -24zM78 344q-9 29 -22 46.5t-26 27.5q-15 11 -30 17q31 24 57 42q11 8 21 15.5l18 13.5q10 7 18 13q12 -24 25.5 -42t25.5 -30
q14 -14 28 -24z" />
    <glyph glyph-name="A" unicode="A" horiz-adv-x="417" 
d="M355 306q-2 -61 7.5 -96.5t20.5 -54.5q13 -22 31 -31q-70 -63 -125 -113q-24 -21 -46.5 -41.5t-40 -36.5t-28 -25.5l-10.5 -9.5q-14 27 -40.5 46.5t-53.5 33.5q-32 16 -67 27q9 2 18.5 5.5t17.5 16t13 38t5 71.5q0 26 -7 40.5t-15 21.5q-10 8 -21 10q49 44 89 78l90 78
q11 -23 26 -36.5t29 -20.5q3 53 10 86.5t8 35.5q-28 30 -53 41.5t-44 13.5q-6 -17 -5.5 -28t3 -20.5t5.5 -19.5t3 -25l-109 -99q0 32 -9 48t-20 23q-13 7 -30 6l124 112l124 112q14 -27 40.5 -47t53.5 -34q32 -16 67 -27q-9 -2 -19 -7.5t-19 -23.5t-15.5 -53t-7.5 -95z
M153 62q30 -33 57.5 -43.5t47.5 -9.5q10 29 10.5 60t-3 61.5t-9.5 60.5t-8 56l-44 -47q-24 26 -47 38q2 -13 4 -26.5t2 -27.5q0 -19 -1.5 -40t-3 -39t-3.5 -30t-2 -13zM55 278q-16 36 -35 63q-17 23 -41 41.5t-54 16.5l7 5.5t19 10.5t27.5 7t34.5 -5t39.5 -25.5t42.5 -54.5z
M344 240q11 -37 28 -66q14 -25 36 -46t52 -22q-1 0 -8 -4.5t-19.5 -8.5t-28.5 -4t-33.5 9t-36.5 29.5t-36 58.5z" />
    <glyph glyph-name="B" unicode="B" 
d="M354 306q-2 -61 7.5 -96.5t20.5 -54.5q13 -22 31 -31q-71 -63 -126 -113q-24 -21 -46.5 -41.5t-40 -36.5t-28.5 -25.5l-11 -9.5q-14 27 -40.5 46.5t-53.5 33.5q-32 16 -67 27q9 2 19 24t19 59.5t15.5 89t7.5 111.5q1 61 -8 113.5t-20 92.5q-13 46 -31 85l188 170
q-17 -20 -25.5 -48t-12.5 -60.5t-3 -68t4 -70.5q14 13 31.5 28.5t33 29.5t26 23l10.5 9q14 -27 40.5 -47t53.5 -34q32 -16 67 -27q-9 -2 -19 -7.5t-19 -23.5t-15.5 -53t-7.5 -95zM150 62q31 -34 59 -44t48 -9q11 32 11 66.5t-5 68.5t-11 66t-6 59q0 33 3 62t6.5 50.5t6.5 34
t3 13.5q-33 36 -62 46t-48 9q4 -48 9 -90t5 -68q0 -33 -3 -78t-6.5 -86t-6.5 -70t-3 -30zM30 513q-14 37 -32 65q-16 24 -39 43.5t-53 18.5q1 0 16 9.5t38.5 10.5t53 -17t59.5 -73z" />
    <glyph glyph-name="C" unicode="C" horiz-adv-x="364" 
d="M150 62q14 -15 31 -22t35 -8t35.5 3t34.5 11q39 16 79 46q-57 -54 -102 -97q-19 -18 -37.5 -36t-32.5 -31.5t-23 -21.5l-9 -8q-14 27 -40.5 46.5t-53.5 33.5q-32 16 -67 27q9 2 19 8t19 24t15.5 53t7.5 95t-8 96t-20 55q-13 22 -31 31l254 228q14 -27 31.5 -41t34.5 -20
q19 -7 39 -7l-94 -96q-32 34 -59 44.5t-47 10.5q-12 -33 -12 -68t4.5 -69.5t10 -67t5.5 -60.5q0 -33 -3 -61.5t-6.5 -50t-6.5 -34t-3 -13.5zM55 278q-16 36 -35 63q-17 23 -41 41.5t-54 16.5l7 5.5t19 10.5t27.5 7t34.5 -5t39.5 -25.5t42.5 -54.5z" />
    <glyph glyph-name="D" unicode="D" 
d="M352 306q-2 -61 7.5 -96.5t20.5 -54.5q13 -22 31 -31q-70 -63 -125 -113q-24 -21 -46.5 -41.5t-40 -36.5t-28 -25.5l-10.5 -9.5q-14 27 -40.5 46.5t-53.5 33.5q-32 16 -67 27q9 2 19 8t19 24t15.5 53t7.5 95t-8 96t-20 55q-13 22 -31 31q57 52 102 93q19 17 37.5 34
t32.5 30q17 15 32 29q11 -21 23.5 -34t25.5 -20q3 38 5 62.5t3 25.5q-29 31 -54.5 42t-44.5 13q-23 2 -41 -6l64 58q12 11 23.5 21t20.5 18q11 10 21 18q14 -27 40.5 -47t53.5 -34q32 -16 67 -27q-9 -2 -19 -32t-19 -78t-15.5 -107.5t-7.5 -119.5zM150 62q30 -33 57.5 -43.5
t47.5 -9.5q11 32 11 66.5t-5 68.5t-11 66t-6 59q0 28 2 70t4 86l-33 -36q-18 20 -35 31t-31 17q-3 -28 -0.5 -57t6.5 -56.5t8 -54t4 -48.5q0 -33 -3 -61.5t-6.5 -50t-6.5 -34t-3 -13.5zM65 268q-16 36 -35 63q-17 23 -41 41.5t-54 16.5l7 5.5t19 10.5t27.5 7t34.5 -5
t39.5 -25.5t42.5 -54.5zM344 240q11 -37 28 -66q14 -25 36 -46t52 -22q-1 0 -8 -4.5t-19.5 -8.5t-28.5 -4t-33.5 9t-36.5 29.5t-36 58.5z" />
    <glyph glyph-name="E" unicode="E" horiz-adv-x="374" 
d="M150 62q14 -15 31 -22t35 -8t35.5 3t34.5 11q39 16 79 46q-57 -54 -102 -97q-19 -18 -37.5 -36t-32.5 -31.5t-23 -21.5l-9 -8q-14 27 -40.5 46.5t-53.5 33.5q-32 16 -67 27q9 2 19 8t19 24t15.5 53t7.5 95t-8 96t-20 55q-13 22 -31 31l254 228q14 -27 35.5 -41.5
t41.5 -20.5q24 -7 50 -7l-225 -209q5 -26 8 -50t3 -46q0 -33 -3 -61.5t-6.5 -50t-6.5 -34t-3 -13.5zM161 486q-11 -32 -11.5 -66t3.5 -68l101 92q-27 26 -51 34t-42 8zM55 278q-16 36 -35 63q-17 23 -41 41.5t-54 16.5l7 5.5t19 10.5t27.5 7t34.5 -5t39.5 -25.5t42.5 -54.5z
" />
    <glyph glyph-name="F" unicode="F" horiz-adv-x="350" 
d="M261 380q-31 33 -58 44t-47 11q5 -43 9 -80t4 -60q0 -22 -1.5 -52t-3.5 -61.5t-4.5 -62t-4.5 -55t-3.5 -40l-1.5 -15.5q26 -28 47.5 -38t37 -10t25.5 5.5t13 7.5q-5 -4 -26 -23t-44.5 -40.5t-42.5 -38l-19 -16.5q-14 27 -37.5 45.5t-46.5 29.5q-27 13 -57 21q9 2 19 27.5
t19 67.5t15.5 96.5t7.5 114.5t-8 113t-20 93q-13 47 -31 86l225 199q15 -26 38 -48q20 -19 50.5 -36.5t72.5 -23.5l-133 -107q14 -23 30.5 -35t30.5 -17q17 -6 34 -6zM154 459q14 13 31 28t31.5 27.5t24 21l9.5 8.5q-2 9 -7.5 23.5t-16.5 29t-28 26t-42 14.5q-8 -41 -7 -87
t5 -91zM273 -26q0 1 1 1zM40 463q-14 37 -32 65q-16 24 -39 43.5t-53 18.5q1 0 16 9.5t38.5 10.5t53 -17t59.5 -73z" />
    <glyph glyph-name="G" unicode="G" horiz-adv-x="411" 
d="M352 306q-1 -30 0.5 -64.5t4 -70.5t6 -71.5t7.5 -68.5q9 -77 20 -154l-217 -204q-7 41 -26 70q-17 25 -47.5 41.5t-83.5 5.5l129 132q-18 21 -43 36t-48 26q-26 12 -54 21q9 2 19 8t19 24t15.5 53t7.5 95t-8 96t-20 55q-13 22 -31 31q70 63 125 113q23 21 45.5 41.5
t40.5 36.5q20 18 39 35q14 -27 40.5 -47t53.5 -34q32 -16 67 -27q-9 -2 -19 -7.5t-19 -23.5t-15.5 -53t-7.5 -95zM263 429q-30 32 -56.5 43t-45.5 12q-11 -32 -11.5 -67t4 -69.5t10 -67t5.5 -59.5q0 -33 -3 -61.5t-6.5 -50t-6.5 -34t-3 -13.5q18 -20 35.5 -31t33.5 -16.5
t29 -6t23 1.5q-3 42 -7.5 81.5t-9 73.5t-7.5 61t-3 43q0 33 3 62t6.5 50.5t6.5 34t3 13.5zM161 -101q3 -11 10 -24.5t18.5 -26t29 -24t42.5 -18.5q10 43 12 92t-1 99q-14 -13 -33.5 -30t-36.5 -32.5t-29 -26l-12 -10.5v1zM60 273q-14 37 -32 65q-16 24 -39 43.5t-53 18.5
q1 0 16 9.5t38.5 10.5t53 -17t59.5 -73zM364 -51q11 -37 28 -66q14 -25 36 -46t52 -22l-7.5 -4.5t-20 -8.5t-28.5 -4t-33.5 9t-36.5 29.5t-36 58.5z" />
    <glyph glyph-name="H" unicode="H" horiz-adv-x="399" 
d="M401 485q-9 -2 -19 -12.5t-19 -34t-15.5 -63.5t-7.5 -100q-2 -61 3 -114.5t10 -94.5q6 -48 15 -89l-184 -166q19 23 30 58t16.5 75t6.5 82.5t0 82.5t-3 73.5t-2 55.5q0 33 3 67t6.5 61t6.5 44.5t3 18.5q-28 30 -52.5 41.5t-43.5 13.5q5 -48 9.5 -90t4.5 -68q0 -33 -3 -77
t-6.5 -83.5t-6.5 -67t-3 -28.5l-144 -113q8 11 17.5 43.5t17.5 78t13.5 100t6.5 110.5q1 61 -8 113.5t-20 92.5q-13 46 -31 85l188 170q-16 -19 -25 -45.5t-12.5 -57.5t-3.5 -64.5t3 -67.5q14 13 29.5 27t28.5 25.5t21.5 18.5l8.5 7q14 -27 40.5 -47t53.5 -34q32 -16 67 -27
zM6 -43q-4 -4 -6 -4zM40 503q-14 37 -32 65q-16 24 -39 43.5t-53 18.5q1 0 16 9.5t38.5 10.5t53 -17t59.5 -73zM354 39q11 -37 28 -66q14 -25 36 -46t52 -22l-7.5 -4.5t-20 -8.5t-28.5 -4t-33.5 9t-36.5 29.5t-36 58.5z" />
    <glyph glyph-name="I" unicode="I" horiz-adv-x="236" 
d="M180 550q-29 -35 -34.5 -72t0 -73.5t14.5 -72t9 -68.5t-3 -68.5t-6.5 -65t-6.5 -48.5t-3 -20q29 -31 54.5 -41.5t45.5 -11.5q23 -1 44 8q-38 -34 -67 -60l-24 -22t-21.5 -19t-15 -13l-5.5 -5q-14 27 -40.5 46.5t-53.5 33.5q-32 16 -67 27q9 2 19 17.5t19 45.5t15.5 75
t7.5 105t-8 96t-20 55q-13 22 -31 31zM60 333q-14 37 -32 65q-16 24 -39 43.5t-53 18.5q1 0 16 9.5t38.5 10.5t53 -17t59.5 -73zM68 554q-9 29 -22 46.5t-26 27.5q-15 11 -30 17q31 24 57 42q11 8 21 15.5l18 13.5q10 7 18 13q12 -24 25.5 -42t25.5 -30q14 -14 28 -24z" />
    <glyph glyph-name="J" unicode="J" horiz-adv-x="300" 
d="M250 254q-2 -61 4 -127t14 -122q9 -65 20 -128l-217 -204q-7 41 -26 70q-17 25 -47.5 41.5t-83.5 5.5l139 142q2 -27 13 -51q10 -21 31 -42t63 -33q13 54 12 115t-8 118t-14.5 104.5t-7.5 73.5q0 67 3.5 107.5t4.5 42.5q-29 31 -54.5 42t-44.5 13q-23 2 -41 -6l64 58
q12 11 23.5 21t20.5 18q11 10 21 18q14 -27 40.5 -47t53.5 -34q32 -16 67 -27q-9 -2 -17.5 -6t-15 -20t-11.5 -49.5t-6 -93.5zM181 534q-13 27 -28.5 43t-29.5 24q-17 10 -33 12l50 50l18 18t17 16q9 8 16 15q15 -22 31 -37.5t30 -25.5q16 -12 31 -20zM264 -51
q11 -37 28 -66q14 -25 36 -46t52 -22l-7.5 -4.5t-19.5 -8.5t-28.5 -4t-34 9t-36.5 29.5t-36 58.5z" />
    <glyph glyph-name="K" unicode="K" horiz-adv-x="431" 
d="M377 86q-2 -61 7.5 -103t20.5 -69q13 -32 31 -52l-184 -166q24 29 32 67t7 78.5t-7.5 81t-10.5 75.5q-14 -13 -33.5 -30t-37 -33t-29.5 -26.5l-12 -10.5q-14 27 -40.5 46.5t-53.5 33.5q-32 16 -67 27q9 2 19 24t19 59.5t15.5 89t7.5 111.5q1 61 -8 113.5t-20 92.5
q-13 46 -31 85l188 170q-17 -20 -25.5 -48t-12.5 -61t-3 -68.5t4 -70.5l100 89q15 -26 38 -48q20 -19 50.5 -36.5t72.5 -23.5l-124 -99q17 -23 43 -39t49 -27q27 -13 56 -22q-9 -2 -19 -12.5t-19 -34t-15.5 -63.5t-7.5 -100zM272 400q-4 12 -12 26.5t-22 27t-34.5 20
t-48.5 6.5q5 -48 9.5 -88t4.5 -66v-18q12 10 27 24t30 27t27.5 24t18.5 17zM150 62q18 -20 35.5 -31t33.5 -16.5t29 -6t23 1.5q-1 11 -1.5 21t-0.5 18q0 33 3 67t6.5 61t6.5 44.5t3 18.5q-19 20 -36.5 31.5t-32.5 17t-28 6.5t-22 0q-1 -35 -4 -75.5t-6 -75t-6 -58t-3 -24.5z
M40 493q-14 37 -32 65q-16 24 -39 43.5t-53 18.5q1 0 16 9.5t38.5 10.5t53 -17t59.5 -73zM384 -36q11 -37 28 -66q14 -25 36 -46t52 -22q-1 0 -8 -4.5t-19.5 -8.5t-28.5 -4t-33.5 9t-36.5 29.5t-36 58.5z" />
    <glyph glyph-name="L" unicode="L" horiz-adv-x="245" 
d="M190 750q-19 -23 -28 -57.5t-11.5 -74.5t0 -82.5t6.5 -81.5t8 -72.5t4 -55.5q0 -33 -3 -78t-6.5 -86t-6.5 -70t-3 -30q29 -31 54.5 -41.5t45.5 -11.5q23 -1 44 8q-38 -34 -67 -60l-24 -22t-21.5 -19t-15 -13l-5.5 -5q-14 27 -40.5 46.5t-53.5 33.5q-32 16 -67 27
q9 2 19 24t19 59.5t15.5 89t7.5 111.5q1 61 -8 113.5t-20 92.5q-13 46 -31 85zM40 503q-14 37 -32 65q-16 24 -39 43.5t-53 18.5q1 0 16 9.5t38.5 10.5t53 -17t59.5 -73z" />
    <glyph glyph-name="M" unicode="M" horiz-adv-x="595" 
d="M533 275q-2 -61 7.5 -103t20.5 -69q13 -32 31 -52l-184 -166q29 35 35 82.5t2 96.5t-12 95t-8 79t3 67t6.5 61t6.5 44.5t3 18.5q-15 17 -29.5 27t-27.5 17q-8 -9 -15 -24t-13 -38.5t-9.5 -57t-4.5 -78.5q-2 -61 7.5 -103t20.5 -69q13 -32 31 -52l-184 -166q20 23 28.5 52
t10.5 61q-15 -14 -32.5 -29.5t-32.5 -29t-25 -22l-10 -8.5q-14 27 -40.5 46.5t-53.5 33.5q-32 16 -67 27q9 2 19 14.5t19 38.5t15.5 67.5t7.5 101.5t-8 101t-20 66q-13 29 -31 46l188 170q-20 -24 -29 -53t-11 -61q14 13 31 28t31.5 28t24.5 21.5l10 8.5q14 -28 41.5 -48
t54.5 -34q14 13 30.5 27.5t30 26.5l22.5 20l9 8q14 -27 40.5 -47t53.5 -34q32 -16 67 -27q-9 -2 -19 -12.5t-19 -34t-15.5 -63.5t-7.5 -100zM148 73q32 -35 61.5 -45t49.5 -8q0 30 -3.5 60t-7.5 58.5t-7.5 54t-3.5 45.5q0 33 3 67t6.5 61t6.5 44.5t3 18.5q-32 35 -60.5 45.5
t-48.5 9.5q0 -29 3 -57.5t7 -55.5t7 -52t3 -45q0 -33 -3 -68.5t-6.5 -64.5t-6.5 -48t-3 -20zM50 363q-14 37 -32 65q-16 24 -39 43.5t-53 18.5q1 0 16 9.5t38.5 10.5t53 -17t59.5 -73zM544 149q11 -37 28 -66q14 -25 36 -46t52 -22q-1 0 -8 -4.5t-19.5 -8.5t-28 -4t-33.5 9
t-37 29.5t-36 58.5z" />
    <glyph glyph-name="N" unicode="N" horiz-adv-x="418" 
d="M431 485q-9 -2 -19 -12.5t-19 -34t-15.5 -63.5t-7.5 -100q-2 -61 3 -114.5t10 -94.5q6 -48 15 -89l-184 -166q19 23 30 58t16.5 75t6.5 82.5t0 82.5t-3 73.5t-2 55.5q0 33 3 67t6.5 61t6.5 44.5t3 18.5q-23 24 -43 35.5t-37 16.5q-8 -5 -17 -18.5t-16.5 -37.5t-12.5 -61
t-6 -89q-2 -61 7.5 -103t20.5 -69q13 -32 31 -52l-184 -166q29 35 35 82.5t2 96.5t-12 95t-8 79t3 67t6.5 61t6.5 44.5t3 18.5q-29 31 -54.5 42t-44.5 13q-23 2 -41 -6l64 58q12 11 23.5 21t20.5 18q11 10 21 18q8 -17 22 -31t30.5 -25.5t33.5 -20.5t32 -15q14 13 32 29
t33.5 30t26.5 23.5l11 9.5q14 -27 40.5 -47t53.5 -34q32 -16 67 -27zM375 49q11 -37 28 -66q14 -25 36 -46t52 -22q-1 0 -8 -4.5t-19.5 -8.5t-28 -4t-33.5 9t-37 29.5t-36 58.5z" />
    <glyph glyph-name="O" unicode="O" 
d="M352 306q-2 -61 7.5 -96.5t20.5 -54.5q13 -22 31 -31q-70 -63 -125 -113q-24 -21 -46.5 -41.5t-40 -36.5t-28 -25.5l-10.5 -9.5q-14 27 -40.5 46.5t-53.5 33.5q-32 16 -67 27q9 2 19 8t19 24t15.5 53t7.5 95t-8 96t-20 55q-13 22 -31 31q70 63 125 113q23 21 45.5 41.5
t40.5 36.5q20 18 39 35q14 -27 40.5 -47t53.5 -34q32 -16 67 -27q-9 -2 -19 -7.5t-19 -23.5t-15.5 -53t-7.5 -95zM150 62q30 -33 57.5 -43.5t47.5 -9.5q11 32 11 66.5t-5 68.5t-11 66t-6 59q0 33 3 62t6.5 50.5t6.5 34t3 13.5q-30 32 -56.5 43t-45.5 12q-11 -32 -11.5 -67
t4 -69.5t10 -67t5.5 -59.5q0 -33 -3 -61.5t-6.5 -50t-6.5 -34t-3 -13.5zM55 278q-16 36 -35 63q-17 23 -41 41.5t-54 16.5l7 5.5t19 10.5t27.5 7t34.5 -5t39.5 -25.5t42.5 -54.5z" />
    <glyph glyph-name="P" unicode="P" horiz-adv-x="417" 
d="M364 306q-2 -61 7.5 -96.5t20.5 -54.5q13 -22 31 -31l-175 -164v1q0 1 -0.5 1.5t-0.5 2.5l-8 -7q2 2 4 5t4 5q-2 8 -6.5 21.5t-14 28t-24.5 27t-37 18.5q-2 -38 -4.5 -76.5t-5 -69t-4 -50.5l-1.5 -20q29 -31 54.5 -41.5t45.5 -11.5q23 -1 44 8q-38 -34 -67 -60l-24 -22
t-21.5 -19t-15 -13l-5.5 -5q-14 27 -40.5 46.5t-53.5 33.5q-32 16 -67 27q9 2 19 35.5t19 85t15.5 114.5t7.5 123t-8 113t-20 93q-13 47 -31 85l188 170q-17 -21 -26 -51t-13 -65q13 12 32.5 29t37.5 33t30.5 27l12.5 11q14 -27 40.5 -47t53.5 -34q32 -16 67 -27
q-9 -2 -19 -7.5t-19 -23.5t-15.5 -53t-7.5 -95zM223 177q5 -9 13 -20q7 -9 16.5 -19.5t23.5 -21.5q-4 42 -12 81t-8 72t3 62t6.5 50.5t6.5 34t3 13.5q-20 22 -38.5 33.5t-34.5 16.5t-29 5t-22 -1q-3 -40 -0.5 -83t6.5 -83.5t8 -75t4 -56.5v-25.5t-1 -31.5zM40 353
q-14 37 -32 65q-16 24 -39 43.5t-53 18.5q1 0 16 9.5t38.5 10.5t53 -17t59.5 -73z" />
    <glyph glyph-name="Q" unicode="Q" horiz-adv-x="403" 
d="M352 306q-1 -30 0.5 -69.5t4 -83.5t6 -90t7.5 -89q9 -102 20 -211l-173 -126q22 26 34.5 65.5t17.5 87t4.5 100.5t-3.5 105q-14 -13 -33 -30t-36 -32t-28.5 -25l-11.5 -10q-14 27 -40.5 46.5t-53.5 33.5q-32 16 -67 27q9 2 19 8t19 24t15.5 53t7.5 95t-8 96t-20 55
q-13 22 -31 31q70 63 125 113q23 21 45.5 41.5t40.5 36.5q20 18 39 35q14 -27 40.5 -47t53.5 -34q32 -16 67 -27q-9 -2 -19 -7.5t-19 -23.5t-15.5 -53t-7.5 -95zM150 62q36 -39 67.5 -47t51.5 -5q-3 43 -7.5 83.5t-8.5 74.5t-6.5 60t-2.5 41q0 33 3 62t6.5 50.5t6.5 34
t3 13.5q-30 32 -56.5 43t-45.5 12q-11 -32 -11.5 -67t4 -69.5t10 -67t5.5 -59.5q0 -33 -3 -61.5t-6.5 -50t-6.5 -34t-3 -13.5zM374 -181q11 -37 28 -66q14 -25 36 -46t52 -22l-7.5 -4.5t-19.5 -8.5t-28.5 -4t-34 9t-36.5 29.5t-36 58.5z" />
    <glyph glyph-name="R" unicode="R" horiz-adv-x="295" 
d="M150 62q29 -31 54.5 -41.5t45.5 -11.5q23 -1 44 8q-38 -34 -67 -60l-24 -22t-21.5 -19t-15 -13l-5.5 -5q-14 27 -40.5 46.5t-53.5 33.5q-32 16 -67 27q9 2 19 12.5t19 34.5t15.5 63.5t7.5 99.5t-8 102.5t-20 68.5q-13 31 -31 51l188 170q-18 -22 -27 -45.5t-12 -49.5
l100 89q15 -26 38 -48q20 -19 50.5 -36.5t72.5 -23.5l-136 -109q-5 31 -20 56q-13 20 -38.5 36.5t-68.5 13.5q-1 -26 2 -59t7 -66t7.5 -63t3.5 -51q0 -33 -3 -66.5t-6.5 -60.5t-6.5 -44t-3 -18zM50 343q-14 37 -32 65q-16 24 -39 43.5t-53 18.5q1 0 16 9.5t38.5 10.5t53 -17
t59.5 -73z" />
    <glyph glyph-name="S" unicode="S" horiz-adv-x="416" 
d="M184 -96q-12 42 -35 73q-20 26 -53.5 43.5t-86.5 6.5l129 115q16 -25 38 -48q18 -20 44.5 -39.5t59.5 -31.5q-10 19 -27 48t-39.5 63t-48.5 69t-55 66.5t-59.5 56t-60.5 36.5l250 227q15 -33 38 -59q20 -23 50.5 -43.5t72.5 -26.5l-136 -109q-5 35 -19 63
q-12 24 -36 43.5t-64 20.5q9 -22 29.5 -64t55 -92.5t84 -104.5t115.5 -99z" />
    <glyph glyph-name="T" unicode="T" horiz-adv-x="280" 
d="M313 -26q0 1 1 1zM190 9q26 -28 47.5 -38t37 -10t25.5 5.5t13 7.5q-5 -4 -26 -23t-44.5 -40.5t-42.5 -38l-19 -16.5q-14 27 -37.5 45.5t-46.5 29.5q-27 13 -57 21q9 2 19 27.5t19 67.5t15.5 96.5t7.5 114.5q1 53 -6 100t-17 85q-28 1 -54 -2t-46 -8q-24 -5 -45 -12
l297 299q-28 -34 -35 -88t-5 -114q28 -2 54.5 -1.5t48.5 2.5q25 2 48 4l-141 -120q4 -33 6.5 -61t2.5 -47q0 -22 -1.5 -52t-3.5 -61.5t-4.5 -62t-4.5 -55t-3.5 -40z" />
    <glyph glyph-name="U" unicode="U" horiz-adv-x="421" 
d="M374 62q6 -17 21 -24.5t31 -9.5q18 -3 40 -1q-38 -34 -67 -60l-24 -22t-21.5 -19t-15 -13l-5.5 -5q-15 30 -36 49.5t-39 30.5q-15 -13 -32.5 -29t-32.5 -29.5t-25.5 -22.5l-10.5 -9q-14 27 -40.5 46.5t-53.5 33.5q-32 16 -67 27q9 2 19 8t19 24t15.5 53t7.5 95
t-6.5 104.5t-16.5 73.5q-11 34 -25 57l177 170q-29 -35 -36 -84.5t-3.5 -101.5t11 -101t7.5 -82t-3 -61.5t-6.5 -50t-6.5 -34t-3 -13.5q26 -27 48.5 -38.5t42.5 -13.5q8 4 16 13t15 28t11.5 51.5t5.5 82.5q1 60 -8 104.5t-20 73.5q-13 34 -31 57l188 170q-29 -35 -36 -84.5
t-3.5 -101.5t11 -101t7.5 -82t-3 -61.5t-6.5 -50t-6.5 -34t-3 -13.5zM50 333q-14 37 -32 65q-16 24 -39 43.5t-53 18.5q1 0 16 9.5t38.5 10.5t53 -17t59.5 -73z" />
    <glyph glyph-name="V" unicode="V" horiz-adv-x="411" 
d="M404 571q4 5 9 7zM352 306q-2 -61 7.5 -96.5t20.5 -54.5q13 -22 31 -31q-70 -63 -125 -113q-24 -21 -46.5 -41.5t-40 -36.5t-28 -25.5l-10.5 -9.5q-14 27 -40.5 46.5t-53.5 33.5q-32 16 -67 27q9 2 19 8t19 24t15.5 53t7.5 95t-8 110.5t-20 87.5q-13 43 -31 78l188 139
q-19 -24 -28 -55t-11.5 -65.5t0 -71t6.5 -70.5t8 -64.5t4 -52.5q0 -33 -3 -61.5t-6.5 -50t-6.5 -34t-3 -13.5q30 -33 57.5 -43.5t47.5 -9.5q11 32 11 66.5t-5 68.5t-11 66t-6 59q0 33 1 67t2.5 61.5t3 45t1.5 18.5l152 110q-17 -19 -33.5 -89t-18.5 -176zM50 373
q-14 37 -32 65q-16 24 -39 43.5t-53 18.5q1 0 16 9.5t38.5 10.5t53 -17t59.5 -73z" />
    <glyph glyph-name="W" unicode="W" horiz-adv-x="592" 
d="M526 62q6 -17 21 -24.5t31 -9.5q18 -3 40 -1q-38 -34 -67 -60l-24 -22t-21.5 -19t-15 -13l-5.5 -5q-10 20 -23 35t-26.5 26.5t-25.5 18.5t-21 12q-15 -14 -32.5 -30t-33 -30t-26 -23l-10.5 -9q-11 23 -27 40t-31 28q-15 -13 -30.5 -27t-28 -25.5t-21 -18.5l-8.5 -7
q-14 27 -40.5 46.5t-53.5 33.5q-32 16 -67 27q9 2 19 8t19 24t15.5 53t7.5 95t-6.5 104.5t-16.5 73.5q-11 34 -25 57l177 170q-29 -35 -36 -84.5t-3.5 -101.5t11 -101t7.5 -82t-3 -61.5t-6.5 -50t-6.5 -34t-3 -13.5q19 -20 36 -31t33 -16q7 5 14 16t12.5 30.5t9 49.5t4.5 74
q1 60 -8 104.5t-20 73.5q-13 34 -31 57l188 170q-29 -35 -36 -84.5t-3.5 -101.5t11 -101t7.5 -82t-3 -61.5t-6.5 -50t-6.5 -34t-3 -13.5q5 -12 15 -19.5t21.5 -11t23.5 -4.5t20 -1q11 16 19 52t10 107q1 60 -8 104.5t-20 73.5q-13 34 -31 57l188 170q-29 -35 -36 -84.5
t-3.5 -101.5t11 -101t7.5 -82t-3 -61.5t-6.5 -50t-6.5 -34t-3 -13.5zM30 346q-14 37 -32 65q-16 24 -39 43.5t-53 18.5q1 0 16 9.5t38.5 10.5t53 -17t59.5 -73z" />
    <glyph glyph-name="X" unicode="X" horiz-adv-x="393" 
d="M397 218q-9 -2 -18 -24.5t-13 -52t2 -59.5t27 -48l-178 -139q29 35 37 81t6.5 87t-7.5 69.5l-6 28.5q-26 28 -49.5 39.5t-43.5 13.5q-10 -34 -12 -68t-0.5 -62t4.5 -45.5t3 -18.5l-149 -88q20 34 23.5 66.5t-1.5 58.5q-5 30 -20 56q34 31 63 58q25 23 48.5 45t33.5 30
q-18 21 -43.5 37t-48.5 27q-27 12 -55 21q9 2 18 16t13 33.5t-2 41.5t-27 40l178 139q-29 -35 -37 -72.5t-6.5 -68.5t7.5 -51.5l6 -20.5q26 -29 49.5 -40t43.5 -13q10 33 12 62.5t0.5 51.5t-4.5 35l-3 13l149 88q-21 -35 -24 -62t2 -47q5 -23 20 -40q-35 -32 -64 -58
q-25 -23 -48.5 -45t-32.5 -30q18 -22 43 -37.5t48 -26.5q27 -12 56 -21zM44 358q-8 38 -22 69q-12 26 -32 49t-49 27l8 3.5t20.5 6t28.5 1.5t33 -11.5t33.5 -33t30.5 -61.5z" />
    <glyph glyph-name="Y" unicode="Y" horiz-adv-x="410" 
d="M352 348q-1 -30 0.5 -66.5t4 -75t6 -78t7.5 -76.5q9 -86 20 -175l-217 -204q-7 41 -26 70q-17 25 -47.5 41.5t-83.5 5.5l129 132q-18 21 -43 36t-48 26q-26 12 -54 21q9 2 19 14.5t19 38.5t15.5 67.5t7.5 101.5t-8 96t-20 55q-13 22 -31 31l188 170q-29 -35 -36 -76.5
t-3.5 -83.5t11 -82.5t7.5 -73.5t-3 -68.5t-6.5 -64.5t-6.5 -48t-3 -20q18 -20 35.5 -31t33.5 -16.5t29 -6t23 1.5q-3 42 -7.5 88t-9 88t-7.5 75.5t-3 49.5q0 33 -3.5 52t-8 29t-8 12.5t-3.5 3.5l192 170q-8 -10 -18 -24.5t-19 -40t-16 -65.5t-8 -100zM161 -101
q3 -11 10 -24.5t18.5 -26t29 -24t42.5 -18.5q10 43 12 92t-1 99q-14 -13 -33.5 -30t-36.5 -32.5t-29 -26l-12 -10.5v1zM60 313q-14 37 -32 65q-16 24 -39 43.5t-53 18.5q1 0 16 9.5t38.5 10.5t53 -17t59.5 -73zM374 -51q11 -37 28 -66q14 -25 36 -46t52 -22l-7.5 -4.5
t-19.5 -8.5t-28.5 -4t-34 9t-36.5 29.5t-36 58.5z" />
    <glyph glyph-name="Z" unicode="Z" horiz-adv-x="406" 
d="M256 227q17 -23 42 -41t50 -29q28 -14 60 -23q-9 -2 -19 -7.5t-19 -23.5t-15.5 -53t-7.5 -95q-2 -61 -10 -96.5t-19 -54.5q-12 -22 -27 -31l-184 -166q29 35 53 75.5t41.5 82t27.5 81t10 72.5t3 62t6.5 50.5t6.5 34t3 13.5q-30 23 -60 30.5t-55 8.5q-29 1 -56 -5
q19 23 39.5 55.5t39.5 68t35.5 69.5t29.5 61.5t20.5 44.5t7.5 18q-28 30 -53 41.5t-44 13.5q-6 -17 -5.5 -28t3 -20.5t5.5 -19.5t3 -25l-109 -99q0 32 -5 50.5t-12 28.5q-8 11 -17 14q62 58 111 104l112 104q14 -27 40.5 -47t53.5 -34q32 -16 67 -27q-5 -1 -13.5 -12.5
t-20 -30t-25 -41.5t-26.5 -47q-31 -56 -68 -127zM60 293q-14 37 -32 65q-16 24 -39 43.5t-53 18.5q1 0 16 9.5t38.5 10.5t53 -17t59.5 -73z" />
    <glyph glyph-name="exclam" unicode="!" horiz-adv-x="206" 
d="M193 53q-14 10 -28 24q-12 12 -25.5 30t-25.5 42q-8 -6 -18 -13l-18 -13.5t-21 -15.5q-26 -18 -57 -42q15 -6 30 -17q13 -10 26 -27.5t22 -46.5zM40 212q4 1 6.5 19.5t3.5 49t1 68.5t-1 78q-2 93 -8 212l157 170q-19 -24 -29.5 -68.5t-15 -97.5t-4 -108.5t2.5 -101t4 -75
l2 -29.5z" />
    <glyph glyph-name="grave" unicode="`" horiz-adv-x="239" 
d="M-45 712l129 115q15 -26 38 -48q20 -19 50.5 -36.5t72.5 -22.5l-136 -110q-7 36 -25 62q-16 22 -46 36.5t-83 3.5z" />
    <glyph glyph-name="acute" unicode="&#xb4;" horiz-adv-x="257" 
d="M179 802q18 -19 33 -33q13 -12 24.5 -22t14.5 -10q-30 0 -65 -18t-65 -40q-35 -26 -70 -57l-40 38z" />
    <glyph glyph-name="tilde" unicode="&#x2dc;" horiz-adv-x="259" 
d="M204 744q14 -27 31.5 -41t34.5 -20q19 -7 39 -7l-94 -96q-26 28 -49 40t-42 14l-47 -48q-29 31 -54.5 42t-44.5 13q-23 2 -41 -6l64 58q12 11 23.5 21t20.5 18q11 10 21 18q15 -30 35.5 -44t37.5 -19q12 11 23.5 21t20.5 18q11 10 21 18z" />
    <glyph glyph-name="asciitilde" unicode="~" horiz-adv-x="421" 
d="M289 405q14 -27 31.5 -41t34.5 -20q19 -7 39 -7l-94 -96q-26 28 -49 40t-42 14l-47 -48q-29 31 -54.5 42t-44.5 13q-23 2 -41 -6l64 58q12 11 23.5 21t20.5 18q11 10 21 18q15 -30 35.5 -44t37.5 -19q12 11 23.5 21t20.5 18q11 10 21 18z" />
    <glyph glyph-name="ntilde" unicode="&#xf1;" horiz-adv-x="418" 
d="M431 485q-9 -2 -19 -12.5t-19 -34t-15.5 -63.5t-7.5 -100q-2 -61 3 -114.5t10 -94.5q6 -48 15 -89l-184 -166q19 23 30 58t16.5 75t6.5 82.5t0 82.5t-3 73.5t-2 55.5q0 33 3 67t6.5 61t6.5 44.5t3 18.5q-23 24 -43 35.5t-37 16.5q-8 -5 -17 -18.5t-16.5 -37.5t-12.5 -61
t-6 -89q-2 -61 7.5 -103t20.5 -69q13 -32 31 -52l-184 -166q29 35 35 82.5t2 96.5t-12 95t-8 79t3 67t6.5 61t6.5 44.5t3 18.5q-29 31 -54.5 42t-44.5 13q-23 2 -41 -6l64 58q12 11 23.5 21t20.5 18q11 10 21 18q8 -17 22 -31t30.5 -25.5t33.5 -20.5t32 -15q14 13 32 29
t33.5 30t26.5 23.5l11 9.5q14 -27 40.5 -47t53.5 -34q32 -16 67 -27zM290 744q14 -27 31.5 -41t34.5 -20q19 -7 39 -7l-94 -96q-26 28 -49 40t-42 14l-47 -48q-29 31 -54.5 42t-44.5 13q-23 2 -41 -6l64 58q12 11 23.5 21t20.5 18q11 10 21 18q15 -30 35.5 -44t37.5 -19
q12 11 23.5 21t20.5 18q11 10 21 18z" />
    <glyph glyph-name="Ntilde" unicode="&#xd1;" horiz-adv-x="418" 
d="M431 485q-9 -2 -19 -12.5t-19 -34t-15.5 -63.5t-7.5 -100q-2 -61 3 -114.5t10 -94.5q6 -48 15 -89l-184 -166q19 23 30 58t16.5 75t6.5 82.5t0 82.5t-3 73.5t-2 55.5q0 33 3 67t6.5 61t6.5 44.5t3 18.5q-23 24 -43 35.5t-37 16.5q-8 -5 -17 -18.5t-16.5 -37.5t-12.5 -61
t-6 -89q-2 -61 7.5 -103t20.5 -69q13 -32 31 -52l-184 -166q29 35 35 82.5t2 96.5t-12 95t-8 79t3 67t6.5 61t6.5 44.5t3 18.5q-29 31 -54.5 42t-44.5 13q-23 2 -41 -6l64 58q12 11 23.5 21t20.5 18q11 10 21 18q8 -17 22 -31t30.5 -25.5t33.5 -20.5t32 -15q14 13 32 29
t33.5 30t26.5 23.5l11 9.5q14 -27 40.5 -47t53.5 -34q32 -16 67 -27zM375 49q11 -37 28 -66q14 -25 36 -46t52 -22q-1 0 -8 -4.5t-19.5 -8.5t-28 -4t-33.5 9t-37 29.5t-36 58.5zM290 844q14 -27 31.5 -41t34.5 -20q19 -7 39 -7l-94 -96q-26 28 -49 40t-42 14l-47 -48
q-29 31 -54.5 42t-44.5 13q-23 2 -41 -6l64 58q12 11 23.5 21t20.5 18q11 10 21 18q15 -30 35.5 -44t37.5 -19q12 11 23.5 21t20.5 18q11 10 21 18z" />
    <glyph glyph-name="Odieresis" unicode="&#xd6;" 
d="M352 306q-2 -61 7.5 -96.5t20.5 -54.5q13 -22 31 -31q-70 -63 -125 -113q-24 -21 -46.5 -41.5t-40 -36.5t-28 -25.5l-10.5 -9.5q-14 27 -40.5 46.5t-53.5 33.5q-32 16 -67 27q9 2 19 8t19 24t15.5 53t7.5 95t-8 96t-20 55q-13 22 -31 31q70 63 125 113q23 21 45.5 41.5
t40.5 36.5q20 18 39 35q14 -27 40.5 -47t53.5 -34q32 -16 67 -27q-9 -2 -19 -7.5t-19 -23.5t-15.5 -53t-7.5 -95zM150 62q30 -33 57.5 -43.5t47.5 -9.5q11 32 11 66.5t-5 68.5t-11 66t-6 59q0 33 3 62t6.5 50.5t6.5 34t3 13.5q-30 32 -56.5 43t-45.5 12q-11 -32 -11.5 -67
t4 -69.5t10 -67t5.5 -59.5q0 -33 -3 -61.5t-6.5 -50t-6.5 -34t-3 -13.5zM55 278q-16 36 -35 63q-17 23 -41 41.5t-54 16.5l7 5.5t19 10.5t27.5 7t34.5 -5t39.5 -25.5t42.5 -54.5zM113 706q-9 29 -22 46.5t-26 27.5q-15 11 -30 17q31 24 57 42q11 8 21 15.5l18 13.5
q10 7 18 13q12 -24 25.5 -42t25.5 -30q14 -14 28 -24zM263 706q-9 29 -22 46.5t-26 27.5q-15 11 -30 17q31 24 57 42q11 8 21 15.5l18 13.5q10 7 18 13q12 -24 25.5 -42t25.5 -30q14 -14 28 -24z" />
    <glyph glyph-name="Ograve" unicode="&#xd2;" 
d="M352 306q-2 -61 7.5 -96.5t20.5 -54.5q13 -22 31 -31q-70 -63 -125 -113q-24 -21 -46.5 -41.5t-40 -36.5t-28 -25.5l-10.5 -9.5q-14 27 -40.5 46.5t-53.5 33.5q-32 16 -67 27q9 2 19 8t19 24t15.5 53t7.5 95t-8 96t-20 55q-13 22 -31 31q70 63 125 113q23 21 45.5 41.5
t40.5 36.5q20 18 39 35q14 -27 40.5 -47t53.5 -34q32 -16 67 -27q-9 -2 -19 -7.5t-19 -23.5t-15.5 -53t-7.5 -95zM150 62q30 -33 57.5 -43.5t47.5 -9.5q11 32 11 66.5t-5 68.5t-11 66t-6 59q0 33 3 62t6.5 50.5t6.5 34t3 13.5q-30 32 -56.5 43t-45.5 12q-11 -32 -11.5 -67
t4 -69.5t10 -67t5.5 -59.5q0 -33 -3 -61.5t-6.5 -50t-6.5 -34t-3 -13.5zM55 278q-16 36 -35 63q-17 23 -41 41.5t-54 16.5l7 5.5t19 10.5t27.5 7t34.5 -5t39.5 -25.5t42.5 -54.5zM61 812l129 115q15 -26 38 -48q20 -19 50.5 -36.5t72.5 -22.5l-136 -110q-7 36 -25 62
q-16 22 -46 36.5t-83 3.5z" />
    <glyph glyph-name="ograve" unicode="&#xf2;" 
d="M352 306q-2 -61 7.5 -96.5t20.5 -54.5q13 -22 31 -31q-70 -63 -125 -113q-24 -21 -46.5 -41.5t-40 -36.5t-28 -25.5l-10.5 -9.5q-14 27 -40.5 46.5t-53.5 33.5q-32 16 -67 27q9 2 19 8t19 24t15.5 53t7.5 95t-8 96t-20 55q-13 22 -31 31q70 63 125 113q23 21 45.5 41.5
t40.5 36.5q20 18 39 35q14 -27 40.5 -47t53.5 -34q32 -16 67 -27q-9 -2 -19 -7.5t-19 -23.5t-15.5 -53t-7.5 -95zM150 62q30 -33 57.5 -43.5t47.5 -9.5q11 32 11 66.5t-5 68.5t-11 66t-6 59q0 33 3 62t6.5 50.5t6.5 34t3 13.5q-30 32 -56.5 43t-45.5 12q-11 -32 -11.5 -67
t4 -69.5t10 -67t5.5 -59.5q0 -33 -3 -61.5t-6.5 -50t-6.5 -34t-3 -13.5zM61 712l129 115q15 -26 38 -48q20 -19 50.5 -36.5t72.5 -22.5l-136 -110q-7 36 -25 62q-16 22 -46 36.5t-83 3.5z" />
    <glyph glyph-name="Aring" unicode="&#xc5;" horiz-adv-x="417" 
d="M179 714q-10 14 -25.5 26.5t-30.5 21.5q-18 11 -36 20q39 42 71 75q13 14 26 27.5t23 24.5q11 12 22 23q14 -27 30.5 -41t32.5 -20q18 -7 37 -7zM154 834q-2 -18 5.5 -27.5t21 -13t30 -2t33.5 5.5q-6 15 -15.5 24t-22 12.5t-26 3.5t-26.5 -3zM355 306q-2 -61 7.5 -96.5
t20.5 -54.5q13 -22 31 -31q-70 -63 -125 -113q-24 -21 -46.5 -41.5t-40 -36.5t-28 -25.5l-10.5 -9.5q-14 27 -40.5 46.5t-53.5 33.5q-32 16 -67 27q9 2 18.5 5.5t17.5 16t13 38t5 71.5q0 26 -7 40.5t-15 21.5q-10 8 -21 10q49 44 89 78l90 78q11 -23 26 -36.5t29 -20.5
q3 53 10 86.5t8 35.5q-28 30 -53 41.5t-44 13.5q-6 -17 -5.5 -28t3 -20.5t5.5 -19.5t3 -25l-109 -99q0 32 -9 48t-20 23q-13 7 -30 6l124 112l124 112q14 -27 40.5 -47t53.5 -34q32 -16 67 -27q-9 -2 -19 -7.5t-19 -23.5t-15.5 -53t-7.5 -95zM153 62q30 -33 57.5 -43.5
t47.5 -9.5q10 29 10.5 60t-3 61.5t-9.5 60.5t-8 56l-44 -47q-24 26 -47 38q2 -13 4 -26.5t2 -27.5q0 -19 -1.5 -40t-3 -39t-3.5 -30t-2 -13zM55 278q-16 36 -35 63q-17 23 -41 41.5t-54 16.5l7 5.5t19 10.5t27.5 7t34.5 -5t39.5 -25.5t42.5 -54.5zM344 240q11 -37 28 -66
q14 -25 36 -46t52 -22q-1 0 -8 -4.5t-19.5 -8.5t-28.5 -4t-33.5 9t-36.5 29.5t-36 58.5z" />
    <glyph glyph-name="aring" unicode="&#xe5;" horiz-adv-x="417" 
d="M179 614q-10 14 -25.5 26.5t-30.5 21.5q-18 11 -36 20q39 42 71 75q13 14 26 27.5t23 24.5q11 12 22 23q14 -27 30.5 -41t32.5 -20q18 -7 37 -7zM154 734q-2 -18 5.5 -27.5t21 -13t30 -2t33.5 5.5q-6 15 -15.5 24t-22 12.5t-26 3.5t-26.5 -3zM355 306q-2 -61 7.5 -96.5
t20.5 -54.5q13 -22 31 -31q-70 -63 -125 -113q-24 -21 -46.5 -41.5t-40 -36.5t-28 -25.5l-10.5 -9.5q-14 27 -40.5 46.5t-53.5 33.5q-32 16 -67 27q9 2 18.5 5.5t17.5 16t13 38t5 71.5q0 26 -7 40.5t-15 21.5q-10 8 -21 10q49 44 89 78l90 78q11 -23 26 -36.5t29 -20.5
q3 53 10 86.5t8 35.5q-28 30 -53 41.5t-44 13.5q-6 -17 -5.5 -28t3 -20.5t5.5 -19.5t3 -25l-109 -99q0 32 -9 48t-20 23q-13 7 -30 6l124 112l124 112q14 -27 40.5 -47t53.5 -34q32 -16 67 -27q-9 -2 -19 -7.5t-19 -23.5t-15.5 -53t-7.5 -95zM153 62q30 -33 57.5 -43.5
t47.5 -9.5q10 29 10.5 60t-3 61.5t-9.5 60.5t-8 56l-44 -47q-24 26 -47 38q2 -13 4 -26.5t2 -27.5q0 -19 -1.5 -40t-3 -39t-3.5 -30t-2 -13z" />
    <glyph glyph-name="AE" unicode="&#xc6;" horiz-adv-x="613" 
d="M355 306q-2 -61 7.5 -96.5t20.5 -54.5q13 -22 31 -31q-70 -63 -125 -113q-24 -21 -46.5 -41.5t-40 -36.5t-28 -25.5l-10.5 -9.5q-14 27 -40.5 46.5t-53.5 33.5q-32 16 -67 27q9 2 18.5 5.5t17.5 16t13 38t5 71.5q0 26 -7 40.5t-15 21.5q-10 8 -21 10q49 44 89 78l90 78
q11 -23 26 -36.5t29 -20.5q3 53 10 86.5t8 35.5q-28 30 -53 41.5t-44 13.5q-6 -17 -5.5 -28t3 -20.5t5.5 -19.5t3 -25l-109 -99q0 32 -9 48t-20 23q-13 7 -30 6l124 112l124 112q14 -27 40.5 -47t53.5 -34q32 -16 67 -27q-9 -2 -19 -7.5t-19 -23.5t-15.5 -53t-7.5 -95z
M153 62q30 -33 57.5 -43.5t47.5 -9.5q10 29 10.5 60t-3 61.5t-9.5 60.5t-8 56l-44 -47q-24 26 -47 38q2 -13 4 -26.5t2 -27.5q0 -19 -1.5 -40t-3 -39t-3.5 -30t-2 -13zM55 278q-16 36 -35 63q-17 23 -41 41.5t-54 16.5l7 5.5t19 10.5t27.5 7t34.5 -5t39.5 -25.5t42.5 -54.5z
M410 98q14 -15 31 -22t35 -8t35.5 3t34.5 11q39 16 79 46q-57 -54 -102 -97q-19 -18 -37.5 -36t-32.5 -31.5t-23 -21.5l-9 -8q-14 27 -40.5 46.5t-53.5 33.5q-32 16 -67 27q9 2 19 8t19 24t15.5 53t7.5 95t-8 96t-20 55q-13 22 -31 31l254 228q14 -27 35.5 -41.5t41.5 -20.5
q24 -7 50 -7l-225 -209q5 -26 8 -50t3 -46q0 -33 -3 -61.5t-6.5 -50t-6.5 -34t-3 -13.5zM421 522q-11 -32 -11.5 -66t3.5 -68l101 92q-27 26 -51 34t-42 8z" />
    <glyph glyph-name="ae" unicode="&#xe6;" horiz-adv-x="621" 
d="M355 306q-2 -61 7.5 -96.5t20.5 -54.5q13 -22 31 -31q-70 -63 -125 -113q-24 -21 -46.5 -41.5t-40 -36.5t-28 -25.5l-10.5 -9.5q-14 27 -40.5 46.5t-53.5 33.5q-32 16 -67 27q9 2 18.5 5.5t17.5 16t13 38t5 71.5q0 26 -7 40.5t-15 21.5q-10 8 -21 10q49 44 89 78l90 78
q11 -23 26 -36.5t29 -20.5q3 53 10 86.5t8 35.5q-28 30 -53 41.5t-44 13.5q-6 -17 -5.5 -28t3 -20.5t5.5 -19.5t3 -25l-109 -99q0 32 -9 48t-20 23q-13 7 -30 6l124 112l124 112q14 -27 40.5 -47t53.5 -34q32 -16 67 -27q-9 -2 -19 -7.5t-19 -23.5t-15.5 -53t-7.5 -95z
M153 62q30 -33 57.5 -43.5t47.5 -9.5q10 29 10.5 60t-3 61.5t-9.5 60.5t-8 56l-44 -47q-24 26 -47 38q2 -13 4 -26.5t2 -27.5q0 -19 -1.5 -40t-3 -39t-3.5 -30t-2 -13zM407 62q14 -15 31 -22t35 -8t35.5 3t34.5 11q39 16 79 46q-57 -54 -102 -97q-19 -18 -37.5 -36
t-32.5 -31.5t-23 -21.5l-9 -8q-14 27 -40.5 46.5t-53.5 33.5q-32 16 -67 27q9 2 19 8t19 24t15.5 53t7.5 95t-8 96t-20 55q-13 22 -31 31l254 228q14 -27 35.5 -41.5t41.5 -20.5q24 -7 50 -7l-225 -209q5 -26 8 -50t3 -46q0 -33 -3 -61.5t-6.5 -50t-6.5 -34t-3 -13.5z
M418 486q-11 -32 -11.5 -66t3.5 -68l101 92q-27 26 -51 34t-42 8z" />
    <glyph glyph-name="Atilde" unicode="&#xc3;" horiz-adv-x="417" 
d="M355 306q-2 -61 7.5 -96.5t20.5 -54.5q13 -22 31 -31q-70 -63 -125 -113q-24 -21 -46.5 -41.5t-40 -36.5t-28 -25.5l-10.5 -9.5q-14 27 -40.5 46.5t-53.5 33.5q-32 16 -67 27q9 2 18.5 5.5t17.5 16t13 38t5 71.5q0 26 -7 40.5t-15 21.5q-10 8 -21 10q49 44 89 78l90 78
q11 -23 26 -36.5t29 -20.5q3 53 10 86.5t8 35.5q-28 30 -53 41.5t-44 13.5q-6 -17 -5.5 -28t3 -20.5t5.5 -19.5t3 -25l-109 -99q0 32 -9 48t-20 23q-13 7 -30 6l124 112l124 112q14 -27 40.5 -47t53.5 -34q32 -16 67 -27q-9 -2 -19 -7.5t-19 -23.5t-15.5 -53t-7.5 -95z
M153 62q30 -33 57.5 -43.5t47.5 -9.5q10 29 10.5 60t-3 61.5t-9.5 60.5t-8 56l-44 -47q-24 26 -47 38q2 -13 4 -26.5t2 -27.5q0 -19 -1.5 -40t-3 -39t-3.5 -30t-2 -13zM55 278q-16 36 -35 63q-17 23 -41 41.5t-54 16.5l7 5.5t19 10.5t27.5 7t34.5 -5t39.5 -25.5t42.5 -54.5z
M344 240q11 -37 28 -66q14 -25 36 -46t52 -22q-1 0 -8 -4.5t-19.5 -8.5t-28.5 -4t-33.5 9t-36.5 29.5t-36 58.5zM289 844q14 -27 31.5 -41t34.5 -20q19 -7 39 -7l-94 -96q-26 28 -49 40t-42 14l-47 -48q-29 31 -54.5 42t-44.5 13q-23 2 -41 -6l64 58q12 11 23.5 21t20.5 18
q11 10 21 18q15 -30 35.5 -44t37.5 -19q12 11 23.5 21t20.5 18q11 10 21 18z" />
    <glyph glyph-name="atilde" unicode="&#xe3;" horiz-adv-x="417" 
d="M355 306q-2 -61 7.5 -96.5t20.5 -54.5q13 -22 31 -31q-70 -63 -125 -113q-24 -21 -46.5 -41.5t-40 -36.5t-28 -25.5l-10.5 -9.5q-14 27 -40.5 46.5t-53.5 33.5q-32 16 -67 27q9 2 18.5 5.5t17.5 16t13 38t5 71.5q0 26 -7 40.5t-15 21.5q-10 8 -21 10q49 44 89 78l90 78
q11 -23 26 -36.5t29 -20.5q3 53 10 86.5t8 35.5q-28 30 -53 41.5t-44 13.5q-6 -17 -5.5 -28t3 -20.5t5.5 -19.5t3 -25l-109 -99q0 32 -9 48t-20 23q-13 7 -30 6l124 112l124 112q14 -27 40.5 -47t53.5 -34q32 -16 67 -27q-9 -2 -19 -7.5t-19 -23.5t-15.5 -53t-7.5 -95z
M153 62q30 -33 57.5 -43.5t47.5 -9.5q10 29 10.5 60t-3 61.5t-9.5 60.5t-8 56l-44 -47q-24 26 -47 38q2 -13 4 -26.5t2 -27.5q0 -19 -1.5 -40t-3 -39t-3.5 -30t-2 -13zM289 744q14 -27 31.5 -41t34.5 -20q19 -7 39 -7l-94 -96q-26 28 -49 40t-42 14l-47 -48q-29 31 -54.5 42
t-44.5 13q-23 2 -41 -6l64 58q12 11 23.5 21t20.5 18q11 10 21 18q15 -30 35.5 -44t37.5 -19q12 11 23.5 21t20.5 18q11 10 21 18z" />
    <glyph glyph-name="Adieresis" unicode="&#xc4;" horiz-adv-x="417" 
d="M355 306q-2 -61 7.5 -96.5t20.5 -54.5q13 -22 31 -31q-70 -63 -125 -113q-24 -21 -46.5 -41.5t-40 -36.5t-28 -25.5l-10.5 -9.5q-14 27 -40.5 46.5t-53.5 33.5q-32 16 -67 27q9 2 18.5 5.5t17.5 16t13 38t5 71.5q0 26 -7 40.5t-15 21.5q-10 8 -21 10q49 44 89 78l90 78
q11 -23 26 -36.5t29 -20.5q3 53 10 86.5t8 35.5q-28 30 -53 41.5t-44 13.5q-6 -17 -5.5 -28t3 -20.5t5.5 -19.5t3 -25l-109 -99q0 32 -9 48t-20 23q-13 7 -30 6l124 112l124 112q14 -27 40.5 -47t53.5 -34q32 -16 67 -27q-9 -2 -19 -7.5t-19 -23.5t-15.5 -53t-7.5 -95z
M153 62q30 -33 57.5 -43.5t47.5 -9.5q10 29 10.5 60t-3 61.5t-9.5 60.5t-8 56l-44 -47q-24 26 -47 38q2 -13 4 -26.5t2 -27.5q0 -19 -1.5 -40t-3 -39t-3.5 -30t-2 -13zM55 278q-16 36 -35 63q-17 23 -41 41.5t-54 16.5l7 5.5t19 10.5t27.5 7t34.5 -5t39.5 -25.5t42.5 -54.5z
M344 240q11 -37 28 -66q14 -25 36 -46t52 -22q-1 0 -8 -4.5t-19.5 -8.5t-28.5 -4t-33.5 9t-36.5 29.5t-36 58.5zM115 706q-9 29 -22 46.5t-26 27.5q-15 11 -30 17q31 24 57 42q11 8 21 15.5l18 13.5q10 7 18 13q12 -24 25.5 -42t25.5 -30q14 -14 28 -24zM265 706
q-9 29 -22 46.5t-26 27.5q-15 11 -30 17q31 24 57 42q11 8 21 15.5l18 13.5q10 7 18 13q12 -24 25.5 -42t25.5 -30q14 -14 28 -24z" />
    <glyph glyph-name="oacute" unicode="&#xf3;" 
d="M352 306q-2 -61 7.5 -96.5t20.5 -54.5q13 -22 31 -31q-70 -63 -125 -113q-24 -21 -46.5 -41.5t-40 -36.5t-28 -25.5l-10.5 -9.5q-14 27 -40.5 46.5t-53.5 33.5q-32 16 -67 27q9 2 19 8t19 24t15.5 53t7.5 95t-8 96t-20 55q-13 22 -31 31q70 63 125 113q23 21 45.5 41.5
t40.5 36.5q20 18 39 35q14 -27 40.5 -47t53.5 -34q32 -16 67 -27q-9 -2 -19 -7.5t-19 -23.5t-15.5 -53t-7.5 -95zM150 62q30 -33 57.5 -43.5t47.5 -9.5q11 32 11 66.5t-5 68.5t-11 66t-6 59q0 33 3 62t6.5 50.5t6.5 34t3 13.5q-30 32 -56.5 43t-45.5 12q-11 -32 -11.5 -67
t4 -69.5t10 -67t5.5 -59.5q0 -33 -3 -61.5t-6.5 -50t-6.5 -34t-3 -13.5zM254 802q18 -19 33 -33q13 -12 24.5 -22t14.5 -10q-30 0 -65 -18t-65 -40q-35 -26 -70 -57l-40 38z" />
    <glyph glyph-name="Oacute" unicode="&#xd3;" 
d="M352 306q-2 -61 7.5 -96.5t20.5 -54.5q13 -22 31 -31q-70 -63 -125 -113q-24 -21 -46.5 -41.5t-40 -36.5t-28 -25.5l-10.5 -9.5q-14 27 -40.5 46.5t-53.5 33.5q-32 16 -67 27q9 2 19 8t19 24t15.5 53t7.5 95t-8 96t-20 55q-13 22 -31 31q70 63 125 113q23 21 45.5 41.5
t40.5 36.5q20 18 39 35q14 -27 40.5 -47t53.5 -34q32 -16 67 -27q-9 -2 -19 -7.5t-19 -23.5t-15.5 -53t-7.5 -95zM150 62q30 -33 57.5 -43.5t47.5 -9.5q11 32 11 66.5t-5 68.5t-11 66t-6 59q0 33 3 62t6.5 50.5t6.5 34t3 13.5q-30 32 -56.5 43t-45.5 12q-11 -32 -11.5 -67
t4 -69.5t10 -67t5.5 -59.5q0 -33 -3 -61.5t-6.5 -50t-6.5 -34t-3 -13.5zM55 278q-16 36 -35 63q-17 23 -41 41.5t-54 16.5l7 5.5t19 10.5t27.5 7t34.5 -5t39.5 -25.5t42.5 -54.5zM254 902q18 -19 33 -33q13 -12 24.5 -22t14.5 -10q-30 0 -65 -18t-65 -40q-35 -26 -70 -57
l-40 38z" />
    <glyph glyph-name="aacute" unicode="&#xe1;" horiz-adv-x="417" 
d="M355 306q-2 -61 7.5 -96.5t20.5 -54.5q13 -22 31 -31q-70 -63 -125 -113q-24 -21 -46.5 -41.5t-40 -36.5t-28 -25.5l-10.5 -9.5q-14 27 -40.5 46.5t-53.5 33.5q-32 16 -67 27q9 2 18.5 5.5t17.5 16t13 38t5 71.5q0 26 -7 40.5t-15 21.5q-10 8 -21 10q49 44 89 78l90 78
q11 -23 26 -36.5t29 -20.5q3 53 10 86.5t8 35.5q-28 30 -53 41.5t-44 13.5q-6 -17 -5.5 -28t3 -20.5t5.5 -19.5t3 -25l-109 -99q0 32 -9 48t-20 23q-13 7 -30 6l124 112l124 112q14 -27 40.5 -47t53.5 -34q32 -16 67 -27q-9 -2 -19 -7.5t-19 -23.5t-15.5 -53t-7.5 -95z
M153 62q30 -33 57.5 -43.5t47.5 -9.5q10 29 10.5 60t-3 61.5t-9.5 60.5t-8 56l-44 -47q-24 26 -47 38q2 -13 4 -26.5t2 -27.5q0 -19 -1.5 -40t-3 -39t-3.5 -30t-2 -13zM256 802q18 -19 33 -33q13 -12 24.5 -22t14.5 -10q-30 0 -65 -18t-65 -40q-35 -26 -70 -57l-40 38z" />
    <glyph glyph-name="Agrave" unicode="&#xc0;" horiz-adv-x="417" 
d="M355 306q-2 -61 7.5 -96.5t20.5 -54.5q13 -22 31 -31q-70 -63 -125 -113q-24 -21 -46.5 -41.5t-40 -36.5t-28 -25.5l-10.5 -9.5q-14 27 -40.5 46.5t-53.5 33.5q-32 16 -67 27q9 2 18.5 5.5t17.5 16t13 38t5 71.5q0 26 -7 40.5t-15 21.5q-10 8 -21 10q49 44 89 78l90 78
q11 -23 26 -36.5t29 -20.5q3 53 10 86.5t8 35.5q-28 30 -53 41.5t-44 13.5q-6 -17 -5.5 -28t3 -20.5t5.5 -19.5t3 -25l-109 -99q0 32 -9 48t-20 23q-13 7 -30 6l124 112l124 112q14 -27 40.5 -47t53.5 -34q32 -16 67 -27q-9 -2 -19 -7.5t-19 -23.5t-15.5 -53t-7.5 -95z
M153 62q30 -33 57.5 -43.5t47.5 -9.5q10 29 10.5 60t-3 61.5t-9.5 60.5t-8 56l-44 -47q-24 26 -47 38q2 -13 4 -26.5t2 -27.5q0 -19 -1.5 -40t-3 -39t-3.5 -30t-2 -13zM55 278q-16 36 -35 63q-17 23 -41 41.5t-54 16.5l7 5.5t19 10.5t27.5 7t34.5 -5t39.5 -25.5t42.5 -54.5z
M344 240q11 -37 28 -66q14 -25 36 -46t52 -22q-1 0 -8 -4.5t-19.5 -8.5t-28.5 -4t-33.5 9t-36.5 29.5t-36 58.5zM63 812l129 115q15 -26 38 -48q20 -19 50.5 -36.5t72.5 -22.5l-136 -110q-7 36 -25 62q-16 22 -46 36.5t-83 3.5z" />
    <glyph glyph-name="agrave" unicode="&#xe0;" horiz-adv-x="417" 
d="M355 306q-2 -61 7.5 -96.5t20.5 -54.5q13 -22 31 -31q-70 -63 -125 -113q-24 -21 -46.5 -41.5t-40 -36.5t-28 -25.5l-10.5 -9.5q-14 27 -40.5 46.5t-53.5 33.5q-32 16 -67 27q9 2 18.5 5.5t17.5 16t13 38t5 71.5q0 26 -7 40.5t-15 21.5q-10 8 -21 10q49 44 89 78l90 78
q11 -23 26 -36.5t29 -20.5q3 53 10 86.5t8 35.5q-28 30 -53 41.5t-44 13.5q-6 -17 -5.5 -28t3 -20.5t5.5 -19.5t3 -25l-109 -99q0 32 -9 48t-20 23q-13 7 -30 6l124 112l124 112q14 -27 40.5 -47t53.5 -34q32 -16 67 -27q-9 -2 -19 -7.5t-19 -23.5t-15.5 -53t-7.5 -95z
M153 62q30 -33 57.5 -43.5t47.5 -9.5q10 29 10.5 60t-3 61.5t-9.5 60.5t-8 56l-44 -47q-24 26 -47 38q2 -13 4 -26.5t2 -27.5q0 -19 -1.5 -40t-3 -39t-3.5 -30t-2 -13zM63 712l129 115q15 -26 38 -48q20 -19 50.5 -36.5t72.5 -22.5l-136 -110q-7 36 -25 62q-16 22 -46 36.5
t-83 3.5z" />
    <glyph glyph-name="Aacute" unicode="&#xc1;" horiz-adv-x="417" 
d="M355 306q-2 -61 7.5 -96.5t20.5 -54.5q13 -22 31 -31q-70 -63 -125 -113q-24 -21 -46.5 -41.5t-40 -36.5t-28 -25.5l-10.5 -9.5q-14 27 -40.5 46.5t-53.5 33.5q-32 16 -67 27q9 2 18.5 5.5t17.5 16t13 38t5 71.5q0 26 -7 40.5t-15 21.5q-10 8 -21 10q49 44 89 78l90 78
q11 -23 26 -36.5t29 -20.5q3 53 10 86.5t8 35.5q-28 30 -53 41.5t-44 13.5q-6 -17 -5.5 -28t3 -20.5t5.5 -19.5t3 -25l-109 -99q0 32 -9 48t-20 23q-13 7 -30 6l124 112l124 112q14 -27 40.5 -47t53.5 -34q32 -16 67 -27q-9 -2 -19 -7.5t-19 -23.5t-15.5 -53t-7.5 -95z
M153 62q30 -33 57.5 -43.5t47.5 -9.5q10 29 10.5 60t-3 61.5t-9.5 60.5t-8 56l-44 -47q-24 26 -47 38q2 -13 4 -26.5t2 -27.5q0 -19 -1.5 -40t-3 -39t-3.5 -30t-2 -13zM55 278q-16 36 -35 63q-17 23 -41 41.5t-54 16.5l7 5.5t19 10.5t27.5 7t34.5 -5t39.5 -25.5t42.5 -54.5z
M344 240q11 -37 28 -66q14 -25 36 -46t52 -22q-1 0 -8 -4.5t-19.5 -8.5t-28.5 -4t-33.5 9t-36.5 29.5t-36 58.5zM256 902q18 -19 33 -33q13 -12 24.5 -22t14.5 -10q-30 0 -65 -18t-65 -40q-35 -26 -70 -57l-40 38z" />
    <glyph glyph-name="circumflex" unicode="&#x2c6;" horiz-adv-x="320" 
d="M311 716l-89 -96q-22 24 -42 35.5t-37 16t-30.5 3.5t-20.5 -3q-12 -9 -21.5 -17t-16.5 -14q-8 -7 -15 -13l-40 38l168 142z" />
    <glyph glyph-name="asciicircum" unicode="^" horiz-adv-x="312" 
d="M311 466l-89 -96q-22 24 -42 35.5t-37 16t-30.5 3.5t-20.5 -3q-12 -9 -21.5 -17t-16.5 -14q-8 -7 -15 -13l-40 38l168 142z" />
    <glyph glyph-name="Acircumflex" unicode="&#xc2;" horiz-adv-x="417" 
d="M355 306q-2 -61 7.5 -96.5t20.5 -54.5q13 -22 31 -31q-70 -63 -125 -113q-24 -21 -46.5 -41.5t-40 -36.5t-28 -25.5l-10.5 -9.5q-14 27 -40.5 46.5t-53.5 33.5q-32 16 -67 27q9 2 18.5 5.5t17.5 16t13 38t5 71.5q0 26 -7 40.5t-15 21.5q-10 8 -21 10q49 44 89 78l90 78
q11 -23 26 -36.5t29 -20.5q3 53 10 86.5t8 35.5q-28 30 -53 41.5t-44 13.5q-6 -17 -5.5 -28t3 -20.5t5.5 -19.5t3 -25l-109 -99q0 32 -9 48t-20 23q-13 7 -30 6l124 112l124 112q14 -27 40.5 -47t53.5 -34q32 -16 67 -27q-9 -2 -19 -7.5t-19 -23.5t-15.5 -53t-7.5 -95z
M153 62q30 -33 57.5 -43.5t47.5 -9.5q10 29 10.5 60t-3 61.5t-9.5 60.5t-8 56l-44 -47q-24 26 -47 38q2 -13 4 -26.5t2 -27.5q0 -19 -1.5 -40t-3 -39t-3.5 -30t-2 -13zM55 278q-16 36 -35 63q-17 23 -41 41.5t-54 16.5l7 5.5t19 10.5t27.5 7t34.5 -5t39.5 -25.5t42.5 -54.5z
M344 240q11 -37 28 -66q14 -25 36 -46t52 -22q-1 0 -8 -4.5t-19.5 -8.5t-28.5 -4t-33.5 9t-36.5 29.5t-36 58.5zM364 816l-89 -96q-22 24 -42 35.5t-37 16t-30.5 3.5t-20.5 -3q-12 -9 -21.5 -17t-16.5 -14q-8 -7 -15 -13l-40 38l168 142z" />
    <glyph glyph-name="acircumflex" unicode="&#xe2;" horiz-adv-x="417" 
d="M355 306q-2 -61 7.5 -96.5t20.5 -54.5q13 -22 31 -31q-70 -63 -125 -113q-24 -21 -46.5 -41.5t-40 -36.5t-28 -25.5l-10.5 -9.5q-14 27 -40.5 46.5t-53.5 33.5q-32 16 -67 27q9 2 18.5 5.5t17.5 16t13 38t5 71.5q0 26 -7 40.5t-15 21.5q-10 8 -21 10q49 44 89 78l90 78
q11 -23 26 -36.5t29 -20.5q3 53 10 86.5t8 35.5q-28 30 -53 41.5t-44 13.5q-6 -17 -5.5 -28t3 -20.5t5.5 -19.5t3 -25l-109 -99q0 32 -9 48t-20 23q-13 7 -30 6l124 112l124 112q14 -27 40.5 -47t53.5 -34q32 -16 67 -27q-9 -2 -19 -7.5t-19 -23.5t-15.5 -53t-7.5 -95z
M153 62q30 -33 57.5 -43.5t47.5 -9.5q10 29 10.5 60t-3 61.5t-9.5 60.5t-8 56l-44 -47q-24 26 -47 38q2 -13 4 -26.5t2 -27.5q0 -19 -1.5 -40t-3 -39t-3.5 -30t-2 -13zM364 716l-89 -96q-22 24 -42 35.5t-37 16t-30.5 3.5t-20.5 -3q-12 -9 -21.5 -17t-16.5 -14
q-8 -7 -15 -13l-40 38l168 142z" />
    <glyph glyph-name="cedilla" unicode="&#xb8;" horiz-adv-x="283" 
d="M219 -216l-126 -129q-29 31 -54.5 42t-44.5 13q-23 2 -41 -6l64 58q12 11 23.5 21t20.5 18q11 10 21 18q7 -15 18.5 -22.5t25.5 -10.5t29 -2t29 4q-5 13 -15 29.5t-27 29.5t-43 18.5t-63 -2.5l129 115q15 -26 38 -48q20 -19 50.5 -36.5t72.5 -22.5z" />
    <glyph glyph-name="Ccedilla" unicode="&#xc7;" horiz-adv-x="364" 
d="M150 62q14 -15 31 -22t35 -8t35.5 3t34.5 11q39 16 79 46q-57 -54 -102 -97q-19 -18 -37.5 -36t-32.5 -31.5t-23 -21.5l-9 -8q-14 27 -40.5 46.5t-53.5 33.5q-32 16 -67 27q9 2 19 8t19 24t15.5 53t7.5 95t-8 96t-20 55q-13 22 -31 31l254 228q14 -27 31.5 -41t34.5 -20
q19 -7 39 -7l-94 -96q-32 34 -59 44.5t-47 10.5q-12 -33 -12 -68t4.5 -69.5t10 -67t5.5 -60.5q0 -33 -3 -61.5t-6.5 -50t-6.5 -34t-3 -13.5zM55 278q-16 36 -35 63q-17 23 -41 41.5t-54 16.5l7 5.5t19 10.5t27.5 7t34.5 -5t39.5 -25.5t42.5 -54.5zM261 -216l-126 -129
q-29 31 -54.5 42t-44.5 13q-23 2 -41 -6l64 58q12 11 23.5 21t20.5 18q11 10 21 18q7 -15 18.5 -22.5t25.5 -10.5t29 -2t29 4q-5 13 -15 29.5t-27 29.5t-43 18.5t-63 -2.5l129 115q15 -26 38 -48q20 -19 50.5 -36.5t72.5 -22.5z" />
    <glyph glyph-name="ccedilla" unicode="&#xe7;" horiz-adv-x="364" 
d="M150 62q14 -15 31 -22t35 -8t35.5 3t34.5 11q39 16 79 46q-57 -54 -102 -97q-19 -18 -37.5 -36t-32.5 -31.5t-23 -21.5l-9 -8q-14 27 -40.5 46.5t-53.5 33.5q-32 16 -67 27q9 2 19 8t19 24t15.5 53t7.5 95t-8 96t-20 55q-13 22 -31 31l254 228q14 -27 31.5 -41t34.5 -20
q19 -7 39 -7l-94 -96q-32 34 -59 44.5t-47 10.5q-12 -33 -12 -68t4.5 -69.5t10 -67t5.5 -60.5q0 -33 -3 -61.5t-6.5 -50t-6.5 -34t-3 -13.5zM261 -216l-126 -129q-29 31 -54.5 42t-44.5 13q-23 2 -41 -6l64 58q12 11 23.5 21t20.5 18q11 10 21 18q7 -15 18.5 -22.5
t25.5 -10.5t29 -2t29 4q-5 13 -15 29.5t-27 29.5t-43 18.5t-63 -2.5l129 115q15 -26 38 -48q20 -19 50.5 -36.5t72.5 -22.5z" />
    <glyph glyph-name="Egrave" unicode="&#xc8;" horiz-adv-x="374" 
d="M150 62q14 -15 31 -22t35 -8t35.5 3t34.5 11q39 16 79 46q-57 -54 -102 -97q-19 -18 -37.5 -36t-32.5 -31.5t-23 -21.5l-9 -8q-14 27 -40.5 46.5t-53.5 33.5q-32 16 -67 27q9 2 19 8t19 24t15.5 53t7.5 95t-8 96t-20 55q-13 22 -31 31l254 228q14 -27 35.5 -41.5
t41.5 -20.5q24 -7 50 -7l-225 -209q5 -26 8 -50t3 -46q0 -33 -3 -61.5t-6.5 -50t-6.5 -34t-3 -13.5zM161 486q-11 -32 -11.5 -66t3.5 -68l101 92q-27 26 -51 34t-42 8zM55 278q-16 36 -35 63q-17 23 -41 41.5t-54 16.5l7 5.5t19 10.5t27.5 7t34.5 -5t39.5 -25.5t42.5 -54.5z
M42 812l129 115q15 -26 38 -48q20 -19 50.5 -36.5t72.5 -22.5l-136 -110q-7 36 -25 62q-16 22 -46 36.5t-83 3.5z" />
    <glyph glyph-name="egrave" unicode="&#xe8;" horiz-adv-x="374" 
d="M150 62q14 -15 31 -22t35 -8t35.5 3t34.5 11q39 16 79 46q-57 -54 -102 -97q-19 -18 -37.5 -36t-32.5 -31.5t-23 -21.5l-9 -8q-14 27 -40.5 46.5t-53.5 33.5q-32 16 -67 27q9 2 19 8t19 24t15.5 53t7.5 95t-8 96t-20 55q-13 22 -31 31l254 228q14 -27 35.5 -41.5
t41.5 -20.5q24 -7 50 -7l-225 -209q5 -26 8 -50t3 -46q0 -33 -3 -61.5t-6.5 -50t-6.5 -34t-3 -13.5zM161 486q-11 -32 -11.5 -66t3.5 -68l101 92q-27 26 -51 34t-42 8zM42 712l129 115q15 -26 38 -48q20 -19 50.5 -36.5t72.5 -22.5l-136 -110q-7 36 -25 62q-16 22 -46 36.5
t-83 3.5z" />
    <glyph glyph-name="eacute" unicode="&#xe9;" horiz-adv-x="374" 
d="M150 62q14 -15 31 -22t35 -8t35.5 3t34.5 11q39 16 79 46q-57 -54 -102 -97q-19 -18 -37.5 -36t-32.5 -31.5t-23 -21.5l-9 -8q-14 27 -40.5 46.5t-53.5 33.5q-32 16 -67 27q9 2 19 8t19 24t15.5 53t7.5 95t-8 96t-20 55q-13 22 -31 31l254 228q14 -27 35.5 -41.5
t41.5 -20.5q24 -7 50 -7l-225 -209q5 -26 8 -50t3 -46q0 -33 -3 -61.5t-6.5 -50t-6.5 -34t-3 -13.5zM161 486q-11 -32 -11.5 -66t3.5 -68l101 92q-27 26 -51 34t-42 8zM235 802q18 -19 33 -33q13 -12 24.5 -22t14.5 -10q-30 0 -65 -18t-65 -40q-35 -26 -70 -57l-40 38z" />
    <glyph glyph-name="Eacute" unicode="&#xc9;" horiz-adv-x="374" 
d="M150 62q14 -15 31 -22t35 -8t35.5 3t34.5 11q39 16 79 46q-57 -54 -102 -97q-19 -18 -37.5 -36t-32.5 -31.5t-23 -21.5l-9 -8q-14 27 -40.5 46.5t-53.5 33.5q-32 16 -67 27q9 2 19 8t19 24t15.5 53t7.5 95t-8 96t-20 55q-13 22 -31 31l254 228q14 -27 35.5 -41.5
t41.5 -20.5q24 -7 50 -7l-225 -209q5 -26 8 -50t3 -46q0 -33 -3 -61.5t-6.5 -50t-6.5 -34t-3 -13.5zM161 486q-11 -32 -11.5 -66t3.5 -68l101 92q-27 26 -51 34t-42 8zM55 278q-16 36 -35 63q-17 23 -41 41.5t-54 16.5l7 5.5t19 10.5t27.5 7t34.5 -5t39.5 -25.5t42.5 -54.5z
M235 902q18 -19 33 -33q13 -12 24.5 -22t14.5 -10q-30 0 -65 -18t-65 -40q-35 -26 -70 -57l-40 38z" />
    <glyph glyph-name="Ecircumflex" unicode="&#xca;" horiz-adv-x="374" 
d="M150 62q14 -15 31 -22t35 -8t35.5 3t34.5 11q39 16 79 46q-57 -54 -102 -97q-19 -18 -37.5 -36t-32.5 -31.5t-23 -21.5l-9 -8q-14 27 -40.5 46.5t-53.5 33.5q-32 16 -67 27q9 2 19 8t19 24t15.5 53t7.5 95t-8 96t-20 55q-13 22 -31 31l254 228q14 -27 35.5 -41.5
t41.5 -20.5q24 -7 50 -7l-225 -209q5 -26 8 -50t3 -46q0 -33 -3 -61.5t-6.5 -50t-6.5 -34t-3 -13.5zM161 486q-11 -32 -11.5 -66t3.5 -68l101 92q-27 26 -51 34t-42 8zM55 278q-16 36 -35 63q-17 23 -41 41.5t-54 16.5l7 5.5t19 10.5t27.5 7t34.5 -5t39.5 -25.5t42.5 -54.5z
M343 816l-89 -96q-22 24 -42 35.5t-37 16t-30.5 3.5t-20.5 -3q-12 -9 -21.5 -17t-16.5 -14q-8 -7 -15 -13l-40 38l168 142z" />
    <glyph glyph-name="ecircumflex" unicode="&#xea;" horiz-adv-x="374" 
d="M150 62q14 -15 31 -22t35 -8t35.5 3t34.5 11q39 16 79 46q-57 -54 -102 -97q-19 -18 -37.5 -36t-32.5 -31.5t-23 -21.5l-9 -8q-14 27 -40.5 46.5t-53.5 33.5q-32 16 -67 27q9 2 19 8t19 24t15.5 53t7.5 95t-8 96t-20 55q-13 22 -31 31l254 228q14 -27 35.5 -41.5
t41.5 -20.5q24 -7 50 -7l-225 -209q5 -26 8 -50t3 -46q0 -33 -3 -61.5t-6.5 -50t-6.5 -34t-3 -13.5zM161 486q-11 -32 -11.5 -66t3.5 -68l101 92q-27 26 -51 34t-42 8zM343 716l-89 -96q-22 24 -42 35.5t-37 16t-30.5 3.5t-20.5 -3q-12 -9 -21.5 -17t-16.5 -14
q-8 -7 -15 -13l-40 38l168 142z" />
    <glyph glyph-name="edieresis" unicode="&#xeb;" horiz-adv-x="374" 
d="M150 62q14 -15 31 -22t35 -8t35.5 3t34.5 11q39 16 79 46q-57 -54 -102 -97q-19 -18 -37.5 -36t-32.5 -31.5t-23 -21.5l-9 -8q-14 27 -40.5 46.5t-53.5 33.5q-32 16 -67 27q9 2 19 8t19 24t15.5 53t7.5 95t-8 96t-20 55q-13 22 -31 31l254 228q14 -27 35.5 -41.5
t41.5 -20.5q24 -7 50 -7l-225 -209q5 -26 8 -50t3 -46q0 -33 -3 -61.5t-6.5 -50t-6.5 -34t-3 -13.5zM161 486q-11 -32 -11.5 -66t3.5 -68l101 92q-27 26 -51 34t-42 8zM95 606q-9 29 -22 46.5t-26 27.5q-15 11 -30 17q31 24 57 42q11 8 21 15.5l18 13.5q10 7 18 13
q12 -24 25.5 -42t25.5 -30q14 -14 28 -24zM245 606q-9 29 -22 46.5t-26 27.5q-15 11 -30 17q31 24 57 42q11 8 21 15.5l18 13.5q10 7 18 13q12 -24 25.5 -42t25.5 -30q14 -14 28 -24z" />
    <glyph glyph-name="Edieresis" unicode="&#xcb;" horiz-adv-x="374" 
d="M150 62q14 -15 31 -22t35 -8t35.5 3t34.5 11q39 16 79 46q-57 -54 -102 -97q-19 -18 -37.5 -36t-32.5 -31.5t-23 -21.5l-9 -8q-14 27 -40.5 46.5t-53.5 33.5q-32 16 -67 27q9 2 19 8t19 24t15.5 53t7.5 95t-8 96t-20 55q-13 22 -31 31l254 228q14 -27 35.5 -41.5
t41.5 -20.5q24 -7 50 -7l-225 -209q5 -26 8 -50t3 -46q0 -33 -3 -61.5t-6.5 -50t-6.5 -34t-3 -13.5zM161 486q-11 -32 -11.5 -66t3.5 -68l101 92q-27 26 -51 34t-42 8zM55 278q-16 36 -35 63q-17 23 -41 41.5t-54 16.5l7 5.5t19 10.5t27.5 7t34.5 -5t39.5 -25.5t42.5 -54.5z
M95 706q-9 29 -22 46.5t-26 27.5q-15 11 -30 17q31 24 57 42q11 8 21 15.5l18 13.5q10 7 18 13q12 -24 25.5 -42t25.5 -30q14 -14 28 -24zM245 706q-9 29 -22 46.5t-26 27.5q-15 11 -30 17q31 24 57 42q11 8 21 15.5l18 13.5q10 7 18 13q12 -24 25.5 -42t25.5 -30
q14 -14 28 -24z" />
    <glyph glyph-name="igrave" unicode="&#xec;" horiz-adv-x="236" 
d="M2 430q18 -9 31 -31q11 -19 20 -55t8 -96t-7.5 -105t-15.5 -75t-19 -45.5t-19 -17.5q35 -11 67 -27q27 -14 53.5 -33.5t40.5 -46.5l5.5 5t15 13t21.5 19l24 22q29 26 67 60q-21 -9 -44 -8q-20 1 -45.5 11.5t-54.5 41.5q0 1 3 20t6.5 48.5t6.5 65t3 68.5t-9 68.5t-14.5 72
t0 73.5t34.5 72zM-27 712l129 115q15 -26 38 -48q20 -19 50.5 -36.5t72.5 -22.5l-136 -110q-7 36 -25 62q-16 22 -46 36.5t-83 3.5z" />
    <glyph glyph-name="iacute" unicode="&#xed;" horiz-adv-x="236" 
d="M180 550q-29 -35 -34.5 -72t0 -73.5t14.5 -72t9 -68.5t-3 -68.5t-6.5 -65t-6.5 -48.5t-3 -20q29 -31 54.5 -41.5t45.5 -11.5q23 -1 44 8q-38 -34 -67 -60l-24 -22t-21.5 -19t-15 -13l-5.5 -5q-14 27 -40.5 46.5t-53.5 33.5q-32 16 -67 27q9 2 19 17.5t19 45.5t15.5 75
t7.5 105t-8 96t-20 55q-13 22 -31 31zM166 802q18 -19 33 -33q13 -12 24.5 -22t14.5 -10q-30 0 -65 -18t-65 -40q-35 -26 -70 -57l-40 38z" />
    <glyph glyph-name="icircumflex" unicode="&#xee;" horiz-adv-x="236" 
d="M180 550q-29 -35 -34.5 -72t0 -73.5t14.5 -72t9 -68.5t-3 -68.5t-6.5 -65t-6.5 -48.5t-3 -20q29 -31 54.5 -41.5t45.5 -11.5q23 -1 44 8q-38 -34 -67 -60l-24 -22t-21.5 -19t-15 -13l-5.5 -5q-14 27 -40.5 46.5t-53.5 33.5q-32 16 -67 27q9 2 19 17.5t19 45.5t15.5 75
t7.5 105t-8 96t-20 55q-13 22 -31 31zM274 716l-89 -96q-22 24 -42 35.5t-37 16t-30.5 3.5t-20.5 -3q-12 -9 -21.5 -17t-16.5 -14q-8 -7 -15 -13l-40 38l168 142z" />
    <glyph glyph-name="idieresis" unicode="&#xef;" horiz-adv-x="236" 
d="M180 550q-29 -35 -34.5 -72t0 -73.5t14.5 -72t9 -68.5t-3 -68.5t-6.5 -65t-6.5 -48.5t-3 -20q29 -31 54.5 -41.5t45.5 -11.5q23 -1 44 8q-38 -34 -67 -60l-24 -22t-21.5 -19t-15 -13l-5.5 -5q-14 27 -40.5 46.5t-53.5 33.5q-32 16 -67 27q9 2 19 17.5t19 45.5t15.5 75
t7.5 105t-8 96t-20 55q-13 22 -31 31zM25 606q-9 29 -22 46.5t-26 27.5q-15 11 -30 17q31 24 57 42q11 8 21 15.5l18 13.5q10 7 18 13q12 -24 25.5 -42t25.5 -30q14 -14 28 -24zM175 606q-9 29 -22 46.5t-26 27.5q-15 11 -30 17q31 24 57 42q11 8 21 15.5l18 13.5
q10 7 18 13q12 -24 25.5 -42t25.5 -30q14 -14 28 -24z" />
    <glyph glyph-name="Idieresis" unicode="&#xcf;" horiz-adv-x="236" 
d="M180 550q-29 -35 -34.5 -72t0 -73.5t14.5 -72t9 -68.5t-3 -68.5t-6.5 -65t-6.5 -48.5t-3 -20q29 -31 54.5 -41.5t45.5 -11.5q23 -1 44 8q-38 -34 -67 -60l-24 -22t-21.5 -19t-15 -13l-5.5 -5q-14 27 -40.5 46.5t-53.5 33.5q-32 16 -67 27q9 2 19 17.5t19 45.5t15.5 75
t7.5 105t-8 96t-20 55q-13 22 -31 31zM60 333q-14 37 -32 65q-16 24 -39 43.5t-53 18.5q1 0 16 9.5t38.5 10.5t53 -17t59.5 -73zM25 706q-9 29 -22 46.5t-26 27.5q-15 11 -30 17q31 24 57 42q11 8 21 15.5l18 13.5q10 7 18 13q12 -24 25.5 -42t25.5 -30q14 -14 28 -24z
M175 706q-9 29 -22 46.5t-26 27.5q-15 11 -30 17q31 24 57 42q11 8 21 15.5l18 13.5q10 7 18 13q12 -24 25.5 -42t25.5 -30q14 -14 28 -24z" />
    <glyph glyph-name="Icircumflex" unicode="&#xce;" horiz-adv-x="236" 
d="M180 550q-29 -35 -34.5 -72t0 -73.5t14.5 -72t9 -68.5t-3 -68.5t-6.5 -65t-6.5 -48.5t-3 -20q29 -31 54.5 -41.5t45.5 -11.5q23 -1 44 8q-38 -34 -67 -60l-24 -22t-21.5 -19t-15 -13l-5.5 -5q-14 27 -40.5 46.5t-53.5 33.5q-32 16 -67 27q9 2 19 17.5t19 45.5t15.5 75
t7.5 105t-8 96t-20 55q-13 22 -31 31zM60 333q-14 37 -32 65q-16 24 -39 43.5t-53 18.5q1 0 16 9.5t38.5 10.5t53 -17t59.5 -73zM274 816l-89 -96q-22 24 -42 35.5t-37 16t-30.5 3.5t-20.5 -3q-12 -9 -21.5 -17t-16.5 -14q-8 -7 -15 -13l-40 38l168 142z" />
    <glyph glyph-name="Iacute" unicode="&#xcd;" horiz-adv-x="236" 
d="M180 550q-29 -35 -34.5 -72t0 -73.5t14.5 -72t9 -68.5t-3 -68.5t-6.5 -65t-6.5 -48.5t-3 -20q29 -31 54.5 -41.5t45.5 -11.5q23 -1 44 8q-38 -34 -67 -60l-24 -22t-21.5 -19t-15 -13l-5.5 -5q-14 27 -40.5 46.5t-53.5 33.5q-32 16 -67 27q9 2 19 17.5t19 45.5t15.5 75
t7.5 105t-8 96t-20 55q-13 22 -31 31zM60 333q-14 37 -32 65q-16 24 -39 43.5t-53 18.5q1 0 16 9.5t38.5 10.5t53 -17t59.5 -73zM166 902q18 -19 33 -33q13 -12 24.5 -22t14.5 -10q-30 0 -65 -18t-65 -40q-35 -26 -70 -57l-40 38z" />
    <glyph glyph-name="Igrave" unicode="&#xcc;" horiz-adv-x="236" 
d="M2 430q18 -9 31 -31q11 -19 20 -55t8 -96t-7.5 -105t-15.5 -75t-19 -45.5t-19 -17.5q35 -11 67 -27q27 -14 53.5 -33.5t40.5 -46.5l5.5 5t15 13t21.5 19l24 22q29 26 67 60q-21 -9 -44 -8q-20 1 -45.5 11.5t-54.5 41.5q0 1 3 20t6.5 48.5t6.5 65t3 68.5t-9 68.5t-14.5 72
t0 73.5t34.5 72zM103 390q-30 55 -59.5 73t-53 17t-38.5 -10.5t-16 -9.5q30 1 53 -18.5t39 -43.5q18 -28 32 -65zM-27 812l129 115q15 -26 38 -48q20 -19 50.5 -36.5t72.5 -22.5l-136 -110q-7 36 -25 62q-16 22 -46 36.5t-83 3.5z" />
    <glyph glyph-name="eth" unicode="&#xf0;" horiz-adv-x="441" 
d="M171 556q11 -4 21.5 -11.5t21.5 -10.5q30 -8 58 1t53 26q8 5 16.5 13.5t18.5 10.5q4 1 7 -1.5t5.5 -6t4.5 -7.5t4 -6q10 -10 25.5 -13.5t28.5 -3.5l-78 -92q-13 0 -28.5 3.5t-25.5 13.5q-2 2 -4 6t-4.5 7.5t-5.5 6t-7 1.5q-10 -2 -18.5 -10.5t-16.5 -13.5
q-25 -17 -53 -26t-58 -1q-11 3 -21.5 10.5t-21.5 11.5zM421 62q-2 -20 -8 -40t-19 -37q-12 -16 -27.5 -29t-32.5 -24q-34 -23 -76 -36q-9 -2 -18 -3.5t-19 -0.5q-5 0 -11 1t-11 2l-5 2.5t-5.5 2.5l-2.5 1l5 -2q-4 2 -7.5 3t-6.5 3q-18 9 -34 22.5t-27 30.5q-2 2 -5.5 8
t-1.5 10q-12 10 -22.5 21t-20.5 23q-30 36 -42 80q-11 36 -4 71.5t21 69.5q14 33 37 62t59 40q16 5 33.5 6t34.5 0q23 -2 42.5 -9t38.5 -19q-8 19 -15.5 37.5t-14.5 38.5q-7 18 -13.5 36.5t-14.5 36.5q-9 20 -18.5 39.5t-19.5 39.5q-20 38 -37.5 77.5t-28.5 81.5q-2 8 -3 15
l-2 14t5.5 6.5t15 -4.5t16 -8.5t8.5 -5.5q10 -7 18 -15t16 -17q5 -5 9.5 -11.5t5.5 -13.5q5 -40 20.5 -76.5t32.5 -72.5q20 -39 39 -77.5t33 -79.5q12 -37 27 -72t28 -71q13 -38 22.5 -77.5t5.5 -79.5zM278 267q-17 0 -34 -2t-33 -7q-20 -9 -35 -24.5t-26.5 -34.5
t-19.5 -40.5t-14 -41.5q-5 -23 -5 -42v-11.5t1 -11.5q1 -2 1 -5t1 -6q0 -1 0.5 -2t0.5 -3t1 -3q0 -1 0.5 -2t0.5 0q3 -11 7 -20q2 -4 3 -7q0 1 2 -1q18 -12 33 -27q9 2 18 4.5t17 5.5q40 17 77 47t50 74q8 35 3 72.5t-15 70.5q-2 4 -4 12q-9 3 -14.5 3.5t-15.5 1.5z" />
    <glyph glyph-name="Ocircumflex" unicode="&#xd4;" 
d="M352 306q-2 -61 7.5 -96.5t20.5 -54.5q13 -22 31 -31q-70 -63 -125 -113q-24 -21 -46.5 -41.5t-40 -36.5t-28 -25.5l-10.5 -9.5q-14 27 -40.5 46.5t-53.5 33.5q-32 16 -67 27q9 2 19 8t19 24t15.5 53t7.5 95t-8 96t-20 55q-13 22 -31 31q70 63 125 113q23 21 45.5 41.5
t40.5 36.5q20 18 39 35q14 -27 40.5 -47t53.5 -34q32 -16 67 -27q-9 -2 -19 -7.5t-19 -23.5t-15.5 -53t-7.5 -95zM150 62q30 -33 57.5 -43.5t47.5 -9.5q11 32 11 66.5t-5 68.5t-11 66t-6 59q0 33 3 62t6.5 50.5t6.5 34t3 13.5q-30 32 -56.5 43t-45.5 12q-11 -32 -11.5 -67
t4 -69.5t10 -67t5.5 -59.5q0 -33 -3 -61.5t-6.5 -50t-6.5 -34t-3 -13.5zM55 278q-16 36 -35 63q-17 23 -41 41.5t-54 16.5l7 5.5t19 10.5t27.5 7t34.5 -5t39.5 -25.5t42.5 -54.5zM362 816l-89 -96q-22 24 -42 35.5t-37 16t-30.5 3.5t-20.5 -3q-12 -9 -21.5 -17t-16.5 -14
q-8 -7 -15 -13l-40 38l168 142z" />
    <glyph glyph-name="ocircumflex" unicode="&#xf4;" 
d="M352 306q-2 -61 7.5 -96.5t20.5 -54.5q13 -22 31 -31q-70 -63 -125 -113q-24 -21 -46.5 -41.5t-40 -36.5t-28 -25.5l-10.5 -9.5q-14 27 -40.5 46.5t-53.5 33.5q-32 16 -67 27q9 2 19 8t19 24t15.5 53t7.5 95t-8 96t-20 55q-13 22 -31 31q70 63 125 113q23 21 45.5 41.5
t40.5 36.5q20 18 39 35q14 -27 40.5 -47t53.5 -34q32 -16 67 -27q-9 -2 -19 -7.5t-19 -23.5t-15.5 -53t-7.5 -95zM150 62q30 -33 57.5 -43.5t47.5 -9.5q11 32 11 66.5t-5 68.5t-11 66t-6 59q0 33 3 62t6.5 50.5t6.5 34t3 13.5q-30 32 -56.5 43t-45.5 12q-11 -32 -11.5 -67
t4 -69.5t10 -67t5.5 -59.5q0 -33 -3 -61.5t-6.5 -50t-6.5 -34t-3 -13.5zM362 716l-89 -96q-22 24 -42 35.5t-37 16t-30.5 3.5t-20.5 -3q-12 -9 -21.5 -17t-16.5 -14q-8 -7 -15 -13l-40 38l168 142z" />
    <glyph glyph-name="Otilde" unicode="&#xd5;" 
d="M352 306q-2 -61 7.5 -96.5t20.5 -54.5q13 -22 31 -31q-70 -63 -125 -113q-24 -21 -46.5 -41.5t-40 -36.5t-28 -25.5l-10.5 -9.5q-14 27 -40.5 46.5t-53.5 33.5q-32 16 -67 27q9 2 19 8t19 24t15.5 53t7.5 95t-8 96t-20 55q-13 22 -31 31q70 63 125 113q23 21 45.5 41.5
t40.5 36.5q20 18 39 35q14 -27 40.5 -47t53.5 -34q32 -16 67 -27q-9 -2 -19 -7.5t-19 -23.5t-15.5 -53t-7.5 -95zM150 62q30 -33 57.5 -43.5t47.5 -9.5q11 32 11 66.5t-5 68.5t-11 66t-6 59q0 33 3 62t6.5 50.5t6.5 34t3 13.5q-30 32 -56.5 43t-45.5 12q-11 -32 -11.5 -67
t4 -69.5t10 -67t5.5 -59.5q0 -33 -3 -61.5t-6.5 -50t-6.5 -34t-3 -13.5zM55 278q-16 36 -35 63q-17 23 -41 41.5t-54 16.5l7 5.5t19 10.5t27.5 7t34.5 -5t39.5 -25.5t42.5 -54.5zM287 844q14 -27 31.5 -41t34.5 -20q19 -7 39 -7l-94 -96q-26 28 -49 40t-42 14l-47 -48
q-29 31 -54.5 42t-44.5 13q-23 2 -41 -6l64 58q12 11 23.5 21t20.5 18q11 10 21 18q15 -30 35.5 -44t37.5 -19q12 11 23.5 21t20.5 18q11 10 21 18z" />
    <glyph glyph-name="otilde" unicode="&#xf5;" 
d="M352 306q-2 -61 7.5 -96.5t20.5 -54.5q13 -22 31 -31q-70 -63 -125 -113q-24 -21 -46.5 -41.5t-40 -36.5t-28 -25.5l-10.5 -9.5q-14 27 -40.5 46.5t-53.5 33.5q-32 16 -67 27q9 2 19 8t19 24t15.5 53t7.5 95t-8 96t-20 55q-13 22 -31 31q70 63 125 113q23 21 45.5 41.5
t40.5 36.5q20 18 39 35q14 -27 40.5 -47t53.5 -34q32 -16 67 -27q-9 -2 -19 -7.5t-19 -23.5t-15.5 -53t-7.5 -95zM150 62q30 -33 57.5 -43.5t47.5 -9.5q11 32 11 66.5t-5 68.5t-11 66t-6 59q0 33 3 62t6.5 50.5t6.5 34t3 13.5q-30 32 -56.5 43t-45.5 12q-11 -32 -11.5 -67
t4 -69.5t10 -67t5.5 -59.5q0 -33 -3 -61.5t-6.5 -50t-6.5 -34t-3 -13.5zM287 744q14 -27 31.5 -41t34.5 -20q19 -7 39 -7l-94 -96q-26 28 -49 40t-42 14l-47 -48q-29 31 -54.5 42t-44.5 13q-23 2 -41 -6l64 58q12 11 23.5 21t20.5 18q11 10 21 18q15 -30 35.5 -44t37.5 -19
q12 11 23.5 21t20.5 18q11 10 21 18z" />
    <glyph glyph-name="hyphen" unicode="-" horiz-adv-x="402" 
d="M-3 258l188 117q31 -16 66 -29q30 -11 69 -23t81 -17l-164 -78q-31 16 -68 26q-32 8 -75.5 11.5t-96.5 -7.5z" />
    <glyph glyph-name="slash" unicode="/" horiz-adv-x="323" 
d="M311 690l66 -6q-115 -206 -199 -393q-36 -80 -68 -163.5t-54.5 -162t-30.5 -147.5t4 -118q2 0 -12 5.5t-31 12.5q-20 8 -47 18q-14 5 19 106q14 43 39.5 111.5t67.5 170t102.5 241t143.5 325.5z" />
    <glyph glyph-name="Oslash" unicode="&#xd8;" 
d="M461 684q-115 -206 -199 -393q-36 -80 -68 -163.5t-54.5 -162t-30.5 -147.5t4 -118q2 0 -12 5.5t-31 12.5q-20 8 -47 18q-14 5 19 106q14 43 39.5 111.5t67.5 170t102.5 241t143.5 325.5zM352 306q-2 -61 7.5 -96.5t20.5 -54.5q13 -22 31 -31q-70 -63 -125 -113
q-24 -21 -46.5 -41.5t-40 -36.5t-28 -25.5l-10.5 -9.5q-14 27 -40.5 46.5t-53.5 33.5q-32 16 -67 27q9 2 19 8t19 24t15.5 53t7.5 95t-8 96t-20 55q-13 22 -31 31q70 63 125 113q23 21 45.5 41.5t40.5 36.5q20 18 39 35q14 -27 40.5 -47t53.5 -34q32 -16 67 -27
q-9 -2 -19 -7.5t-19 -23.5t-15.5 -53t-7.5 -95zM150 62q30 -33 57.5 -43.5t47.5 -9.5q11 32 11 66.5t-5 68.5t-11 66t-6 59q0 33 3 62t6.5 50.5t6.5 34t3 13.5q-30 32 -56.5 43t-45.5 12q-11 -32 -11.5 -67t4 -69.5t10 -67t5.5 -59.5q0 -33 -3 -61.5t-6.5 -50t-6.5 -34
t-3 -13.5zM55 278q-16 36 -35 63q-17 23 -41 41.5t-54 16.5l7 5.5t19 10.5t27.5 7t34.5 -5t39.5 -25.5t42.5 -54.5z" />
    <glyph glyph-name="oslash" unicode="&#xf8;" 
d="M461 684q-115 -206 -199 -393q-36 -80 -68 -163.5t-54.5 -162t-30.5 -147.5t4 -118q2 0 -12 5.5t-31 12.5q-20 8 -47 18q-14 5 19 106q14 43 39.5 111.5t67.5 170t102.5 241t143.5 325.5zM352 306q-2 -61 7.5 -96.5t20.5 -54.5q13 -22 31 -31q-70 -63 -125 -113
q-24 -21 -46.5 -41.5t-40 -36.5t-28 -25.5l-10.5 -9.5q-14 27 -40.5 46.5t-53.5 33.5q-32 16 -67 27q9 2 19 8t19 24t15.5 53t7.5 95t-8 96t-20 55q-13 22 -31 31q70 63 125 113q23 21 45.5 41.5t40.5 36.5q20 18 39 35q14 -27 40.5 -47t53.5 -34q32 -16 67 -27
q-9 -2 -19 -7.5t-19 -23.5t-15.5 -53t-7.5 -95zM150 62q30 -33 57.5 -43.5t47.5 -9.5q11 32 11 66.5t-5 68.5t-11 66t-6 59q0 33 3 62t6.5 50.5t6.5 34t3 13.5q-30 32 -56.5 43t-45.5 12q-11 -32 -11.5 -67t4 -69.5t10 -67t5.5 -59.5q0 -33 -3 -61.5t-6.5 -50t-6.5 -34
t-3 -13.5z" />
    <glyph glyph-name="Ugrave" unicode="&#xd9;" horiz-adv-x="421" 
d="M374 62q6 -17 21 -24.5t31 -9.5q18 -3 40 -1q-38 -34 -67 -60l-24 -22t-21.5 -19t-15 -13l-5.5 -5q-15 30 -36 49.5t-39 30.5q-15 -13 -32.5 -29t-32.5 -29.5t-25.5 -22.5l-10.5 -9q-14 27 -40.5 46.5t-53.5 33.5q-32 16 -67 27q9 2 19 8t19 24t15.5 53t7.5 95
t-6.5 104.5t-16.5 73.5q-11 34 -25 57l177 170q-29 -35 -36 -84.5t-3.5 -101.5t11 -101t7.5 -82t-3 -61.5t-6.5 -50t-6.5 -34t-3 -13.5q26 -27 48.5 -38.5t42.5 -13.5q8 4 16 13t15 28t11.5 51.5t5.5 82.5q1 60 -8 104.5t-20 73.5q-13 34 -31 57l188 170q-29 -35 -36 -84.5
t-3.5 -101.5t11 -101t7.5 -82t-3 -61.5t-6.5 -50t-6.5 -34t-3 -13.5zM50 333q-14 37 -32 65q-16 24 -39 43.5t-53 18.5q1 0 16 9.5t38.5 10.5t53 -17t59.5 -73zM65 812l129 115q15 -26 38 -48q20 -19 50.5 -36.5t72.5 -22.5l-136 -110q-7 36 -25 62q-16 22 -46 36.5t-83 3.5
z" />
    <glyph glyph-name="ugrave" unicode="&#xf9;" horiz-adv-x="421" 
d="M374 62q6 -17 21 -24.5t31 -9.5q18 -3 40 -1q-38 -34 -67 -60l-24 -22t-21.5 -19t-15 -13l-5.5 -5q-15 30 -36 49.5t-39 30.5q-15 -13 -32.5 -29t-32.5 -29.5t-25.5 -22.5l-10.5 -9q-14 27 -40.5 46.5t-53.5 33.5q-32 16 -67 27q9 2 19 8t19 24t15.5 53t7.5 95
t-6.5 104.5t-16.5 73.5q-11 34 -25 57l177 170q-29 -35 -36 -84.5t-3.5 -101.5t11 -101t7.5 -82t-3 -61.5t-6.5 -50t-6.5 -34t-3 -13.5q26 -27 48.5 -38.5t42.5 -13.5q8 4 16 13t15 28t11.5 51.5t5.5 82.5q1 60 -8 104.5t-20 73.5q-13 34 -31 57l188 170q-29 -35 -36 -84.5
t-3.5 -101.5t11 -101t7.5 -82t-3 -61.5t-6.5 -50t-6.5 -34t-3 -13.5zM65 712l129 115q15 -26 38 -48q20 -19 50.5 -36.5t72.5 -22.5l-136 -110q-7 36 -25 62q-16 22 -46 36.5t-83 3.5z" />
    <glyph glyph-name="uacute" unicode="&#xfa;" horiz-adv-x="421" 
d="M374 62q6 -17 21 -24.5t31 -9.5q18 -3 40 -1q-38 -34 -67 -60l-24 -22t-21.5 -19t-15 -13l-5.5 -5q-15 30 -36 49.5t-39 30.5q-15 -13 -32.5 -29t-32.5 -29.5t-25.5 -22.5l-10.5 -9q-14 27 -40.5 46.5t-53.5 33.5q-32 16 -67 27q9 2 19 8t19 24t15.5 53t7.5 95
t-6.5 104.5t-16.5 73.5q-11 34 -25 57l177 170q-29 -35 -36 -84.5t-3.5 -101.5t11 -101t7.5 -82t-3 -61.5t-6.5 -50t-6.5 -34t-3 -13.5q26 -27 48.5 -38.5t42.5 -13.5q8 4 16 13t15 28t11.5 51.5t5.5 82.5q1 60 -8 104.5t-20 73.5q-13 34 -31 57l188 170q-29 -35 -36 -84.5
t-3.5 -101.5t11 -101t7.5 -82t-3 -61.5t-6.5 -50t-6.5 -34t-3 -13.5zM258 802q18 -19 33 -33q13 -12 24.5 -22t14.5 -10q-30 0 -65 -18t-65 -40q-35 -26 -70 -57l-40 38z" />
    <glyph glyph-name="Uacute" unicode="&#xda;" horiz-adv-x="421" 
d="M374 62q6 -17 21 -24.5t31 -9.5q18 -3 40 -1q-38 -34 -67 -60l-24 -22t-21.5 -19t-15 -13l-5.5 -5q-15 30 -36 49.5t-39 30.5q-15 -13 -32.5 -29t-32.5 -29.5t-25.5 -22.5l-10.5 -9q-14 27 -40.5 46.5t-53.5 33.5q-32 16 -67 27q9 2 19 8t19 24t15.5 53t7.5 95
t-6.5 104.5t-16.5 73.5q-11 34 -25 57l177 170q-29 -35 -36 -84.5t-3.5 -101.5t11 -101t7.5 -82t-3 -61.5t-6.5 -50t-6.5 -34t-3 -13.5q26 -27 48.5 -38.5t42.5 -13.5q8 4 16 13t15 28t11.5 51.5t5.5 82.5q1 60 -8 104.5t-20 73.5q-13 34 -31 57l188 170q-29 -35 -36 -84.5
t-3.5 -101.5t11 -101t7.5 -82t-3 -61.5t-6.5 -50t-6.5 -34t-3 -13.5zM50 333q-14 37 -32 65q-16 24 -39 43.5t-53 18.5q1 0 16 9.5t38.5 10.5t53 -17t59.5 -73zM258 902q18 -19 33 -33q13 -12 24.5 -22t14.5 -10q-30 0 -65 -18t-65 -40q-35 -26 -70 -57l-40 38z" />
    <glyph glyph-name="Ucircumflex" unicode="&#xdb;" horiz-adv-x="421" 
d="M374 62q6 -17 21 -24.5t31 -9.5q18 -3 40 -1q-38 -34 -67 -60l-24 -22t-21.5 -19t-15 -13l-5.5 -5q-15 30 -36 49.5t-39 30.5q-15 -13 -32.5 -29t-32.5 -29.5t-25.5 -22.5l-10.5 -9q-14 27 -40.5 46.5t-53.5 33.5q-32 16 -67 27q9 2 19 8t19 24t15.5 53t7.5 95
t-6.5 104.5t-16.5 73.5q-11 34 -25 57l177 170q-29 -35 -36 -84.5t-3.5 -101.5t11 -101t7.5 -82t-3 -61.5t-6.5 -50t-6.5 -34t-3 -13.5q26 -27 48.5 -38.5t42.5 -13.5q8 4 16 13t15 28t11.5 51.5t5.5 82.5q1 60 -8 104.5t-20 73.5q-13 34 -31 57l188 170q-29 -35 -36 -84.5
t-3.5 -101.5t11 -101t7.5 -82t-3 -61.5t-6.5 -50t-6.5 -34t-3 -13.5zM50 333q-14 37 -32 65q-16 24 -39 43.5t-53 18.5q1 0 16 9.5t38.5 10.5t53 -17t59.5 -73zM366 816l-89 -96q-22 24 -42 35.5t-37 16t-30.5 3.5t-20.5 -3q-12 -9 -21.5 -17t-16.5 -14q-8 -7 -15 -13
l-40 38l168 142z" />
    <glyph glyph-name="ucircumflex" unicode="&#xfb;" horiz-adv-x="421" 
d="M374 62q6 -17 21 -24.5t31 -9.5q18 -3 40 -1q-38 -34 -67 -60l-24 -22t-21.5 -19t-15 -13l-5.5 -5q-15 30 -36 49.5t-39 30.5q-15 -13 -32.5 -29t-32.5 -29.5t-25.5 -22.5l-10.5 -9q-14 27 -40.5 46.5t-53.5 33.5q-32 16 -67 27q9 2 19 8t19 24t15.5 53t7.5 95
t-6.5 104.5t-16.5 73.5q-11 34 -25 57l177 170q-29 -35 -36 -84.5t-3.5 -101.5t11 -101t7.5 -82t-3 -61.5t-6.5 -50t-6.5 -34t-3 -13.5q26 -27 48.5 -38.5t42.5 -13.5q8 4 16 13t15 28t11.5 51.5t5.5 82.5q1 60 -8 104.5t-20 73.5q-13 34 -31 57l188 170q-29 -35 -36 -84.5
t-3.5 -101.5t11 -101t7.5 -82t-3 -61.5t-6.5 -50t-6.5 -34t-3 -13.5zM366 716l-89 -96q-22 24 -42 35.5t-37 16t-30.5 3.5t-20.5 -3q-12 -9 -21.5 -17t-16.5 -14q-8 -7 -15 -13l-40 38l168 142z" />
    <glyph glyph-name="udieresis" unicode="&#xfc;" horiz-adv-x="421" 
d="M374 62q6 -17 21 -24.5t31 -9.5q18 -3 40 -1q-38 -34 -67 -60l-24 -22t-21.5 -19t-15 -13l-5.5 -5q-15 30 -36 49.5t-39 30.5q-15 -13 -32.5 -29t-32.5 -29.5t-25.5 -22.5l-10.5 -9q-14 27 -40.5 46.5t-53.5 33.5q-32 16 -67 27q9 2 19 8t19 24t15.5 53t7.5 95
t-6.5 104.5t-16.5 73.5q-11 34 -25 57l177 170q-29 -35 -36 -84.5t-3.5 -101.5t11 -101t7.5 -82t-3 -61.5t-6.5 -50t-6.5 -34t-3 -13.5q26 -27 48.5 -38.5t42.5 -13.5q8 4 16 13t15 28t11.5 51.5t5.5 82.5q1 60 -8 104.5t-20 73.5q-13 34 -31 57l188 170q-29 -35 -36 -84.5
t-3.5 -101.5t11 -101t7.5 -82t-3 -61.5t-6.5 -50t-6.5 -34t-3 -13.5zM117 606q-9 29 -22 46.5t-26 27.5q-15 11 -30 17q31 24 57 42q11 8 21 15.5l18 13.5q10 7 18 13q12 -24 25.5 -42t25.5 -30q14 -14 28 -24zM267 606q-9 29 -22 46.5t-26 27.5q-15 11 -30 17q31 24 57 42
q11 8 21 15.5l18 13.5q10 7 18 13q12 -24 25.5 -42t25.5 -30q14 -14 28 -24z" />
    <glyph glyph-name="Udieresis" unicode="&#xdc;" horiz-adv-x="421" 
d="M374 62q6 -17 21 -24.5t31 -9.5q18 -3 40 -1q-38 -34 -67 -60l-24 -22t-21.5 -19t-15 -13l-5.5 -5q-15 30 -36 49.5t-39 30.5q-15 -13 -32.5 -29t-32.5 -29.5t-25.5 -22.5l-10.5 -9q-14 27 -40.5 46.5t-53.5 33.5q-32 16 -67 27q9 2 19 8t19 24t15.5 53t7.5 95
t-6.5 104.5t-16.5 73.5q-11 34 -25 57l177 170q-29 -35 -36 -84.5t-3.5 -101.5t11 -101t7.5 -82t-3 -61.5t-6.5 -50t-6.5 -34t-3 -13.5q26 -27 48.5 -38.5t42.5 -13.5q8 4 16 13t15 28t11.5 51.5t5.5 82.5q1 60 -8 104.5t-20 73.5q-13 34 -31 57l188 170q-29 -35 -36 -84.5
t-3.5 -101.5t11 -101t7.5 -82t-3 -61.5t-6.5 -50t-6.5 -34t-3 -13.5zM50 333q-14 37 -32 65q-16 24 -39 43.5t-53 18.5q1 0 16 9.5t38.5 10.5t53 -17t59.5 -73zM117 706q-9 29 -22 46.5t-26 27.5q-15 11 -30 17q31 24 57 42q11 8 21 15.5l18 13.5q10 7 18 13
q12 -24 25.5 -42t25.5 -30q14 -14 28 -24zM267 706q-9 29 -22 46.5t-26 27.5q-15 11 -30 17q31 24 57 42q11 8 21 15.5l18 13.5q10 7 18 13q12 -24 25.5 -42t25.5 -30q14 -14 28 -24z" />
    <glyph glyph-name="Yacute" unicode="&#xdd;" horiz-adv-x="410" 
d="M352 348q-1 -30 0.5 -66.5t4 -75t6 -78t7.5 -76.5q9 -86 20 -175l-217 -204q-7 41 -26 70q-17 25 -47.5 41.5t-83.5 5.5l129 132q-18 21 -43 36t-48 26q-26 12 -54 21q9 2 19 14.5t19 38.5t15.5 67.5t7.5 101.5t-8 96t-20 55q-13 22 -31 31l188 170q-29 -35 -36 -76.5
t-3.5 -83.5t11 -82.5t7.5 -73.5t-3 -68.5t-6.5 -64.5t-6.5 -48t-3 -20q18 -20 35.5 -31t33.5 -16.5t29 -6t23 1.5q-3 42 -7.5 88t-9 88t-7.5 75.5t-3 49.5q0 33 -3.5 52t-8 29t-8 12.5t-3.5 3.5l192 170q-8 -10 -18 -24.5t-19 -40t-16 -65.5t-8 -100zM161 -101
q3 -11 10 -24.5t18.5 -26t29 -24t42.5 -18.5q10 43 12 92t-1 99q-14 -13 -33.5 -30t-36.5 -32.5t-29 -26l-12 -10.5v1zM60 313q-14 37 -32 65q-16 24 -39 43.5t-53 18.5q1 0 16 9.5t38.5 10.5t53 -17t59.5 -73zM374 -51q11 -37 28 -66q14 -25 36 -46t52 -22l-7.5 -4.5
t-19.5 -8.5t-28.5 -4t-34 9t-36.5 29.5t-36 58.5zM253 902q18 -19 33 -33q13 -12 24.5 -22t14.5 -10q-30 0 -65 -18t-65 -40q-35 -26 -70 -57l-40 38z" />
    <glyph glyph-name="yacute" unicode="&#xfd;" horiz-adv-x="410" 
d="M352 348q-1 -30 0.5 -66.5t4 -75t6 -78t7.5 -76.5q9 -86 20 -175l-217 -204q-7 41 -26 70q-17 25 -47.5 41.5t-83.5 5.5l129 132q-18 21 -43 36t-48 26q-26 12 -54 21q9 2 19 14.5t19 38.5t15.5 67.5t7.5 101.5t-8 96t-20 55q-13 22 -31 31l188 170q-29 -35 -36 -76.5
t-3.5 -83.5t11 -82.5t7.5 -73.5t-3 -68.5t-6.5 -64.5t-6.5 -48t-3 -20q18 -20 35.5 -31t33.5 -16.5t29 -6t23 1.5q-3 42 -7.5 88t-9 88t-7.5 75.5t-3 49.5q0 33 -3.5 52t-8 29t-8 12.5t-3.5 3.5l192 170q-8 -10 -18 -24.5t-19 -40t-16 -65.5t-8 -100zM161 -101
q3 -11 10 -24.5t18.5 -26t29 -24t42.5 -18.5q10 43 12 92t-1 99q-14 -13 -33.5 -30t-36.5 -32.5t-29 -26l-12 -10.5v1zM253 802q18 -19 33 -33q13 -12 24.5 -22t14.5 -10q-30 0 -65 -18t-65 -40q-35 -26 -70 -57l-40 38z" />
    <glyph glyph-name="ydieresis" unicode="&#xff;" horiz-adv-x="410" 
d="M352 348q-1 -30 0.5 -66.5t4 -75t6 -78t7.5 -76.5q9 -86 20 -175l-217 -204q-7 41 -26 70q-17 25 -47.5 41.5t-83.5 5.5l129 132q-18 21 -43 36t-48 26q-26 12 -54 21q9 2 19 14.5t19 38.5t15.5 67.5t7.5 101.5t-8 96t-20 55q-13 22 -31 31l188 170q-29 -35 -36 -76.5
t-3.5 -83.5t11 -82.5t7.5 -73.5t-3 -68.5t-6.5 -64.5t-6.5 -48t-3 -20q18 -20 35.5 -31t33.5 -16.5t29 -6t23 1.5q-3 42 -7.5 88t-9 88t-7.5 75.5t-3 49.5q0 33 -3.5 52t-8 29t-8 12.5t-3.5 3.5l192 170q-8 -10 -18 -24.5t-19 -40t-16 -65.5t-8 -100zM161 -101
q3 -11 10 -24.5t18.5 -26t29 -24t42.5 -18.5q10 43 12 92t-1 99q-14 -13 -33.5 -30t-36.5 -32.5t-29 -26l-12 -10.5v1zM111 606q-9 29 -22 46.5t-26 27.5q-15 11 -30 17q31 24 57 42q11 8 21 15.5l18 13.5q10 7 18 13q12 -24 25.5 -42t25.5 -30q14 -14 28 -24zM261 606
q-9 29 -22 46.5t-26 27.5q-15 11 -30 17q31 24 57 42q11 8 21 15.5l18 13.5q10 7 18 13q12 -24 25.5 -42t25.5 -30q14 -14 28 -24z" />
    <glyph glyph-name="Thorn" unicode="&#xde;" 
d="M-26 -244q6 3 14.5 33t18 76.5t18.5 104t17 115.5t13 111.5t6 92.5q1 61 -8 113.5t-20 92.5q-13 46 -31 85l188 170q-17 -20 -25.5 -48t-12.5 -60.5t-3 -68t4 -70.5q14 13 31.5 28.5t33 29.5t26 23l10.5 9q14 -27 40.5 -47t53.5 -34q32 -16 67 -27q-9 -2 -19 -7.5
t-19 -23.5t-15.5 -53t-7.5 -95q-2 -61 7.5 -96.5t20.5 -54.5q13 -22 31 -31q-71 -63 -126 -113q-24 -21 -46.5 -41.5t-40 -36.5t-28.5 -25.5l-11 -9.5q-11 21 -32 40v-246zM150 62q31 -34 59 -44t48 -9q11 32 11 66.5t-5 68.5t-11 66t-6 59q0 33 3 62t6.5 50.5t6.5 34
t3 13.5q-33 36 -62 46t-48 9q4 -48 9 -90t5 -68q0 -33 -3 -78t-6.5 -86t-6.5 -70t-3 -30z" />
    <glyph glyph-name="thorn" unicode="&#xfe;" 
d="M-26 -244q6 3 14.5 33t18 76.5t18.5 104t17 115.5t13 111.5t6 92.5q1 61 -8 113.5t-20 92.5q-13 46 -31 85l188 170q-17 -20 -25.5 -48t-12.5 -60.5t-3 -68t4 -70.5q14 13 31.5 28.5t33 29.5t26 23l10.5 9q14 -27 40.5 -47t53.5 -34q32 -16 67 -27q-9 -2 -19 -7.5
t-19 -23.5t-15.5 -53t-7.5 -95q-2 -61 7.5 -96.5t20.5 -54.5q13 -22 31 -31q-71 -63 -126 -113q-24 -21 -46.5 -41.5t-40 -36.5t-28.5 -25.5l-11 -9.5q-11 21 -32 40v-246zM150 62q31 -34 59 -44t48 -9q11 32 11 66.5t-5 68.5t-11 66t-6 59q0 33 3 62t6.5 50.5t6.5 34
t3 13.5q-33 36 -62 46t-48 9q4 -48 9 -90t5 -68q0 -33 -3 -78t-6.5 -86t-6.5 -70t-3 -30z" />
    <glyph glyph-name="Eth" unicode="&#xd0;" 
d="M352 306q-2 -61 7.5 -96.5t20.5 -54.5q13 -22 31 -31q-70 -63 -125 -113q-24 -21 -46.5 -41.5t-40 -36.5t-28 -25.5l-10.5 -9.5q-14 27 -40.5 46.5t-53.5 33.5q-32 16 -67 27q9 2 19 8t19 24t15.5 53t7.5 95t-8 96t-20 55q-13 22 -31 31q57 52 102 93q19 17 37.5 34
t32.5 30q17 15 32 29q11 -21 23.5 -34t25.5 -20q3 38 5 62.5t3 25.5q-29 31 -54.5 42t-44.5 13q-23 2 -41 -6l64 58q12 11 23.5 21t20.5 18q11 10 21 18q14 -27 40.5 -47t53.5 -34q32 -16 67 -27q-9 -2 -19 -32t-19 -78t-15.5 -107.5t-7.5 -119.5zM150 62q30 -33 57.5 -43.5
t47.5 -9.5q11 32 11 66.5t-5 68.5t-11 66t-6 59q0 28 2 70t4 86l-33 -36q-18 20 -35 31t-31 17q-3 -28 -0.5 -57t6.5 -56.5t8 -54t4 -48.5q0 -33 -3 -61.5t-6.5 -50t-6.5 -34t-3 -13.5zM65 268q-16 36 -35 63q-17 23 -41 41.5t-54 16.5l7 5.5t19 10.5t27.5 7t34.5 -5
t39.5 -25.5t42.5 -54.5zM344 240q11 -37 28 -66q14 -25 36 -46t52 -22q-1 0 -8 -4.5t-19.5 -8.5t-28.5 -4t-33.5 9t-36.5 29.5t-36 58.5z" />
    <glyph glyph-name="quotedbl" unicode="&#x22;" horiz-adv-x="257" 
d="M129 652q0 -14 -0.5 -29t-0.5 -30q0 -7 -5 -13.5t-9 -11.5q-15 -18 -34 -31q-2 -1 -8.5 -6t-14.5 -8.5t-14.5 -4t-6.5 6.5q0 15 1 29.5t1 29.5q0 16 -2 30.5t-4 29.5q-1 5 4.5 12t8.5 11q13 16 31 29q2 1 7.5 5.5t12 8t12 5t8.5 -2.5q8 -12 10 -29t3 -31zM191 722
q1 1 7 5t12.5 7.5t12 4t5.5 -5.5q0 -3 -1 -4q0 -5 -1 -10t-1 -10q-1 -8 -1 -17v-17q1 -8 1 -17v-17q0 -10 -1.5 -17.5t-7.5 -16.5q-8 -11 -18 -21t-21 -18q-5 -4 -10.5 -7t-10.5 -6q-7 -4 -15 -4q-5 2 -6 4.5t-1 7.5v13v39q0 9 1 18.5t3 19.5q4 17 14 31.5t24 26.5
q4 3 7.5 6t7.5 5z" />
    <glyph glyph-name="numbersign" unicode="#" horiz-adv-x="502" 
d="M186 538q1 1 6.5 3.5t11 4.5t10 2t3.5 -6q-6 -36 -12 -71.5t-9 -71.5q-2 -37 -3 -74t-1 -74q-1 -38 -1 -75t-2 -75q-2 -18 -3 -36.5t-3 -36.5q-2 -9 -2.5 -17.5t-2.5 -17.5q-1 -5 -1.5 -9.5t-1.5 -9.5q0 -1 -1 -5t-2 -6q0 -2 -0.5 -2.5t0.5 2.5q0 -3 -2 -7
q-8 -18 -24 -32.5t-33 -24.5q-1 0 -6.5 -3t-11.5 -5.5t-10.5 -2t-3.5 6.5q15 70 16.5 144.5t2.5 146.5q1 75 5 150.5t27 147.5q3 8 9.5 15t11.5 12q8 8 16 15t17 12zM406 304q-2 -22 -3 -44t-3 -44q-1 -5 -1 -9t-1 -8q11 2 20.5 4.5t20.5 5.5q9 3 11 -0.5t-0.5 -9.5
t-6.5 -12l-6 -9q-9 -11 -21 -22t-26 -19q-2 -18 -4 -36.5t-3 -37.5q-1 -14 -2 -28.5t-4 -28.5q-2 -15 -7 -26q-4 -8 -6 -11q-7 -9 -7.5 -10t5.5 7q-2 -2 -4 -4.5t-4 -4.5q-5 -7 -11 -12.5t-12 -11.5q-17 -15 -34 -23q-2 -2 -9 -4.5t-11 1.5q-3 4 -0.5 10t7.5 12q0 2 1 4
q1 6 2 12.5t1 13.5q2 13 2.5 26t1.5 26q1 18 3.5 35.5t5.5 35.5l3 30q-32 -7 -65.5 -9t-66.5 2q-20 2 -39.5 6t-39.5 6q-5 1 -9.5 1h-9.5h-8q-1 0 -4.5 -0.5t0.5 0.5q-1 -1 -4 -1q-15 -12 -32 -18q-9 -2 -10.5 1t0 8t5.5 10.5t6 8.5q-5 -6 -4 -5t7 9q2 3 5 6l6 6
q6 6 12.5 11.5t13.5 11.5q16 13 32 20q11 5 23 8.5t24 4.5q20 2 40 -1l40 -6q43 -7 85 -6q2 28 3.5 55t3.5 55q-40 2 -79 8t-78 3q-18 -2 -36 -4.5t-36 -4.5h-4h-1q-2 -1 -4.5 -1t-4.5 -1h-1q-4 -3 -7.5 -6t-6.5 -5q-1 -1 -7 -5t-13.5 -7.5t-13 -4t-4.5 5.5v2v3q-1 2 1 7
q5 10 11.5 18.5t14.5 15.5q19 19 42 33q12 7 24 12.5t26 8.5q11 2 22.5 4t22.5 3q5 1 9.5 1.5t9.5 0.5q2 1 6 1h1q29 5 56.5 5t55.5 -2q2 27 6 53.5t12 52.5q5 17 18 30t26 23q1 0 8 4.5t15 8t14 4.5t5 -6q-14 -83 -18 -168q0 -6 -1 -10q15 -1 30 -0.5t30 2.5q6 0 5.5 -5.5
t-2.5 -8.5q-4 -8 -10 -15l-12 -14q-18 -18 -36 -29q-2 -2 -4 -2.5t-4 -2.5zM49 114q-3 -2 -2.5 -2.5t5.5 4.5v-1q-2 0 -3 -1z" />
    <glyph glyph-name="dollar" unicode="$" horiz-adv-x="490" 
d="M322 369q2 -1 1.5 -4t-2 -6.5t-3.5 -6.5l-2 -3q-12 -18 -29 -32q-8 -7 -17 -13t-18 -11q-5 -3 -10.5 -4.5t-10.5 1.5q-22 12 -39 30t-40 29q-17 8 -38.5 17t-31.5 27q-11 19 -12 40.5t2 43t7 43.5t4 42q0 10 9 20t15 16q8 8 16.5 15.5t18.5 12.5l21 12q1 1 5 3l6 12
q8 14 21.5 25.5t26.5 19.5q6 3 14 7.5t15 0.5q4 -2 2.5 -7t-1.5 -7q0 -6 -4.5 -11.5t-7.5 -10.5l-8 -8q-19 -25 -42 -44q-4 -4 -8 -7l-8 -6q-2 -29 -9 -58.5t0 -59.5q8 -23 26 -34q11 -7 22 -11.5t22 -9.5q26 -11 44 -28q11 -10 21 -19t22 -16zM433 667q15 5 10 -11
q-4 -10 -12 -19t-16 -17q-11 -11 -25 -22t-29 -18q-11 -5 -23 -7.5t-24 0.5q-18 5 -36.5 14.5t-26.5 26.5q-2 5 0.5 10l4.5 9q5 8 11.5 14.5t14.5 13.5q8 6 15.5 11.5t15.5 9.5q4 2 7.5 3t7.5 2q14 -6 27 -14.5t27 -14.5q12 -5 24 -5q7 5 13.5 8.5t13.5 5.5zM461 114
q0 -2 -1 -3q3 -3 0 -9.5t-7.5 -13t-9 -11.5t-5.5 -6q-11 -11 -24.5 -21.5t-28.5 -15.5q-3 -1 -7 -2.5t-5 -1.5q-8 -2 -11 -4q-1 0 -2.5 -0.5t-2.5 -0.5q-5 -4 -11 -5q1 -4 1 -11l3 -33q0 -9 -7 -12q-20 -8 -36 -25.5t-29 -34.5q-6 -9 -15.5 -3.5t-5.5 15.5q1 2 3 8
q-8 -7 -19 -13q-5 -4 -12.5 -8t-14.5 0q-1 0 -2 1q-1 -1 -3 -1q-7 0 -11.5 6.5t-6.5 12.5l-3 12v4q-16 18 -29 39t-26.5 41t-30 37.5t-38.5 28.5q-12 4 -29 4q0 -2 -2 -2q-1 -1 -7.5 -5.5t-13.5 -7.5t-13 -3.5t-6 5.5v2q1 -3 0 2q0 5 2.5 9t4.5 8q8 14 20.5 25t24.5 20
q15 11 31 18.5t35 9.5q41 4 74 -27q20 -19 35 -42.5t31 -46.5q-2 18 -4.5 36t-4.5 35q-5 45 -7 88t-4 87t-3 87t1 87q0 20 0.5 41t-1.5 41q-2 19 -1 34t12 31q1 0 1 1q11 14 24.5 26.5t30.5 20.5q2 1 5.5 2.5t6.5 1.5q-14 8 -29 12t-30 -2q-5 -2 -9 0t-6 5q-5 -3 -10 -2
t-7 9q-1 8 0 16l2 16q1 3 1 7.5t2 6.5q3 4 6.5 6.5t6.5 5.5q14 11 28 20.5t27 22.5q6 5 12.5 1.5t8.5 -10.5q3 -13 4 -26t1 -26q0 -7 -0.5 -15.5t-2.5 -16.5q22 -9 40 -25q5 -5 5 -10.5t-3 -10t-8.5 -6t-11.5 3.5q-9 7 -21 15q1 -3 -1 -7q0 -3 -0.5 -6t-0.5 -6v-14
q1 -8 1.5 -14.5t1.5 -13.5q1 -42 0 -84q-1 -26 -0.5 -53t1.5 -54q12 -2 24 -4.5t24 -6.5t26 -8t24 -13q1 0 1 -0.5t1 -0.5q1 -1 1.5 -1t1.5 -1h-1q1 0 1.5 -0.5t2.5 -0.5q4 -11 4.5 -22t2.5 -22q2 -14 4 -27.5t4 -27.5q7 -36 13 -72t10 -72q5 -12 2 -24zM337 316
q-2 9 13.5 25t32.5 28q-2 1 -2.5 1t-2.5 1q-14 5 -26 10q-21 6 -36 16q0 -11 0.5 -21t0.5 -21q2 -42 5 -84.5t8 -84.5q2 -20 4.5 -39t4.5 -39q1 -12 1 -24v-24q14 9 26 16q-4 36 -10 71.5t-12 70.5q-2 14 -3.5 28.5t-3.5 28.5q-1 11 -1.5 20.5t1.5 19.5v1zM385 34q2 1 2.5 1
t-4.5 -2q1 1 2 1z" />
    <glyph glyph-name="ampersand" unicode="&#x26;" horiz-adv-x="520" 
d="M475 517q7 4 15 4t3 -12q-6 -16 -20.5 -29t-27.5 -24q-9 -6 -19.5 -12.5t-21.5 -8.5q-21 -5 -39 1l-24 9q-7 -42 -5.5 -84.5t2.5 -84.5q1 -21 0 -42.5t0 -42.5q1 -19 2.5 -39.5t9.5 -37.5q8 -15 19.5 -27.5t27.5 -19.5q12 -5 22 -5q10 8 20.5 15t21.5 10q13 4 11 -5
t-6 -15q-19 -26 -44.5 -49t-56.5 -33q-26 -8 -55 3q-20 9 -33 24.5t-19 35.5q-4 -2 -5 -4q-3 -2 -9 -8q-1 0 -3 -2q-8 -8 -15.5 -15t-15.5 -15q-10 -11 -21.5 -20t-25.5 -16q-3 -2 -9.5 -4.5t-11.5 1.5q-17 17 -35 33t-37 31q-10 8 -19.5 17t-14.5 22q-5 17 -7 35.5t-3 35.5
q-3 51 -3 100q0 19 -0.5 38.5t4.5 38.5t13.5 35t20.5 31t26 28t28 25q-3 2 -6 2.5t-5 1.5q-6 0 -6 6q0 25 -1 49.5t0 48.5q1 20 2.5 39t10.5 36q13 24 32.5 43t41.5 36q1 1 1.5 1t1.5 1q1 2 1.5 2.5t-0.5 -1.5h1q8 14 19.5 26t24.5 22q3 2 8.5 6t11.5 7.5t12 5t11 -1.5
q21 -15 47 -18q7 -1 13 -1.5t13 0.5h12q4 1 3 1q9 1 5 0q8 2 9.5 -1t-0.5 -8t-5.5 -10.5t-5.5 -7.5q-11 -14 -26.5 -26.5t-32.5 -18.5q4 1 -2.5 -1t-7.5 -3q-2 -1 -3.5 -1t-3.5 -1l-18 -3q-15 -2 -30 0q-17 3 -34 9l-15 -12l-1 -1v-2q-1 -2 -1 -4.5t-1 -4.5q-1 -11 -1 -21.5
v-21.5q-1 -22 0 -44t1 -45q18 -5 36.5 -11t36.5 -13q10 -5 20 -8.5t20 -8.5q10 9 20.5 17.5t21.5 13.5q4 2 7 4.5t6 4.5q-9 -6 -8.5 -6t11.5 8q9 6 19 9q7 3 17 3q15 -2 30 -8q8 -2 16.5 -5t17.5 -4h8q1 1 2 1t3 1zM158 109q11 -8 22 -17l22 -18q-1 20 0 41t2 41q1 29 2 57
t1 57t0.5 58t2.5 58q0 3 0.5 6.5t0.5 7.5q-4 2 -14 6q-11 5 -22.5 9t-22.5 8q-2 -2 -4.5 -2.5t-4.5 -2.5q-1 -1 -5 -3l-5 -5t-6 -5v-1h-1q0 -1 -1 -1q0 -3 -2 -5q-1 -2 -3 -8q0 -1 -0.5 -1.5t-0.5 -2.5q-1 -2 -1 -4.5t-1 -4.5q-2 -14 -2 -26.5v-26.5q0 -17 0.5 -33t0.5 -33
q1 -27 2.5 -54.5t7.5 -54.5q4 -13 12.5 -22.5t19.5 -17.5zM246 227q-1 22 -1.5 43.5t0.5 43.5q1 17 2.5 35t4.5 35q-3 1 -6 1t-7 2q-3 2 -5.5 3t-5.5 2q-2 -29 -2 -57.5v-57.5q0 -30 -0.5 -60t-1.5 -60q-1 -24 -0.5 -48t-0.5 -47q8 6 11 9q4 3 8 6.5t8 6.5q-5 35 -3.5 71
t-0.5 72z" />
    <glyph glyph-name="quotesingle" unicode="'" horiz-adv-x="170" 
d="M100 650q1 0 7 4t12.5 7.5t12 4t5.5 -5.5q0 -3 -1 -4q0 -5 -0.5 -10t-1.5 -10q0 -8 -0.5 -16.5t0.5 -17.5v-34q0 -10 -1.5 -17.5t-7.5 -16.5q-14 -22 -39 -38q-7 -7 -21 -14q-10 -4 -15 -4q-5 2 -6 4.5t-1 7.5v13v39q0 21 4 38t14 31.5t24 26.5l15 12v0z" />
    <glyph glyph-name="parenleft" unicode="(" horiz-adv-x="269" 
d="M244 -95q9 3 10.5 -0.5t-0.5 -9t-6 -11.5l-6 -9q-12 -14 -28 -27.5t-34 -19.5q-14 -4 -27 -3t-24 11t-17.5 22t-11.5 25q-14 32 -21 66t-12 69q-3 23 -4.5 47t-3.5 47q-2 51 -3.5 102t0.5 102q1 26 2 51t3 51q2 22 4.5 43.5t8.5 43.5q7 23 15.5 43.5t21.5 40.5
q7 11 14.5 20.5t15.5 19.5q2 2 3 3.5t3 3.5t4 5t-3 -5q1 3 5 7v1q2 7 8 13.5t11 11.5q7 8 15 14t16 11q1 0 6 3t10.5 5t9.5 1.5t3 -5.5q-1 -2 -1 -2.5t-1 -2.5q1 -2 -1 -7q-7 -13 -15.5 -24t-17.5 -22q0 -1 -1 -2v-1q-2 -2 -4 -5l-4 -6q0 -1 -1 -2l-2 -4q-2 -2 -2.5 -4.5
t-2.5 -4.5q-10 -23 -15.5 -45t-8.5 -47q-7 -59 -8.5 -118t0.5 -119q2 -62 5.5 -124t15.5 -123q5 -24 11.5 -48t18.5 -47q5 -8 11 -16t14 -13q2 -2 6 -4q-1 0 1.5 -0.5t4.5 -1.5h7v-1q1 1 2 1zM243 -96q4 -2 1 0h-1z" />
    <glyph glyph-name="parenright" unicode=")" horiz-adv-x="243" 
d="M157 677q23 -94 26 -190.5t-2 -193.5q-2 -45 -4.5 -90.5t-6.5 -90.5q-2 -20 -5.5 -40t-11.5 -39q-11 -28 -29 -50.5t-39 -42.5q-8 -7 -17 -13t-18 -11q-3 -2 -10 -4.5t-11 1.5q-3 4 0.5 11t5.5 9q9 13 20 23v1q1 1 2.5 3.5t0.5 1.5q2 2 2 4q15 34 17.5 74.5t4.5 78.5
q4 49 6.5 97.5t3.5 97.5t-0.5 97t-7.5 96q-3 24 -7 47.5t-9 46.5l-6 24t-7 24l-6 21q-8 3 -11.5 9.5t-8.5 12.5q-9 10 -17 14q-6 2 -8 4l-2 2q-3 2 -1 7t6.5 11t9 11t5.5 6q9 9 19 17t21 14q3 1 5.5 2t5.5 2q-4 -2 -3 -1.5t9 3.5q6 3 14 1q10 -3 17 -9q5 -3 8 -8q7 2 8 -1
l10 -22t9 -23l12 -45v0z" />
    <glyph glyph-name="asterisk" unicode="*" horiz-adv-x="460" 
d="M398 392q4 -4 0 -10.5t-6 -8.5q-5 -9 -12.5 -16.5t-15.5 -14.5q-10 -8 -23 -18t-27 -10q-11 -1 -24 6.5t-22 15.5q-17 13 -33 32q-4 -11 -14 -20.5t-17 -15.5q-17 -15 -34 -23q-2 -2 -9 -4.5t-10 1.5q3 2 -4 3q0 1 -0.5 1.5t-0.5 1.5q-1 3 -1.5 5.5t-1.5 5.5q-1 7 0 16
q1 11 4 21t7 20q2 5 4.5 10.5t4.5 10.5l-15 -6q-6 -3 -12 -5.5t-12 -4.5q-8 -8 -16.5 -14.5t-16.5 -11.5q-5 -3 -12.5 -7t-14.5 -3q-6 0 -5.5 4.5t2.5 8.5q9 20 24 35t32 28q15 12 33 21q-14 11 -27 22t-24 24q-6 7 -11.5 14.5t-9.5 15.5q-4 9 -5 17q0 8 3 14t8 12
q8 10 16.5 18t18.5 16q5 4 15 11t18 5h3q5 -2 5 -6v-1q0 -1 1 -2q1 -2 1 -2.5t1 -2.5l9 -12q12 -15 24 -26l12 -12q1 2 1 6q2 5 2.5 10t2.5 10t5 10t7 10q1 1 1.5 2t1.5 2q23 29 52 44q3 2 9 4t9 -1q2 -2 0 -8q1 -5 0 -11t-2 -11q-1 -9 -1 -18t-1 -18q-2 -16 -4.5 -30.5
t-7.5 -28.5q3 3 4 3q8 6 11 8q1 2 4 4t5 4l1 1l1 2h1v1q2 2 3 4t1.5 2t-1.5 -2q19 32 54 53l8 4t12 4.5t9 -0.5t-1 -10q-14 -27 -34 -49.5t-43 -41.5l-30 -24q8 -7 16 -15l16 -16q14 -17 29.5 -32t35.5 -24q4 -2 7.5 -3t5.5 -4z" />
    <glyph glyph-name="plus" unicode="+" horiz-adv-x="514" 
d="M466 392q6 -1 4 -7t-6.5 -13t-10 -13t-6.5 -7q-11 -11 -24 -21t-28 -15q3 1 2 0.5t-4 -1.5t-6.5 -2.5t-4.5 -1.5q-2 -1 -4 -1t-4 -1q-5 -2 -9.5 -3t-9.5 -3q-11 -3 -22.5 -5t-22.5 -1h-7q-1 -14 -1.5 -28t-1.5 -28v-2q0 2 0.5 -1t1.5 -4v-2q-1 -7 -5.5 -13.5t-9.5 -11.5
q-7 -9 -15.5 -16.5t-17.5 -14.5q-2 -2 -8 -6t-13 -8t-13 -5.5t-9 2.5q-5 7 -3.5 19t1.5 20q1 10 1.5 20t0.5 20q1 17 1 35v35h-2q-20 3 -40.5 6t-40.5 4q-10 0 -16 -0.5t-14 -2.5q-12 -8 -23 -14q-4 -3 -14 -5q-1 1 -3 1q-7 -2 -10 1l-2 2q-5 5 2.5 15.5t10.5 13.5
q9 11 20 21t24 18q22 13 46 21.5t50 10.5h12v2q-1 10 -1 19v19q1 11 1 21.5t5 20.5q7 13 18 24t23 20q5 3 16 11t18 5l2 -1q5 0 5 -6q4 -36 4 -72.5v-72.5q38 -6 74 -9q11 -2 21.5 -1.5t21.5 3.5q9 2 17.5 5t17.5 5q5 3 11 -1zM136 372q-4 2 -2 -2z" />
    <glyph glyph-name="Zcaron" unicode="&#x17d;" horiz-adv-x="406" 
d="M62 726q-1 1 -2.5 4t1.5 -2q-1 2 -1 6q0 5 2 8.5t4 7.5q5 8 12 15t15 14l16 12t17 10q4 3 13 5l-2 -1q1 0 1.5 0.5t2.5 0.5h1h5q3 -1 5.5 -2t5.5 -3q5 -3 10.5 -5.5t10.5 -5.5q14 -8 27.5 -16t26.5 -17q9 -5 20 -13q6 4 10 8q7 4 8 7q2 1 3.5 2t3.5 3q12 15 30 28
q2 1 8 5.5t12.5 8t12 3.5t6.5 -6q1 -2 -1 -5q-1 -7 -6 -13.5t-9 -11.5t-7.5 -9t-8.5 -8q-9 -8 -17.5 -15.5t-17.5 -15.5q-2 -1 -6 -5q2 -4 3 -7q-1 4 0 0.5t1 -5.5q1 -5 -2 -13q-2 -7 -6 -11q-6 -8 -6.5 -9t5.5 7q-3 -3 -7 -9q-10 -11 -21 -21l-5.5 -4.5t-10 -8t-5.5 -4
t8 6.5q-1 -1 -7 -5t-13 -7.5t-12.5 -4t-5.5 5.5q0 3 2 7q0 3 -2 3q-3 4 -6 7.5t-7 6.5q-10 9 -21 16.5t-23 14.5q-11 7 -23.5 13.5t-24.5 13.5l-18 9q-2 2 -3 2t-2 2zM139 806h3h-1h-2zM256 227q17 -23 42 -41t50 -29q28 -14 60 -23q-9 -2 -19 -7.5t-19 -23.5t-15.5 -53
t-7.5 -95q-2 -61 -10 -96.5t-19 -54.5q-12 -22 -27 -31l-184 -166q29 35 53 75.5t41.5 82t27.5 81t10 72.5t3 62t6.5 50.5t6.5 34t3 13.5q-30 23 -60 30.5t-55 8.5q-29 1 -56 -5q19 23 39.5 55.5t39.5 68t35.5 69.5t29.5 61.5t20.5 44.5t7.5 18q-28 30 -53 41.5t-44 13.5
q-6 -17 -5.5 -28t3 -20.5t5.5 -19.5t3 -25l-109 -99q0 32 -5 50.5t-12 28.5q-8 11 -17 14q62 58 111 104l112 104q14 -27 40.5 -47t53.5 -34q32 -16 67 -27q-5 -1 -13.5 -12.5t-20 -30t-25 -41.5t-26.5 -47q-31 -56 -68 -127zM60 293q-14 37 -32 65q-16 24 -39 43.5
t-53 18.5q1 0 16 9.5t38.5 10.5t53 -17t59.5 -73z" />
    <glyph glyph-name="zcaron" unicode="&#x17e;" horiz-adv-x="406" 
d="M69 689q-1 1 -2.5 4t1.5 -2q-1 2 -1 6q0 5 2 8.5t4 7.5q5 8 12 15t15 14l16 12t17 10q4 3 13 5l-2 -1q1 0 1.5 0.5t2.5 0.5h1h5q3 -1 5.5 -2t5.5 -3q5 -3 10.5 -5.5t10.5 -5.5q14 -8 27.5 -16t26.5 -17q9 -5 20 -13q6 4 10 8q7 4 8 7q2 1 3.5 2t3.5 3q12 15 30 28
q2 1 8 5.5t12.5 8t12 3.5t6.5 -6q1 -2 -1 -5q-1 -7 -6 -13.5t-9 -11.5t-7.5 -9t-8.5 -8q-9 -8 -17.5 -15.5t-17.5 -15.5q-2 -1 -6 -5q2 -4 3 -7q-1 4 0 0.5t1 -5.5q1 -5 -2 -13q-2 -7 -6 -11q-6 -8 -6.5 -9t5.5 7q-3 -3 -7 -9q-10 -11 -21 -21l-5.5 -4.5t-10 -8t-5.5 -4
t8 6.5q-1 -1 -7 -5t-13 -7.5t-12.5 -4t-5.5 5.5q0 3 2 7q0 3 -2 3q-3 4 -6 7.5t-7 6.5q-10 9 -21 16.5t-23 14.5q-11 7 -23.5 13.5t-24.5 13.5l-18 9q-2 2 -3 2t-2 2zM146 769h3h-1h-2zM256 227q17 -23 42 -41t50 -29q28 -14 60 -23q-9 -2 -19 -7.5t-19 -23.5t-15.5 -53
t-7.5 -95q-2 -61 -10 -96.5t-19 -54.5q-12 -22 -27 -31l-184 -166q29 35 53 75.5t41.5 82t27.5 81t10 72.5t3 62t6.5 50.5t6.5 34t3 13.5q-30 23 -60 30.5t-55 8.5q-29 1 -56 -5q19 23 39.5 55.5t39.5 68t35.5 69.5t29.5 61.5t20.5 44.5t7.5 18q-28 30 -53 41.5t-44 13.5
q-6 -17 -5.5 -28t3 -20.5t5.5 -19.5t3 -25l-109 -99q0 32 -9 48t-20 23q-13 7 -30 6l124 112l124 112q14 -27 40.5 -47t53.5 -34q32 -16 67 -27q-5 -1 -13.5 -12.5t-20 -30t-25 -41.5t-26.5 -47q-31 -56 -68 -127z" />
    <glyph glyph-name="at" unicode="@" horiz-adv-x="767" 
d="M694 550q15 -33 23 -68.5t7.5 -71.5t-11 -70.5t-32.5 -64.5q-15 -20 -35 -40.5t-44 -35.5t-50.5 -22t-54.5 1q-16 5 -33 13.5t-27 22.5q-3 5 -5.5 9t-4.5 9q-1 -5 -6 -12.5t-11 -14t-12 -12t-7 -6.5q-17 -15 -34 -23q-8 -5 -16 -5q-3 2 -5.5 2t-5.5 2l-6 3q-5 2 -8.5 4.5
t-7.5 4.5l-16 10l-16 10q-14 9 -28 19.5t-22 24.5q-10 17 -11 38t0 40q2 21 3 42t-3 42q-1 6 5.5 14t9.5 11q8 11 21 22q9 8 20.5 16t23.5 12q3 0 7 2q2 0 4 2q1 0 5 2q3 4 6 7l6 6q13 15 29 25q8 6 15.5 11.5t15.5 9.5q5 2 10 3.5t10 -0.5l1 -1v-1q1 0 3 -2q4 -4 6 -7
q3 -3 6 -7t6 -7q8 -9 18 -15.5t19 -13.5q11 -8 22.5 -15t20.5 -18q7 -8 9 -17.5t2 -19.5q0 -23 -3.5 -46.5t-13.5 -43.5q5 -9 10 -16t10 -15q8 -12 19 -20t24 -14q19 -8 39 -8h11h2q2 4 3 7t3 7q2 6 3 10q1 1 1 2q1 1 1 4q2 5 2.5 9t1.5 9q3 19 3 38q0 37 -9 75
q-11 38 -29.5 73t-45.5 64q-14 15 -29.5 27t-31.5 24q-18 13 -36 25t-38 21q-12 5 -24.5 7.5t-25.5 2.5q-11 1 -20.5 -0.5t-20.5 -3.5q-5 -1 -10.5 -2t-10.5 -3q-2 -2 -5 -2.5t-5 -1.5q-2 0 -4 -1q-4 -2 -3 -1q-5 -2 -10.5 -5t-10.5 -5q-6 -4 -10 -5q0 -1 -2 -1l-18 -12
l-1 -1q-3 -1 -7 -5q-2 -2 -7 -5.5t-7 -5.5t-4 -4.5t-3 -2.5q-4 -4 -5 -6q-1 -1 -1 -1.5t-1 -1.5q-2 -2 -2.5 -3.5t-2.5 -3.5l-9 -15q-1 -1 -1 -2q-1 -2 -2 -3.5t-2 -3.5q-2 -5 -4 -8.5t-4 -7.5q-15 -34 -23 -68t-10 -72q-3 -35 -1.5 -71.5t10.5 -70.5q9 -32 25 -62.5t38 -57
t49 -48t57 -34.5q32 -13 66.5 -12.5t66.5 12.5l1 1h1q2 1 4.5 2t4.5 2q4 2 7.5 3.5t6.5 3.5l2 1q1 0 1 1q2 2 4.5 2.5t4.5 2.5q3 2 6.5 4.5t6.5 4.5q4 2 7 5q7 4 13 10q8 5 15 10.5t15 11.5q1 1 8.5 5.5t15.5 8.5t14.5 4.5t6.5 -6.5q-1 -7 -5.5 -13.5t-9.5 -11.5
q-8 -9 -16 -17t-18 -15q-22 -17 -45 -34t-48 -32t-51 -27t-54 -17q-25 -5 -51 -5t-51 8q-43 14 -81 46q-29 25 -53 56.5t-40 66.5q-15 33 -21 69t-7 72q-2 80 21 156.5t74 138.5q35 42 79.5 76t92.5 59q19 10 41 19t44.5 14t45.5 4.5t45 -7.5q19 -6 35.5 -15.5t33.5 -20.5
q15 -11 31 -21.5t30 -22.5q26 -22 45.5 -49.5t33.5 -58.5zM414 285q0 1 0.5 1.5t0.5 1.5q1 3 1.5 5.5t0.5 5.5q2 7 2.5 13t1.5 13q1 10 1.5 20.5t-1.5 21.5q-4 9 -11 15.5t-15 12.5q-10 8 -20.5 15t-21.5 15q-15 12 -25 26q0 1 -1 1q-4 -3 -7.5 -6t-8.5 -6q1 -27 -2 -54.5
t2 -53.5q6 -18 19.5 -30t28.5 -23q17 -11 37 -23q1 -1 2 -1q2 2 3 4h1l3 6l2 2q1 2 1 2.5t1 2.5q2 3 2.5 5.5t2.5 5.5v2z" />
    <glyph glyph-name="less" unicode="&#x3c;" horiz-adv-x="362" 
d="M310 193q3 -5 0 -10.5t-5 -8.5q-6 -9 -13 -16.5t-15 -14.5q-15 -14 -34 -23q-4 -2 -10 -4.5t-10 1.5q-11 11 -21 22.5t-21 22.5q-11 12 -21 23t-21 22q-22 22 -44 43.5t-43 44.5q-3 3 -0.5 9t7 12t9 11t6.5 7q12 12 25.5 22.5t29.5 15.5l4 2q2 1 3.5 1.5t3.5 1.5
q5 2 10.5 4.5t10.5 5.5q2 2 4 2q4 2 7 4l6 4q4 2 7 4.5t7 4.5q1 1 3.5 2.5t4.5 2.5q2 2 3 2.5t3 2.5q2 1 4.5 3t4.5 4t3 2v1h1q0 1 1 1q0 1 0.5 1.5t0.5 1.5l2 4t1 4q2 7 8.5 14t11.5 12q15 15 32 26q1 1 6 3.5t10.5 4.5t9 1.5t3.5 -5.5q-1 -20 -14.5 -37t-26.5 -30
q-16 -17 -33.5 -32t-36.5 -29l-14 -10t-15 -10q16 -15 31.5 -30t31.5 -31q11 -11 21.5 -22t21.5 -22q11 -12 21 -23t18 -25z" />
    <glyph glyph-name="equal" unicode="=" horiz-adv-x="502" 
d="M435 299q3 -4 -0.5 -11t-5.5 -9q-12 -18 -29 -32q-26 -22 -55.5 -36.5t-64.5 -12.5q-23 1 -46 6.5t-46 10.5q-18 5 -36 7t-37 0q-3 -1 -8 -1q-2 -1 -4 -1h-1q-4 -1 -8 -1.5t-9 -1.5l-3 -3q-2 -2 -8 -6t-12.5 -7t-12 -3.5t-6.5 5.5q-2 5 1 10.5t6 10.5q8 12 19.5 22.5
t22.5 19.5q13 10 27 17.5t30 11.5q18 5 37 8.5t38 2.5q26 -2 50.5 -8.5t49.5 -11.5q12 -2 24.5 -4t25.5 -1h8h2q6 2 10 3q5 3 10 6.5t10 5.5q3 2 10 4.5t11 -1.5zM445 429q3 -4 -0.5 -11t-5.5 -9q-12 -18 -29 -32q-26 -22 -55.5 -36.5t-64.5 -12.5q-23 1 -46 6.5t-46 10.5
q-18 5 -36 7t-37 0q-3 -1 -8 -1q-2 -1 -4 -1h-1q-4 -1 -8 -1.5t-9 -1.5l-3 -3q-2 -2 -8 -6t-12.5 -7t-12 -3.5t-6.5 5.5q-2 5 1 10.5t6 10.5q8 12 19.5 22.5t22.5 19.5q13 10 27 17.5t30 11.5q18 5 37 8.5t38 2.5q26 -2 50.5 -8.5t49.5 -11.5q12 -2 24.5 -4t25.5 -1h8h2
q6 2 10 3q5 3 10 6.5t10 5.5q3 2 10 4.5t11 -1.5z" />
    <glyph glyph-name="greater" unicode="&#x3e;" horiz-adv-x="370" 
d="M321 394q3 -2 2 -6.5t-4 -9.5t-6.5 -9t-4.5 -5q-15 -18 -34 -31q-1 -2 -3.5 -3.5t-4.5 -3.5t-3 -2.5t-3 -2.5q-6 -5 -11.5 -10t-11.5 -10l-48 -45q-29 -26 -60 -48q-8 -5 -16 -10.5t-17 -10.5q-5 -3 -10.5 -6.5t-10.5 -5.5q-3 -2 -6 -2.5t-6 -2.5q-6 -1 -7 -1t3 0
q-4 -1 -8.5 -0.5t-3.5 6.5t5 12t8 11q24 29 54 43q0 1 1 1q3 2 11 6q0 1 2 1q0 1 1 1q2 1 7 4.5t3 2.5q2 1 2.5 1.5t2.5 1.5t4.5 3.5t4.5 3.5q3 3 5 4q5 5 11 10.5t12 10.5q9 8 18 16.5t18 17.5q-23 15 -49 26t-51 25q-14 8 -25.5 16t-22.5 19q-5 5 -10 10.5t-10 10.5
q-2 3 -4 5.5t-4 5.5q-2 2 -2 3.5t-2 3.5q-3 4 0 10t5 9q5 8 12 15t14 13q8 6 15.5 11.5t16.5 10.5q4 2 9.5 4t9.5 -1q2 -2 4.5 -3t4.5 -3q3 -2 5.5 -5t5.5 -5q5 -5 10.5 -10t10.5 -10q22 -21 50 -34q28 -14 56.5 -27t54.5 -32z" />
    <glyph glyph-name="question" unicode="?" horiz-adv-x="455" 
d="M371 596q19 -27 32 -60t8 -68q-8 -39 -33 -72q-18 -25 -40 -46t-46 -39q-18 -14 -38.5 -26.5t-42.5 -22t-44.5 -15t-46.5 -4.5q-6 0 -5.5 5t2.5 9l1 2q2 8 9 15.5t12 12.5t10.5 10t12.5 10q5 4 16 11.5t19 6.5q5 1 9.5 1h9.5q6 1 7.5 1t6.5 1t10.5 2t10.5 3q6 2 8 3
q1 1 2 1h1q5 2 10 5t10 5h1q6 4 8 6q1 0 3 2l4 2l1 1q0 1 0.5 1t0.5 1q2 0 2 2l2 2q1 2 3.5 6t0.5 0q2 4 2 5l2 4t1 4q1 0 1.5 3t0.5 2q7 28 -1 59q-11 40 -36.5 73.5t-54.5 62.5q-14 14 -28.5 25.5t-28.5 24.5q-12 10 -24 20.5t-26 18.5q-11 -14 -22 -25q-5 -5 -11 -10.5
t-12 -10.5q-2 -2 -2 -3l-2 -2l-1 -1q-2 -10 3 -15q4 -4 0.5 -10t-5.5 -8q-5 -8 -11.5 -15t-13.5 -13q-8 -7 -15.5 -12.5t-16.5 -9.5q-3 -2 -8.5 -4t-9.5 1l-7 7t-3 10q0 11 5 21q8 16 19 29.5t24 25.5q5 6 11 11t11 10q7 8 13 15.5t13 15.5q16 18 33.5 35t38.5 30
q8 5 17 9.5t19 4.5q5 0 9.5 -2t9.5 -4q20 -10 37.5 -25.5t34.5 -29.5q27 -22 52 -47t45 -54zM200 76q3 -3 0.5 -9t-7 -12.5t-9.5 -11.5l-7 -7q-11 -11 -25.5 -22.5t-30.5 -15.5q-11 -3 -17 5t-13 15q-5 6 -11 12t-12 13q-3 3 -6 6.5t-5 7.5q-4 6 -4 10q1 2 1 5q0 4 3 9t7 9
q7 11 16 19.5t19 16.5q5 4 15.5 11t18.5 5h2q4 1 9 -2q9 -11 19 -22l20 -22q2 -3 5 -6t5 -6q2 -1 3 -3t2 -3z" />
    <glyph glyph-name="bracketleft" unicode="[" horiz-adv-x="262" 
d="M239 -30q7 -2 5.5 -8.5t-6 -13t-10 -13t-7.5 -8.5q-8 -8 -17 -15t-19 -13q-4 -3 -13 -8t-14 -3q-28 9 -55.5 18.5t-55.5 17.5q-5 1 -10 2.5t-8 5.5q-4 5 -5 11t-2 11q-4 22 -2 43.5t3 43.5q0 26 0.5 51.5t1.5 51.5t0.5 51t-1.5 51q-2 51 -0.5 100t-0.5 99q-1 22 -2.5 45
t-2 45.5t1 45t6.5 44.5q3 14 13.5 25.5t21.5 20.5t23 17.5t26 10.5h1q2 1 2.5 1t2.5 1q4 1 7 1.5t7 1.5l36 12q21 6 38 13q6 2 13.5 5.5t15.5 5.5q1 0 1.5 0.5t1.5 0.5t2 1q4 2 9 4t10 -1q4 -3 0.5 -10t-10.5 -15t-13.5 -14.5t-8.5 -7.5q-5 -4 -9.5 -7.5t-9.5 -7.5
q-9 -7 -22 -13q-3 -2 -5.5 -3t7.5 5q-6 -5 -13 -7.5t-14 -5.5l-48 -18q-1 -27 0.5 -54.5t2.5 -54.5q2 -44 1.5 -87.5t0.5 -87.5q0 -24 1 -47.5t2 -47.5q0 -23 -0.5 -45t-1.5 -45q-1 -22 -1 -44t-2 -44q-2 -17 -2 -33t3 -33q4 -9 9 -11q10 -4 20 -6t20 -6q18 -6 36.5 -11
t35.5 -13q-2 0 -4 2q2 -1 3.5 -1.5t3.5 -1.5z" />
    <glyph glyph-name="backslash" unicode="\" horiz-adv-x="485" 
d="M487 -2q2 -8 -5 -19q-13 -18 -27 -29q-2 -1 -9.5 -7t-16.5 -11.5t-16.5 -9t-9.5 1.5q-7 16 -12.5 31.5t-13.5 29.5q-8 15 -15.5 30t-15.5 29q-24 43 -49 84t-49 84q-24 42 -45.5 85.5t-41.5 88.5t-40 88t-46 85q-13 20 -25.5 40t-23.5 42q-9 16 -16 38q-2 8 -5.5 16.5
t-8.5 14.5q-3 4 0 10t5 8q5 8 11.5 14.5t13.5 12.5t14.5 11.5t16.5 9.5q2 2 8 4t10 -1q9 -10 12.5 -22.5t8.5 -24.5q6 -14 14 -27.5t16 -26.5q12 -20 25 -40t25 -41t22.5 -42.5t21.5 -43.5q20 -45 40 -88.5t43 -87.5q23 -43 47.5 -84t49.5 -83t48.5 -83.5t38.5 -86.5z" />
    <glyph glyph-name="bracketright" unicode="]" horiz-adv-x="231" 
d="M187 79q1 -17 2.5 -33.5t-0.5 -32.5q-2 -14 -8 -24t-15 -20q-25 -29 -59 -51q-1 -1 -2 -1q-4 -5 -8 -9.5t-8 -8.5q-18 -18 -36 -29q-3 -2 -9.5 -5.5t-12.5 -4.5t-9 1.5t0 11.5l2 4l2 4q5 11 14.5 22t17.5 19q18 18 39 33q0 14 -1.5 29t-1.5 29q0 26 1 51t1 51
q1 26 0 51.5t-3 51.5q-3 51 -6.5 101.5t-5.5 100.5t-1 100.5t8 100.5q-14 5 -27 9.5t-25 11.5q-7 4 -13.5 8t-11.5 9q-5 4 -7.5 8.5t-4.5 10.5q-4 9 8 23.5t28 27.5t31 20t18 2q0 -1 2 -3q-2 -2 3 -3q3 -3 5 -4q4 -4 12 -10q13 -8 31 -16q10 -4 19.5 -7t19.5 -6q6 0 6 -6
q-8 -56 -9 -111q-1 -51 1.5 -102.5t6.5 -102.5t6.5 -102t1.5 -102q-1 -24 -2 -48.5t0 -48.5z" />
    <glyph glyph-name="braceleft" unicode="{" horiz-adv-x="222" 
d="M213 -30q7 -1 5.5 -7t-6.5 -13.5t-10.5 -14t-6.5 -7.5q-8 -8 -17 -15t-18 -13q-5 -4 -12.5 -7.5t-14.5 -3.5q-18 1 -27.5 12.5t-14.5 27.5t-6.5 33.5t-2.5 30.5q-3 43 -3 86.5t-11 85.5q-6 22 -18 42q-5 8 -15 16l-9 6q-1 1 -4 3t-1 0q-8 4 -5.5 10.5t6.5 11.5
q7 10 15.5 18.5t17.5 16.5l2 4q3 6 4 10l2 8q2 5 2.5 10.5t1.5 10.5q3 25 2 49.5t-2 49.5q-2 27 -1 53.5t8 52.5q9 33 24.5 62t38.5 55q11 13 26 26t33 18q8 2 9.5 -0.5t0 -7.5t-5 -10t-5.5 -8q-1 -2 -2 -3.5t-2 -3.5q-4 -6 -6 -8q0 -1 -1 -2l-6 -12t-5 -13q-11 -28 -15 -56
q-3 -26 -2 -52t3 -52q1 -25 0.5 -50t-7.5 -49q-10 -35 -35 -66q15 -10 24.5 -24.5t15 -32t8 -35.5t4.5 -35q2 -23 2.5 -46.5t1.5 -47.5l2 -38t6 -38q3 -11 8.5 -21t15.5 -15q5 -3 5 -2h3v0z" />
    <glyph glyph-name="bar" unicode="|" horiz-adv-x="144" 
d="M124 -2q2 -16 4.5 -33t3 -34.5t-2.5 -34t-12 -31.5t-24.5 -28t-32.5 -21q-2 -2 -8.5 -4t-9.5 1q-4 5 2 14q1 0 1 1t1 2v3q2 10 2 16q1 10 0.5 19t-1.5 19q-2 17 -4 33t-4 33q-2 23 -2 45.5v45.5q1 52 1 103.5t-2 103.5q-5 106 -12.5 210.5t-5.5 210.5q0 5 4.5 11l7.5 10
q6 8 13 14t15 12q1 1 7 5t13 7.5t12.5 3.5t5.5 -6q0 -33 1.5 -66t3.5 -66q6 -105 13.5 -208.5t6.5 -209.5q-1 -45 -2 -90.5t5 -90.5z" />
    <glyph glyph-name="braceright" unicode="}" horiz-adv-x="237" 
d="M216 301q2 -3 1 -7t-4 -8.5t-6 -8.5t-4 -5l-18 -18q0 -1 -0.5 -1t-0.5 -1v-1q-2 -3 -4 -9q0 -1 -0.5 -1.5t-0.5 -1.5v-2q0 -2 -0.5 -3t-0.5 -3q-1 -2 -1 -5t-1 -6q0 -5 -0.5 -11t-0.5 -11v-24.5t1 -24.5t0.5 -24.5t0.5 -25.5q0 -16 1 -32t-1 -32q-3 -28 -21 -52
q-14 -20 -32 -38t-39 -31q-5 -3 -11.5 -6.5t-13.5 -5.5t-13.5 -0.5t-10.5 8.5q-2 5 1 10t5 9q5 8 12.5 15.5t15.5 14.5q7 7 16 13q0 4 1 6q0 16 -0.5 31t-1.5 30v42q-1 23 -1.5 45.5t5.5 44.5q5 18 12.5 33.5t18.5 29.5q-20 26 -27.5 56t-10 61.5t-3 63.5t-5.5 62
q-4 23 -9 45.5t-14 43.5q-5 11 -11 22t-14 20q-5 6 -15 13q-1 1 -4 2t-2 1q-1 0 -4.5 1.5t0.5 1.5h-4q-7 1 -5.5 6.5t6 12.5t10 13t6.5 7q15 15 33 27q5 3 11.5 6.5t12.5 3.5q1 -1 4 -1t-1 -1q4 1 5.5 1.5t4.5 -1.5q8 -2 12 -4q8 -4 16 -12t14 -18.5t11 -21.5q10 -23 16 -47
t11 -48q6 -31 6 -64t3 -65.5t11.5 -63t31.5 -56.5z" />
    <glyph glyph-name="underscore" unicode="_" horiz-adv-x="490" 
d="M489 -18q3 -5 0 -10t-5 -9q-11 -16 -28 -30q-8 -7 -16 -13t-17 -11l-10 -4t-10 2q-3 0 -7 3q0 -1 1 -1q-22 8 -46 3t-46 -6q-69 -3 -138 0q-22 1 -43.5 -1t-43.5 -3q-20 -1 -40 -1t-37 10q0 1 -0.5 1.5t-0.5 1.5v1q-5 4 3 16t21.5 25t28.5 22t24 7h7q6 -2 9 -2q5 -1 9 -1
t9 -1q13 0 25 0.5t25 1.5q23 2 45.5 4t45.5 0q20 -1 38.5 -0.5t37.5 0.5q16 1 32 0.5t32 1.5q13 1 26 3t26 3q11 1 21.5 0t20.5 -8l1 -4q-1 1 0 -1z" />
    <glyph glyph-name="Euro" unicode="&#x20ac;" horiz-adv-x="451" 
d="M360 231q3 -4 -0.5 -11t-5.5 -9q-12 -18 -29 -32q-26 -22 -55.5 -36.5t-64.5 -12.5q-23 1 -46 6.5t-46 10.5q-18 5 -36 7t-37 0q-3 -1 -8 -1q-2 -1 -4 -1h-1q-4 -1 -8 -1.5t-9 -1.5l-3 -3q-2 -2 -8 -6t-12.5 -7t-12 -3.5t-6.5 5.5q-2 5 1 10.5t6 10.5q8 12 19.5 22.5
t22.5 19.5q13 10 27 17.5t30 11.5q18 5 37 8.5t38 2.5q26 -2 50.5 -8.5t49.5 -11.5q12 -2 24.5 -4t25.5 -1h8h2q6 2 10 3q5 3 10 6.5t10 5.5q3 2 10 4.5t11 -1.5zM370 361q3 -4 -0.5 -11t-5.5 -9q-12 -18 -29 -32q-26 -22 -55.5 -36.5t-64.5 -12.5q-23 1 -46 6.5t-46 10.5
q-18 5 -36 7t-37 0q-3 -1 -8 -1q-2 -1 -4 -1h-1q-4 -1 -8 -1.5t-9 -1.5l-3 -3q-2 -2 -8 -6t-12.5 -7t-12 -3.5t-6.5 5.5q-2 5 1 10.5t6 10.5q8 12 19.5 22.5t22.5 19.5q13 10 27 17.5t30 11.5q18 5 37 8.5t38 2.5q26 -2 50.5 -8.5t49.5 -11.5q12 -2 24.5 -4t25.5 -1h8h2
q6 2 10 3q5 3 10 6.5t10 5.5q3 2 10 4.5t11 -1.5zM150 62q14 -15 31 -22t35 -8t35.5 3t34.5 11q39 16 79 46q-57 -54 -102 -97q-19 -18 -37.5 -36t-32.5 -31.5t-23 -21.5l-9 -8q-14 27 -40.5 46.5t-53.5 33.5q-32 16 -67 27q9 2 19 8t19 24t15.5 53t7.5 95t-8 96t-20 55
q-13 22 -31 31l254 228q14 -27 31.5 -41t34.5 -20q19 -7 39 -7l-94 -96q-32 34 -59 44.5t-47 10.5q-12 -33 -12 -68t4.5 -69.5t10 -67t5.5 -60.5q0 -33 -3 -61.5t-6.5 -50t-6.5 -34t-3 -13.5z" />
    <glyph glyph-name="florin" unicode="&#x192;" horiz-adv-x="350" 
d="M261 380q-31 33 -58 44t-47 11q5 -43 9 -80t4 -60q0 -22 -1.5 -52t-3.5 -61.5t-4.5 -62t-4.5 -55t-3.5 -40l-1.5 -15.5q26 -28 47.5 -38t37 -10t25.5 5.5t13 7.5q-5 -4 -26 -23t-44.5 -40.5t-42.5 -38l-19 -16.5q-14 27 -37.5 45.5t-46.5 29.5q-27 13 -57 21q9 2 19 27.5
t19 67.5t15.5 96.5t7.5 114.5t-8 113t-20 93q-13 47 -31 86l225 199q15 -26 38 -48q20 -19 50.5 -36.5t72.5 -23.5l-133 -107q14 -23 30.5 -35t30.5 -17q17 -6 34 -6zM154 459q14 13 31 28t31.5 27.5t24 21l9.5 8.5q-2 9 -7.5 23.5t-16.5 29t-28 26t-42 14.5q-8 -41 -7 -87
t5 -91zM273 -26q0 1 1 1z" />
    <glyph glyph-name="quotesinglbase" unicode="&#x201a;" horiz-adv-x="170" 
d="M81 86q1 0 7 4t12.5 7.5t12 4t5.5 -5.5q0 -3 -1 -4q0 -5 -0.5 -10t-1.5 -10q0 -8 -0.5 -16.5t0.5 -17.5v-34q0 -10 -1.5 -17.5t-7.5 -16.5q-14 -22 -39 -38q-5 -5 -10 -8t-11 -6q-10 -4 -15 -4q-5 2 -6 4.5t-1 7.5v13v39q0 21 4 38t14 31.5t24 26.5l15 12v0z" />
    <glyph glyph-name="quotedblbase" unicode="&#x201e;" horiz-adv-x="239" 
d="M81 86q1 0 7 4t12.5 7.5t12 4t5.5 -5.5q0 -3 -1 -4q0 -5 -0.5 -10t-1.5 -10q0 -8 -0.5 -16.5t0.5 -17.5v-34q0 -10 -1.5 -17.5t-7.5 -16.5q-14 -22 -39 -38q-5 -5 -10 -8t-11 -6q-10 -4 -15 -4q-5 2 -6 4.5t-1 7.5v13v39q0 21 4 38t14 31.5t24 26.5zM181 86q1 0 7 4
t12.5 7.5t12 4t5.5 -5.5q0 -3 -1 -4q0 -5 -0.5 -10t-1.5 -10q0 -8 -0.5 -16.5t0.5 -17.5v-34q0 -10 -1.5 -17.5t-7.5 -16.5q-14 -22 -39 -38q-7 -7 -21 -14q-10 -4 -15 -4q-5 2 -6 4.5t-1 7.5v13v39q0 21 4 38t14 31.5t24 26.5z" />
    <glyph glyph-name="quotedblleft" unicode="&#x201c;" horiz-adv-x="239" 
d="M81 666q1 0 7 4t12.5 7.5t12 4t5.5 -5.5q0 -3 -1 -4q0 -5 -0.5 -10t-1.5 -10q0 -8 -0.5 -16.5t0.5 -17.5v-34q0 -10 -1.5 -17.5t-7.5 -16.5q-14 -22 -39 -38q-7 -7 -21 -14q-10 -4 -15 -4q-5 2 -6 4.5t-1 7.5v13v39q0 21 4 38t14 31.5t24 26.5zM181 666q1 0 7 4t12.5 7.5
t12 4t5.5 -5.5q0 -3 -1 -4q0 -5 -0.5 -10t-1.5 -10q0 -8 -0.5 -16.5t0.5 -17.5v-34q0 -10 -1.5 -17.5t-7.5 -16.5q-14 -22 -39 -38q-7 -7 -21 -14q-10 -4 -15 -4q-5 2 -6 4.5t-1 7.5v13v39q0 21 4 38t14 31.5t24 26.5z" />
    <glyph glyph-name="quotedblright" unicode="&#x201d;" horiz-adv-x="239" 
d="M81 666q1 0 7 4t12.5 7.5t12 4t5.5 -5.5q0 -3 -1 -4q0 -5 -0.5 -10t-1.5 -10q0 -8 -0.5 -16.5t0.5 -17.5v-34q0 -10 -1.5 -17.5t-7.5 -16.5q-14 -22 -39 -38q-7 -7 -21 -14q-10 -4 -15 -4q-5 2 -6 4.5t-1 7.5v13v39q0 21 4 38t14 31.5t24 26.5zM181 666q1 0 7 4t12.5 7.5
t12 4t5.5 -5.5q0 -3 -1 -4q0 -5 -0.5 -10t-1.5 -10q0 -8 -0.5 -16.5t0.5 -17.5v-34q0 -10 -1.5 -17.5t-7.5 -16.5q-14 -22 -39 -38q-7 -7 -21 -14q-10 -4 -15 -4q-5 2 -6 4.5t-1 7.5v13v39q0 21 4 38t14 31.5t24 26.5z" />
    <glyph glyph-name="quoteright" unicode="&#x2019;" horiz-adv-x="132" 
d="M81 666q1 0 7 4t12.5 7.5t12 4t5.5 -5.5q0 -3 -1 -4q0 -5 -0.5 -10t-1.5 -10q0 -8 -0.5 -16.5t0.5 -17.5v-34q0 -10 -1.5 -17.5t-7.5 -16.5q-14 -22 -39 -38q-7 -7 -21 -14q-10 -4 -15 -4q-5 2 -6 4.5t-1 7.5v13v39q0 21 4 38t14 31.5t24 26.5l15 12v0z" />
    <glyph glyph-name="quoteleft" unicode="&#x2018;" horiz-adv-x="132" 
d="M81 666q1 0 7 4t12.5 7.5t12 4t5.5 -5.5q0 -3 -1 -4q0 -5 -0.5 -10t-1.5 -10q0 -8 -0.5 -16.5t0.5 -17.5v-34q0 -10 -1.5 -17.5t-7.5 -16.5q-14 -22 -39 -38q-7 -7 -21 -14q-10 -4 -15 -4q-5 2 -6 4.5t-1 7.5v13v39q0 21 4 38t14 31.5t24 26.5l15 12v0z" />
    <glyph glyph-name="OE" unicode="&#x152;" horiz-adv-x="787" 
d="M403 62q14 -15 31 -22t35 -8t35.5 3t34.5 11q39 16 79 46q-57 -54 -102 -97q-19 -18 -37.5 -36t-32.5 -31.5t-23 -21.5l-9 -8q-14 27 -40.5 46.5t-53.5 33.5q-32 16 -67 27q9 2 19 8t19 24t15.5 53t7.5 95t-8 96t-20 55q-13 22 -31 31l254 228q14 -27 35.5 -41.5
t41.5 -20.5q24 -7 50 -7l-225 -209q5 -26 8 -50t3 -46q0 -33 -3 -61.5t-6.5 -50t-6.5 -34t-3 -13.5zM414 486q-11 -32 -11.5 -66t3.5 -68l101 92q-27 26 -51 34t-42 8zM352 306q-2 -61 7.5 -96.5t20.5 -54.5q13 -22 31 -31q-70 -63 -125 -113q-24 -21 -46.5 -41.5t-40 -36.5
t-28 -25.5l-10.5 -9.5q-14 27 -40.5 46.5t-53.5 33.5q-32 16 -67 27q9 2 19 8t19 24t15.5 53t7.5 95t-8 96t-20 55q-13 22 -31 31q70 63 125 113q23 21 45.5 41.5t40.5 36.5q20 18 39 35q14 -27 40.5 -47t53.5 -34q32 -16 67 -27q-9 -2 -19 -7.5t-19 -23.5t-15.5 -53
t-7.5 -95zM150 62q30 -33 57.5 -43.5t47.5 -9.5q11 32 11 66.5t-5 68.5t-11 66t-6 59q0 33 3 62t6.5 50.5t6.5 34t3 13.5q-30 32 -56.5 43t-45.5 12q-11 -32 -11.5 -67t4 -69.5t10 -67t5.5 -59.5q0 -33 -3 -61.5t-6.5 -50t-6.5 -34t-3 -13.5zM55 278q-16 36 -35 63
q-17 23 -41 41.5t-54 16.5l7 5.5t19 10.5t27.5 7t34.5 -5t39.5 -25.5t42.5 -54.5z" />
    <glyph glyph-name="oe" unicode="&#x153;" horiz-adv-x="787" 
d="M352 306q-2 -61 7.5 -96.5t20.5 -54.5q13 -22 31 -31q-70 -63 -125 -113q-24 -21 -46.5 -41.5t-40 -36.5t-28 -25.5l-10.5 -9.5q-14 27 -40.5 46.5t-53.5 33.5q-32 16 -67 27q9 2 19 8t19 24t15.5 53t7.5 95t-8 96t-20 55q-13 22 -31 31q70 63 125 113q23 21 45.5 41.5
t40.5 36.5q20 18 39 35q14 -27 40.5 -47t53.5 -34q32 -16 67 -27q-9 -2 -19 -7.5t-19 -23.5t-15.5 -53t-7.5 -95zM150 62q30 -33 57.5 -43.5t47.5 -9.5q11 32 11 66.5t-5 68.5t-11 66t-6 59q0 33 3 62t6.5 50.5t6.5 34t3 13.5q-30 32 -56.5 43t-45.5 12q-11 -32 -11.5 -67
t4 -69.5t10 -67t5.5 -59.5q0 -33 -3 -61.5t-6.5 -50t-6.5 -34t-3 -13.5zM403 62q14 -15 31 -22t35 -8t35.5 3t34.5 11q39 16 79 46q-57 -54 -102 -97q-19 -18 -37.5 -36t-32.5 -31.5t-23 -21.5l-9 -8q-14 27 -40.5 46.5t-53.5 33.5q-32 16 -67 27q9 2 19 8t19 24t15.5 53
t7.5 95t-8 96t-20 55q-13 22 -31 31l254 228q14 -27 35.5 -41.5t41.5 -20.5q24 -7 50 -7l-225 -209q5 -26 8 -50t3 -46q0 -33 -3 -61.5t-6.5 -50t-6.5 -34t-3 -13.5zM414 486q-11 -32 -11.5 -66t3.5 -68l101 92q-27 26 -51 34t-42 8z" />
    <glyph glyph-name="Ydieresis" unicode="&#x178;" horiz-adv-x="410" 
d="M352 348q-1 -30 0.5 -66.5t4 -75t6 -78t7.5 -76.5q9 -86 20 -175l-217 -204q-7 41 -26 70q-17 25 -47.5 41.5t-83.5 5.5l129 132q-18 21 -43 36t-48 26q-26 12 -54 21q9 2 19 14.5t19 38.5t15.5 67.5t7.5 101.5t-8 96t-20 55q-13 22 -31 31l188 170q-29 -35 -36 -76.5
t-3.5 -83.5t11 -82.5t7.5 -73.5t-3 -68.5t-6.5 -64.5t-6.5 -48t-3 -20q18 -20 35.5 -31t33.5 -16.5t29 -6t23 1.5q-3 42 -7.5 88t-9 88t-7.5 75.5t-3 49.5q0 33 -3.5 52t-8 29t-8 12.5t-3.5 3.5l192 170q-8 -10 -18 -24.5t-19 -40t-16 -65.5t-8 -100zM161 -101
q3 -11 10 -24.5t18.5 -26t29 -24t42.5 -18.5q10 43 12 92t-1 99q-14 -13 -33.5 -30t-36.5 -32.5t-29 -26l-12 -10.5v1zM60 313q-14 37 -32 65q-16 24 -39 43.5t-53 18.5q1 0 16 9.5t38.5 10.5t53 -17t59.5 -73zM374 -51q11 -37 28 -66q14 -25 36 -46t52 -22l-7.5 -4.5
t-19.5 -8.5t-28.5 -4t-34 9t-36.5 29.5t-36 58.5zM111 706q-9 29 -22 46.5t-26 27.5q-15 11 -30 17q31 24 57 42q11 8 21 15.5l18 13.5q10 7 18 13q12 -24 25.5 -42t25.5 -30q14 -14 28 -24zM261 706q-9 29 -22 46.5t-26 27.5q-15 11 -30 17q31 24 57 42q11 8 21 15.5
l18 13.5q10 7 18 13q12 -24 25.5 -42t25.5 -30q14 -14 28 -24z" />
    <glyph glyph-name="ellipsis" unicode="&#x2026;" horiz-adv-x="618" 
d="M78 -26q-9 29 -22 46.5t-26 27.5q-15 11 -30 17q31 24 57 42q11 8 21 15.5l18 13.5q10 7 18 13q12 -24 25.5 -42t25.5 -30q14 -14 28 -24zM284 -26q-9 29 -22 46.5t-26 27.5q-15 11 -30 17q31 24 57 42q11 8 21 15.5l18 13.5q10 7 18 13q12 -24 25.5 -42t25.5 -30
q14 -14 28 -24zM490 -26q-9 29 -22 46.5t-26 27.5q-15 11 -30 17q31 24 57 42q11 8 21 15.5l18 13.5q10 7 18 13q12 -24 25.5 -42t25.5 -30q14 -14 28 -24z" />
    <glyph glyph-name="dagger" unicode="&#x2020;" horiz-adv-x="310" 
d="M200 -2q2 -16 4.5 -33t3 -34.5t-2.5 -34t-12 -31.5t-24.5 -28t-32.5 -21q-2 -2 -8.5 -4t-9.5 1q-4 5 2 14q1 0 1 1t1 2v3q2 10 2 16q1 10 0.5 19t-1.5 19q-2 17 -4 33t-4 33q-2 23 -2 45.5v45.5q1 52 1 103.5t-2 103.5q-5 106 -12.5 210.5t-5.5 210.5q0 5 4.5 11l7.5 10
q6 8 13 14t15 12q1 1 7 5t13 7.5t12.5 3.5t5.5 -6q0 -33 1.5 -66t3.5 -66q6 -105 13.5 -208.5t6.5 -209.5q-1 -45 -2 -90.5t5 -90.5zM141 375q31 -16 66 -29q30 -11 69 -23t81 -17l-164 -78q-31 16 -68 26q-32 8 -75.5 11.5t-96.5 -7.5z" />
    <glyph glyph-name="daggerdbl" unicode="&#x2021;" horiz-adv-x="310" 
d="M200 -2q2 -16 4.5 -33t3 -34.5t-2.5 -34t-12 -31.5t-24.5 -28t-32.5 -21q-2 -2 -8.5 -4t-9.5 1q-4 5 2 14q1 0 1 1t1 2v3q2 10 2 16q1 10 0.5 19t-1.5 19q-2 17 -4 33t-4 33q-2 23 -2 45.5v45.5q1 52 1 103.5t-2 103.5q-5 106 -12.5 210.5t-5.5 210.5q0 5 4.5 11l7.5 10
q6 8 13 14t15 12q1 1 7 5t13 7.5t12.5 3.5t5.5 -6q0 -33 1.5 -66t3.5 -66q6 -105 13.5 -208.5t6.5 -209.5q-1 -45 -2 -90.5t5 -90.5zM345 299q3 -4 -0.5 -11t-5.5 -9q-12 -18 -29 -32q-26 -22 -55.5 -36.5t-64.5 -12.5q-23 1 -46 6.5t-46 10.5q-18 5 -36 7t-37 0
q-3 -1 -8 -1q-2 -1 -4 -1h-1q-4 -1 -8 -1.5t-9 -1.5l-3 -3q-2 -2 -8 -6t-12.5 -7t-12 -3.5t-6.5 5.5q-2 5 1 10.5t6 10.5q8 12 19.5 22.5t22.5 19.5q13 10 27 17.5t30 11.5q18 5 37 8.5t38 2.5q26 -2 50.5 -8.5t49.5 -11.5q12 -2 24.5 -4t25.5 -1h8h2q6 2 10 3q5 3 10 6.5
t10 5.5q3 2 10 4.5t11 -1.5zM355 429q3 -4 -0.5 -11t-5.5 -9q-12 -18 -29 -32q-26 -22 -55.5 -36.5t-64.5 -12.5q-23 1 -46 6.5t-46 10.5q-18 5 -36 7t-37 0q-3 -1 -8 -1q-2 -1 -4 -1h-1q-4 -1 -8 -1.5t-9 -1.5l-3 -3q-2 -2 -8 -6t-12.5 -7t-12 -3.5t-6.5 5.5q-2 5 1 10.5
t6 10.5q8 12 19.5 22.5t22.5 19.5q13 10 27 17.5t30 11.5q18 5 37 8.5t38 2.5q26 -2 50.5 -8.5t49.5 -11.5q12 -2 24.5 -4t25.5 -1h8h2q6 2 10 3q5 3 10 6.5t10 5.5q3 2 10 4.5t11 -1.5z" />
    <glyph glyph-name="perthousand" unicode="&#x2030;" horiz-adv-x="619" 
d="M425 162l-9 -12l-1 -2l-11 -14l-3 -3q-12 -30 -12.5 -48t4 -33t10 -31.5t5.5 -44.5q0 -14 1.5 -27t1.5 -27q0 -5 -2 -11t2 -10q1 -1 11.5 2.5t24.5 8.5t27 10t19 7l78 92q2 7 6.5 12.5t7.5 11.5q2 5 0.5 10t-0.5 10q2 12 6.5 22t9 20.5t6.5 22t-2 24.5q-2 8 -7 15t-7 15
q-5 14 -7 29t-6 29q-4 12 -10.5 24.5t-6.5 26.5l-78 -92q0 -14 6.5 -26.5t10.5 -24.5q4 -14 6 -29t7 -29q2 -8 7 -15t7 -15q5 -18 0 -32.5t-11 -28.5q-11 -4 -18.5 -6.5t-8.5 -1.5q-4 4 -2 10t2 11q0 14 -1.5 27t-1.5 27q0 24 -4.5 39t-8.5 28t-6.5 26.5t2.5 33.5l58 68
q-12 0 -24 -7zM196 127l-3 -3q-8 -21 -8 -38t4 -33t9.5 -32.5t7.5 -35.5q2 -10 -0.5 -23.5t4.5 -21.5q4 -5 13 -7.5t19.5 -3t20 1t15.5 3.5l14 17q4 4 7 6l78 92q0 14 4 26.5t2 28.5q-2 13 -5.5 23t-7.5 21v21q-5 29 -7.5 60.5t-13.5 58.5l-78 -92q11 -27 13.5 -58.5
t7.5 -60.5v-21q2 -9 5.5 -16.5t5.5 -15.5q-10 1 -15 8q-7 8 -4.5 21.5t0.5 23.5q-2 16 -6 29.5t-8 26.5t-6.5 26.5t-0.5 28.5l56 66q-9 -2 -16 -6.5t-15 -7.5l-78 -92q-1 -2 -3 -8zM-12 581q0 -24 5.5 -47t5.5 -48q0 -5 -1 -14t-1.5 -18t-1 -16l-0.5 -7q8 -6 21.5 -0.5
t19.5 7.5q7 2 12 1.5t9.5 -0.5t9 1.5t10.5 7.5l78 92q4 17 11 32t9 33q1 7 1.5 24.5t-0.5 36t-4 34.5t-7 21q-2 2 -5 3t-5 4t-1.5 7t-1.5 7l-78 -92q2 -3 1.5 -7t1.5 -7t5 -4t5 -3q4 -5 6 -17.5t3.5 -28.5t1.5 -32v-27q-7 -2 -13.5 -3.5t-11.5 2.5l0.5 7t1 16t1.5 18t1 14
q0 20 -4 39t-6 38l47 56q-2 -1 -5 -2t-5 -2l-11 -13q-8 -5 -14 -9.5t-13 -11.5zM489 234l-3 -3zM281 226l1 2zM344 790l66 -6q-115 -206 -199 -393q-36 -80 -68 -163.5t-54.5 -162t-30.5 -147.5t4 -118q2 0 -12 5.5t-31 12.5q-20 8 -47 18q-14 5 19 106q14 43 39.5 111.5
t67.5 170t102.5 241t143.5 325.5z" />
    <glyph glyph-name="Scaron" unicode="&#x160;" horiz-adv-x="416" 
d="M67 726q-1 1 -2.5 4t1.5 -2q-1 2 -1 6q0 5 2 8.5t4 7.5q5 8 12 15t15 14l16 12t17 10q4 3 13 5l-2 -1q1 0 1.5 0.5t2.5 0.5h1h5q3 -1 5.5 -2t5.5 -3q5 -3 10.5 -5.5t10.5 -5.5q14 -8 27.5 -16t26.5 -17q9 -5 20 -13q6 4 10 8q7 4 8 7q2 1 3.5 2t3.5 3q12 15 30 28
q2 1 8 5.5t12.5 8t12 3.5t6.5 -6q1 -2 -1 -5q-1 -7 -6 -13.5t-9 -11.5t-7.5 -9t-8.5 -8q-9 -8 -17.5 -15.5t-17.5 -15.5q-2 -1 -6 -5q2 -4 3 -7q-1 4 0 0.5t1 -5.5q1 -5 -2 -13q-2 -7 -6 -11q-6 -8 -6.5 -9t5.5 7q-3 -3 -7 -9q-10 -11 -21 -21l-5.5 -4.5t-10 -8t-5.5 -4
t8 6.5q-1 -1 -7 -5t-13 -7.5t-12.5 -4t-5.5 5.5q0 3 2 7q0 3 -2 3q-3 4 -6 7.5t-7 6.5q-10 9 -21 16.5t-23 14.5q-11 7 -23.5 13.5t-24.5 13.5l-18 9q-2 2 -3 2t-2 2zM144 806h3h-1h-2zM184 -96q-12 42 -35 73q-20 26 -53.5 43.5t-86.5 6.5l129 115q16 -25 38 -48
q18 -20 44.5 -39.5t59.5 -31.5q-10 19 -27 48t-39.5 63t-48.5 69t-55 66.5t-59.5 56t-60.5 36.5l250 227q15 -33 38 -59q20 -23 50.5 -43.5t72.5 -26.5l-136 -109q-5 35 -19 63q-12 24 -36 43.5t-64 20.5q9 -22 29.5 -64t55 -92.5t84 -104.5t115.5 -99z" />
    <glyph glyph-name="guilsinglleft" unicode="&#x2039;" horiz-adv-x="373" 
d="M310 173q3 -5 0 -10.5t-5 -8.5q-6 -9 -13 -16.5t-15 -14.5q-15 -14 -34 -23q-4 -2 -10 -4.5t-10 1.5q-11 11 -21 22.5t-21 22.5q-11 12 -21 23t-21 22q-22 22 -44 43.5t-43 44.5q-3 3 -0.5 9t7 12t9 11t6.5 7q12 12 25.5 22.5t29.5 15.5l4 2q2 1 3.5 1.5t3.5 1.5
q5 2 10.5 4.5t10.5 5.5q2 2 4 2q4 2 7 4l6 4q4 2 7 4.5t7 4.5q1 1 3.5 2.5t4.5 2.5q2 2 3 2.5t3 2.5q2 1 4.5 3t4.5 4t3 2v1h1q0 1 1 1q0 1 0.5 1.5t0.5 1.5l2 4t1 4q2 7 8.5 14t11.5 12q15 15 32 26q1 1 6 3.5t10.5 4.5t9 1.5t3.5 -5.5q-1 -20 -14.5 -37t-26.5 -30
q-16 -17 -33.5 -32t-36.5 -29l-14 -10t-15 -10q16 -15 31.5 -30t31.5 -31q11 -11 21.5 -22t21.5 -22q11 -12 21 -23t18 -25z" />
    <glyph glyph-name="bullet" unicode="&#x2022;" horiz-adv-x="297" 
d="M265 361q4 -6 4 -11q0 -6 -4 -11q-3 -8 -11.5 -18.5t-10.5 -12.5q-36 -34 -75 -56l-15 -9q-18 -11 -6 -3q-4 -2 -6 -4q-5 -3 -11 -6.5t-11 -6.5q-2 -1 -6 -3.5t-9 -5t-9.5 -3t-6.5 2.5q-11 15 -23.5 31t-22 34t-12.5 36.5t7 37.5q13 26 36.5 45t46.5 34q8 5 15.5 9
t15.5 9q1 1 1.5 1t1.5 1q17 14 33.5 23.5t20.5 3.5q8 -14 16.5 -28.5t17.5 -28.5q5 -6 9 -12.5t9 -13.5q4 -5 7 -9t3 -11q0 -5 -6 -13q1 -1 1 -2z" />
    <glyph glyph-name="endash" unicode="&#x2013;" horiz-adv-x="570" 
d="M528 391q3 -4 -0.5 -10.5t-5.5 -9.5q-12 -17 -28.5 -31t-35.5 -24q-26 -14 -55.5 -22t-59.5 -6q-24 2 -48 7.5t-48 12.5q-28 8 -56 14.5t-57 2.5q-12 -2 -24.5 -5.5t-23.5 -7.5q-8 -2 -20 -6.5t-20 -2.5q-6 0 -7 3t1 8t5.5 9.5t5.5 7.5q11 14 26 26.5t32 17.5q1 0 2 1
q22 9 43 15q12 5 24.5 8t25.5 5q15 2 30.5 3.5t31.5 -1.5q14 -3 26.5 -6t26.5 -7q24 -7 48 -13.5t49 -8.5q11 -2 23.5 -1.5t22.5 2.5q7 2 13.5 3.5t12.5 4.5q5 1 1 0q3 1 7 3q8 4 11 5q3 2 10 4.5t11 -1.5z" />
    <glyph glyph-name="emdash" unicode="&#x2014;" horiz-adv-x="833" 
d="M677 385q4 3 11 7t13.5 6.5t11 2t4.5 -6.5q-1 -7 -5.5 -13.5t-9.5 -11.5q-7 -9 -15.5 -16.5t-17.5 -14.5q-26 -20 -54 -33q-32 -14 -64.5 -17.5t-65.5 -1.5t-65.5 9t-65.5 14q-32 7 -64 12.5t-64 6.5h-15.5t-15.5 -1h-7q-1 -1 -2 -1h-2q-3 -1 -6 -1t-5 -1q-4 -2 -8 -2.5
t-8 -2.5q-1 0 -1.5 -0.5t-2.5 -0.5q0 -1 -1 -1q-2 -1 -4.5 -2.5t-4 -2.5t-1 -0.5t5.5 3.5l-6 -3l-2 -2l1 1q-4 -3 -10.5 -6.5t-12.5 -6t-10 -2t-4 6.5q1 6 5.5 12t8.5 11q5 7 11.5 13t13.5 12v-1v1q4 2 5 4h1q3 3 5 4t4 3q5 3 9 6.5t9 5.5q6 4 12 7.5t13 6.5q31 14 63 18
t64.5 2t65.5 -9t65 -14t64.5 -12.5t64.5 -6.5q8 0 16 0.5t16 1.5h7q1 0 2 1h1q3 1 6.5 1t7.5 2q4 1 7.5 1.5t8.5 2.5q0 1 2 1q1 1 2 1t2 1l10 5q3 2 1 1z" />
    <glyph glyph-name="trademark" unicode="&#x2122;" horiz-adv-x="875" 
d="M313 -26q0 1 1 1zM190 9q26 -28 47.5 -38t37 -10t25.5 5.5t13 7.5q-5 -4 -26 -23t-44.5 -40.5t-42.5 -38l-19 -16.5q-14 27 -37.5 45.5t-46.5 29.5q-27 13 -57 21q9 2 19 27.5t19 67.5t15.5 96.5t7.5 114.5q1 53 -6 100t-17 85q-28 1 -54 -2t-46 -8q-24 -5 -45 -12
l297 299q-28 -34 -35 -88t-5 -114q28 -2 54.5 -1.5t48.5 2.5q25 2 48 4l-141 -120q4 -33 6.5 -61t2.5 -47q0 -22 -1.5 -52t-3.5 -61.5t-4.5 -62t-4.5 -55t-3.5 -40zM813 275q-2 -61 7.5 -103t20.5 -69q13 -32 31 -52l-184 -166q29 35 35 82.5t2 96.5t-12 95t-8 79t3 67
t6.5 61t6.5 44.5t3 18.5q-15 17 -29.5 27t-27.5 17q-8 -9 -15 -24t-13 -38.5t-9.5 -57t-4.5 -78.5q-2 -61 7.5 -103t20.5 -69q13 -32 31 -52l-184 -166q20 23 28.5 52t10.5 61q-15 -14 -32.5 -29.5t-32.5 -29t-25 -22l-10 -8.5q-14 27 -40.5 46.5t-53.5 33.5q-32 16 -67 27
q9 2 19 14.5t19 38.5t15.5 67.5t7.5 101.5t-8 101t-20 66q-13 29 -31 46l188 170q-20 -24 -29 -53t-11 -61q14 13 31 28t31.5 28t24.5 21.5l10 8.5q14 -28 41.5 -48t54.5 -34q14 13 30.5 27.5t30 26.5l22.5 20l9 8q14 -27 40.5 -47t53.5 -34q32 -16 67 -27q-9 -2 -19 -12.5
t-19 -34t-15.5 -63.5t-7.5 -100zM428 73q32 -35 61.5 -45t49.5 -8q0 30 -3.5 60t-7.5 58.5t-7.5 54t-3.5 45.5q0 33 3 67t6.5 61t6.5 44.5t3 18.5q-32 35 -60.5 45.5t-48.5 9.5q0 -29 3 -57.5t7 -55.5t7 -52t3 -45q0 -33 -3 -68.5t-6.5 -64.5t-6.5 -48t-3 -20zM330 363
q-14 37 -32 65q-16 24 -39 43.5t-53 18.5q1 0 16 9.5t38.5 10.5t53 -17t59.5 -73zM824 149q11 -37 28 -66q14 -25 36 -46t52 -22q-1 0 -8 -4.5t-19.5 -8.5t-28.5 -4t-33.5 9t-36.5 29.5t-36 58.5z" />
    <glyph glyph-name="scaron" unicode="&#x161;" horiz-adv-x="416" 
d="M67 626q-1 1 -2.5 4t1.5 -2q-1 2 -1 6q0 5 2 8.5t4 7.5q5 8 12 15t15 14l16 12t17 10q4 3 13 5l-2 -1q1 0 1.5 0.5t2.5 0.5h1h5q3 -1 5.5 -2t5.5 -3q5 -3 10.5 -5.5t10.5 -5.5q14 -8 27.5 -16t26.5 -17q9 -5 20 -13q6 4 10 8q7 4 8 7q2 1 3.5 2t3.5 3q12 15 30 28
q2 1 8 5.5t12.5 8t12 3.5t6.5 -6q1 -2 -1 -5q-1 -7 -6 -13.5t-9 -11.5t-7.5 -9t-8.5 -8q-9 -8 -17.5 -15.5t-17.5 -15.5q-2 -1 -6 -5q2 -4 3 -7q-1 4 0 0.5t1 -5.5q1 -5 -2 -13q-2 -7 -6 -11q-6 -8 -6.5 -9t5.5 7q-3 -3 -7 -9q-10 -11 -21 -21l-5.5 -4.5t-10 -8t-5.5 -4
t8 6.5q-1 -1 -7 -5t-13 -7.5t-12.5 -4t-5.5 5.5q0 3 2 7q0 3 -2 3q-3 4 -6 7.5t-7 6.5q-10 9 -21 16.5t-23 14.5q-11 7 -23.5 13.5t-24.5 13.5l-18 9q-2 2 -3 2t-2 2zM144 706h3h-1h-2zM184 -96q-12 42 -35 73q-20 26 -53.5 43.5t-86.5 6.5l129 115q16 -25 38 -48
q18 -20 44.5 -39.5t59.5 -31.5q-10 19 -27 48t-39.5 63t-48.5 69t-55 66.5t-59.5 56t-60.5 36.5l250 227q15 -33 38 -59q20 -23 50.5 -43.5t72.5 -26.5l-136 -109q-5 35 -19 63q-12 24 -36 43.5t-64 20.5q9 -22 29.5 -64t55 -92.5t84 -104.5t115.5 -99z" />
    <glyph glyph-name="guilsinglright" unicode="&#x203a;" horiz-adv-x="431" 
d="M361 394q3 -2 2 -6.5t-4 -9.5t-6.5 -9t-4.5 -5q-15 -18 -34 -31q-1 -2 -3.5 -3.5t-4.5 -3.5t-3 -2.5t-3 -2.5q-6 -5 -11.5 -10t-11.5 -10l-48 -45q-29 -26 -60 -48q-8 -5 -16 -10.5t-17 -10.5q-5 -3 -10.5 -6.5t-10.5 -5.5q-3 -2 -6 -2.5t-6 -2.5q-6 -1 -7 -1t3 0
q-4 -1 -8.5 -0.5t-3.5 6.5t5 12t8 11q24 29 54 43q0 1 1 1q3 2 11 6q0 1 2 1q0 1 1 1q2 1 7 4.5t3 2.5q2 1 2.5 1.5t2.5 1.5t4.5 3.5t4.5 3.5q3 3 5 4q5 5 11 10.5t12 10.5q9 8 18 16.5t18 17.5q-23 15 -49 26t-51 25q-14 8 -25.5 16t-22.5 19q-5 5 -10 10.5t-10 10.5
q-2 3 -4 5.5t-4 5.5q-2 2 -2 3.5t-2 3.5q-3 4 0 10t5 9q5 8 12 15t14 13q8 6 15.5 11.5t16.5 10.5q4 2 9.5 4t9.5 -1q2 -2 4.5 -3t4.5 -3q3 -2 5.5 -5t5.5 -5q5 -5 10.5 -10t10.5 -10q22 -21 50 -34q28 -14 56.5 -27t54.5 -32z" />
    <glyph glyph-name="exclamdown" unicode="&#xa1;" horiz-adv-x="207" 
d="M193 541.003q-14 -9.99902 -28 -23.998q-12 -11.999 -25.5 -29.998t-25.5 -41.998q-8 6 -18 12.999l-18 13.5q-10 7.49902 -21 15.499q-26 17.999 -57 41.9971q15 6 30 16.999q13 9.99902 26 27.498t22 46.4971zM40 382.013q4 -1 6.5 -19.499q2.5 -18.498 3.5 -48.9961
q1 -30.499 1 -68.4961q0 -37.998 -1 -77.9951q-2 -92.9951 -8 -211.987l157 -169.989q-19 23.998 -29.5 68.4951q-10.5 44.498 -15 97.4941q-4.5 52.9971 -4 108.493q0.5 55.4971 2.5 100.994t4 74.9951l2 29.499z" />
    <glyph glyph-name="cent" unicode="&#xa2;" horiz-adv-x="358" 
d="M239 639q-4 -2 -5.5 -2t5.5 2zM301 168q6 0 5.5 -4.5t-3.5 -10t-7.5 -11.5t-8.5 -10q-2 -3 -4.5 -5.5t-4.5 -5.5q-2 -2 -4.5 -5t-4.5 -5l-6 -6t-5 -7q1 -20 1 -41t-3 -41q-6 -43 -34 -79q-8 -11 -19.5 -20.5t-23.5 -17.5q-3 -2 -8.5 -4.5t-10.5 -4.5q-8 -4 -13 -3
q-6 0 -5.5 4t4 10t8.5 12t8 10q0 1 0.5 2t0.5 2q1 1 1 3q1 2 1 3.5t1 3.5q2 10 3 19t1 19q1 21 0 43q-8 -6 -20.5 -13.5t-18.5 -1.5q-26 28 -58 51t-54 55q-17 26 -16 55.5t-1 58.5q-2 18 -3.5 36.5t0.5 36.5t8.5 33.5t15.5 30.5q18 31 41 59t49 54q4 4 7 6v3q2 21 8 41
t17 37t25 30.5t29 25.5q8 5 15.5 10t15.5 9q2 1 5 2t5 2h-1q1 0 2 0.5t2 0.5q6 2 8 2h2q8 2 9.5 -1t-0.5 -7.5t-5.5 -9.5t-5.5 -8q-8 -9 -18 -18.5t-21 -16.5q0 -2 -0.5 -3.5t-0.5 -2.5q-3 -9 -3 -18q-3 -20 -3 -39v-31q9 -7 19 -13t20 -11q14 -8 31 -15.5t34 -7.5q3 0 5 -2
q4 0 4 -4t-2.5 -9t-5.5 -9.5t-4 -5.5q-11 -14 -26 -26t-32 -18q-13 -6 -27 -5q-1 0 -1 0.5t-1 0.5l4 -24t4 -23q7 -44 14.5 -86.5t12.5 -86.5l10 8t11 7q5 4 12 7.5t14 3.5zM98 211q6 -19 19.5 -34t27.5 -28q4 -4 12 -10q-5 37 -11.5 73t-12.5 73q-5 30 -9 60.5t-6 61.5
q-2 2 -8 6q0 -1 -0.5 -1.5t-0.5 -1.5l-6 -9q0 -1 -1 -1q-5 -8 -6.5 -14l-3.5 -14q-3 -23 -1 -45l4 -44q1 -18 0 -36t3 -36z" />
    <glyph glyph-name="sterling" unicode="&#xa3;" horiz-adv-x="517" 
d="M202 -185q4 -5 3.5 -10.5t-4 -9t-8.5 -4t-10 4.5zM34 285l3 1l-6 -2q2 0 3 1zM486 90q4 -4 0.5 -10t-5.5 -9t-4 -5.5t-4 -5.5q-8 -13 -19 -24t-22 -21q-11 -9 -24 -18.5t-27 -14.5q-13 -6 -26.5 -8.5t-27.5 1.5q-24 7 -45.5 20.5t-44.5 23.5q-28 11 -55 11h-15.5
t-15.5 -1q-2 0 -4 -0.5t-4 -0.5h-1q-1 0 -2 -1q-5 0 -8.5 -1t-8.5 -2q-17 -3 -31 -9q-2 -1 -3 -1t-2 -1q-1 0 -2 -0.5t-2 -0.5q-2 -2 -4.5 -2.5t-5.5 -2.5q-11 -14 -26 -26.5t-31 -20.5q-3 -2 -10 -4.5t-11 1.5q-3 5 0.5 11t5.5 9q3 5 6.5 10.5t6.5 10.5q4 8 7 12l1 1v2
l10 18t10 19q17 35 28 70.5t14 75.5q2 28 0 54.5t-6 53.5q-1 0 -7 -2q-1 0 -2.5 -1t-2.5 -1h-1q-8 -4 -15.5 -8t-15.5 -7q-3 -2 -6.5 -3t-5.5 0h-1q-5 -3 -7 1q-2 6 2.5 14.5t13 17.5t19.5 17t20 13q2 2 4 3q-4 28 -7 58t-2 60t7 58.5t21 54.5q24 43 62 77.5t83 54.5
q31 14 66.5 21t69.5 -4q14 -5 27.5 -12.5t22.5 -20.5q22 -29 24 -64q1 -25 -6 -48.5t-19.5 -44t-29.5 -38.5t-36 -32q-1 -1 -8 -5t-14.5 -8t-13.5 -4.5t-5 5.5q1 7 5 13t8 11l15 15q2 4 3 5q7 14 10 29q3 16 2.5 32t-6.5 31q-12 29 -36 45t-56 17h-18q-2 -1 -7 -1h-2
q0 -1 -2 -1q-8 -2 -15 -3.5t-15 -4.5q-2 0 -6 -2q-1 0 -2 -1h-1q-3 -2 -5.5 -2.5t-5.5 -2.5h-1q0 -2 -2 -4q-1 -1 -2.5 -4t-1.5 -5l-6 -12q-1 -2 -1 -3.5t-1 -3.5l-1 -4q-5 -14 -6 -25q-8 -48 -2.5 -94.5t11.5 -94.5q8 1 14.5 1.5t14.5 -0.5q19 -2 37 -4.5t37 -4.5
q8 -1 17 -1.5t17 0.5h6.5t6.5 2q1 0 4 1.5t0 -0.5q1 1 3 1q3 2 10 5t10 -2q4 -4 0 -10.5t-6 -9.5q-11 -17 -28 -31t-35 -24q-15 -8 -30.5 -11t-30.5 -3v-30q0 -16 -0.5 -32t-0.5 -32q-1 -23 -1 -46.5v-46.5q2 1 5 1t6 1q21 3 44 2.5t43 -8.5q23 -8 43.5 -20.5t43.5 -22.5
q10 -4 24 -6q10 10 21 18.5t23 14.5q3 2 10 4t10 -2zM120 78q17 9 35 15t37 11q0 25 1 49.5t2 49.5q1 17 1 33t1 33v27q-5 0 -10.5 0.5t-10.5 1.5q0 -69 -22 -134q-8 -23 -18 -45t-22 -44z" />
    <glyph glyph-name="currency" unicode="&#xa4;" horiz-adv-x="492" 
d="M437 571q-2 -5 -3 -6.5t2 5.5q-6 -11 -13 -19q-5 -5 -9.5 -10t-9.5 -10l-11 -11t-12 -11q15 -11 28 -27q13 -18 18 -39t6 -43t-0.5 -44t-2.5 -43v-4v-2q-1 -7 -5.5 -13.5t-8.5 -11.5t-7.5 -8.5l-8.5 -8.5q5 -5 8.5 -10t8.5 -10q3 -4 6 -7.5t6 -6.5q3 -4 6 -7t2 -8
q-1 -12 -13 -23.5t-20 -19.5q-10 -9 -21.5 -17t-25.5 -10q-10 -1 -18.5 11t-13.5 19q-6 7 -11 16q-2 3 -4 7q-1 3 -1 7q-2 -1 -3 -2t-3 -2q-19 -12 -39 -23.5t-42 -16.5q-17 -5 -32 -2.5t-31 10.5q-6 2 -10 4q-1 -5 -5 -9q-6 -9 -13 -16.5t-15 -14.5t-16.5 -13t-18.5 -11
q-2 -1 -9.5 -4t-10.5 1q-6 8 -13 15t-14 15q-3 1 -3 4q-3 1 -4 4q-4 5 -6.5 11t-2.5 13q2 5 2 6.5t-1 -1.5l1 1q0 4 2 8q6 11 14 21q8 13 23 24q-2 2 -3.5 5t-3.5 5q-6 12 -6 25.5t1 27.5q2 32 3.5 64.5t21.5 59.5q15 19 33 36q-1 3 -3 7l-6 12t-6 11q-5 10 -12 21
q-2 2 -6 8l-2 2q-1 5 -1 3q-4 2 -0.5 9t10 15t13 14t7.5 7q8 7 21.5 17t24.5 8q10 0 18 -10q4 -5 7.5 -10.5t6.5 -11.5t6.5 -12.5t6.5 -12.5q2 -3 3 -5.5t3 -5.5q1 3 2.5 5t2.5 4q11 15 25 28q8 6 15.5 11.5t15.5 9.5q4 2 9.5 4t9.5 -1q5 -5 13 -8.5t15 -8.5
q9 -6 18.5 -12.5t18.5 -12.5q4 -2 7 -4.5t7 -4.5q2 3 5 5l2 2l9 9q5 6 10 10.5t10 9.5q8 6 15.5 11.5t15.5 10.5q3 1 9.5 3.5t9.5 -1.5q2 -6 -1 -10q-2 -4 -3 -5v-1zM340 268q0 18 1 37t-0.5 37t-7 35t-17.5 32q-14 17 -32 29.5t-36 24.5q-8 6 -16.5 12t-16.5 13q-1 0 -3 2
q-8 -7 -16.5 -13.5t-17.5 -12.5q-8 -7 -17 -12.5t-18 -11.5q0 -2 -0.5 -3.5t-0.5 -3.5q-3 -16 -3 -31.5t-1 -31.5q0 -8 -1 -16.5t-1 -17.5q0 -6 0.5 -10t2.5 -8q6 -14 18.5 -21.5t24.5 -14.5q15 -8 30 -16.5t31 -16.5q12 -6 26 -9q4 0 7.5 -0.5t6.5 0.5h2h1q3 0 7 2
q2 0 5.5 1.5t1.5 0.5l4 2q4 2 5 3q1 0 1.5 0.5t1.5 0.5q7 5 13.5 9t14.5 9zM454 555q2 -8 5 -16.5t-2 -17.5q-6 -14 -18 -25.5t-24 -20.5q-8 -5 -16.5 -10.5t-18.5 -6.5q-5 0 -7.5 3.5t-4 9t-2 11.5t-1.5 9q-1 4 -2 9.5t-2 7.5q0 2 -0.5 3t-0.5 3q-4 0 -5 1q-3 4 0 10t5 8
q11 15 26 28.5t32 21.5q10 5 16 4q5 2 9 -1q5 -6 7 -14.5t4 -16.5z" />
    <glyph glyph-name="yen" unicode="&#xa5;" horiz-adv-x="455" 
d="M446 766q2 -2 -1.5 -7.5t-7.5 -10.5q-3 -4 -6 -7l-6 -6v-5q-2 -4 -5 -7q-1 -2 -2 -3t-2 -3q-4 -7 -5 -14q-5 -17 -7 -34.5t-3 -34.5q-2 -35 -1 -70.5t3 -70.5q3 -54 6.5 -106t5.5 -105q2 -52 2 -103t2 -103q1 -24 1.5 -48t-1.5 -48q-2 -21 -4.5 -42.5t-3.5 -42.5
q0 -6 -7 -13.5t-10 -11.5q-8 -8 -17 -16t-19 -16q-8 -6 -16 -11.5t-16 -9.5t-10 -1q-2 -2 -3 -2q2 2 0 -0.5t-5 -4.5v-1q-14 -14 -29 -27.5t-32 -24.5q-23 -16 -51 -26q-5 -2 -12 -4t-12 2q-15 11 -30.5 23.5t-33.5 19.5l-28 10t-29 9q-8 2 -14 2q-7 -6 -16 -11l-5 -3.5
t-10 -6t-9 -3.5t-3 4q4 15 14.5 27t21.5 23q15 14 33 28.5t38 22.5q16 6 31.5 6t32.5 -5q9 -4 17 -5v17t-1 18v87v1q-10 -1 -21 5q-11 7 -21 15.5t-19 18.5q-11 11 -21 22.5t-20 23.5q-7 9 -14.5 18.5t-9.5 20.5q-4 18 -2.5 36.5t4.5 35.5q6 39 6 75q0 8 -0.5 15t-0.5 15
q-8 0 -14 7l-6.5 6.5t-6.5 7.5q-4 3 -8 5.5t-9 3.5q-4 -2 -4 3l-4 2q-2 4 1 8q4 8 10.5 15.5t13.5 13.5q3 3 11 9q-9 2 -17.5 2t-16.5 -2t-9 1t0.5 7.5t4.5 9.5t5 7q9 11 20.5 21.5t25.5 15.5q-1 5 -1 10.5v10.5q-3 33 -6 66.5t2 66.5q2 17 7 33.5t13 32.5q5 9 10.5 17
t11.5 16q7 8 13.5 15t13.5 14q2 2 5.5 5t5.5 5l2 2l-5 -5q8 8 12 11q2 2 7.5 7t13.5 10q0 2 2 8q1 3 4 2.5t3 -3.5q5 3 9.5 4.5t6.5 -0.5q3 -4 -3.5 -12t-12.5 -14v-8q1 -8 1 -16.5t1 -16.5q1 -6 1.5 -11.5t0.5 -10.5l8.5 8.5t8.5 6.5q9 8 19 17t21.5 16t24 10.5t25.5 0.5
q13 -2 25.5 -7t25.5 -8q10 -2 15 -1q3 2 6 5l6 6q8 8 17.5 15t20.5 12q14 5 7 -8q-1 -1 -1.5 -2t-1.5 -2q4 3 7.5 5.5t7.5 5.5q1 0 5 3t8.5 5.5t8 3.5t5.5 -1zM150 211q2 -16 10 -29.5t19 -25.5v21.5t-1 21.5q-2 52 -5.5 103.5t-5.5 103.5t0 103.5t0 103.5q-1 8 -1.5 16
t-0.5 16q-6 -2 -7.5 1t1.5 8q2 2 2.5 3t2.5 3l-3 36v9.5t-1 9.5q-7 -17 -10 -39q-6 -42 -1 -88q2 -22 3.5 -43t2.5 -42q2 -29 2.5 -57.5t0.5 -57.5l2 -48t-3 -48q-2 -20 -5.5 -40.5t-1.5 -40.5zM185 404q1 -16 1.5 -32t1.5 -33q18 11 40.5 14t42.5 -3q11 -3 20.5 -8
t19.5 -11q-2 19 -2.5 37t-2.5 36q-5 -5 -12 -8q-21 -11 -45 -12q-16 -1 -34.5 3t-29.5 17zM198 136q9 -11 18 -20.5t20 -17.5q6 -5 12 -10.5t14 -8.5q7 8 13.5 15t14.5 14q7 6 14 12.5t14 12.5q0 34 -1 67.5t-3 68.5q0 10 -0.5 19.5t-1.5 19.5q-2 1 -3.5 2t-3.5 2
q-8 5 -17 10.5t-19 8.5q-21 7 -38 4q-11 -1 -21 -3.5t-21 -4.5q2 -30 3.5 -60t2.5 -59zM323 -67q1 32 -0.5 63.5t-2.5 63.5q-1 10 -1 20v20q-1 -2 -3 -4q-23 -26 -47.5 -49.5t-53.5 -40.5q-4 -2 -7.5 -4t-8.5 -4q1 -26 1.5 -51t0.5 -51q1 -9 1 -17.5v-17.5q6 -2 11.5 -5
t10.5 -6q9 -5 17.5 -11.5t16.5 -12.5q3 -2 7 -6t8 -6q1 0 1 1q3 0 7 2q3 3 11 9q2 2 8.5 8t15.5 13q2 22 4.5 43t2.5 43zM331 665q2 3 4.5 6.5t4.5 6.5q-14 -12 -30 -23.5t-33 -18.5q-23 -8 -47 -2q-10 2 -19 6t-19 6q-4 1 -12 1q1 -6 1 -12t1 -13q3 -50 2 -99t0 -100
q2 0 4 -2q11 -14 28.5 -18.5t34.5 -2.5q20 2 37 11q9 6 17 14q0 11 -0.5 21t-0.5 21q-2 33 -1.5 66.5t6.5 65.5q3 17 8.5 34t13.5 32zM548 -1q3 -4 -0.5 -11t-5.5 -9q-12 -18 -29 -32q-26 -22 -55.5 -36.5t-64.5 -12.5q-23 1 -46 6.5t-46 10.5q-18 5 -36 7t-37 0
q-3 -1 -8 -1q-2 -1 -4 -1h-1q-4 -1 -8 -1.5t-9 -1.5l-3 -3q-2 -2 -8 -6t-12.5 -7t-12 -3.5t-6.5 5.5q-2 5 1 10.5t6 10.5q8 12 19.5 22.5t22.5 19.5q13 10 27 17.5t30 11.5q18 5 37 8.5t38 2.5q26 -2 50.5 -8.5t49.5 -11.5q12 -2 24.5 -4t25.5 -1h8h2q6 2 10 3q5 3 10 6.5
t10 5.5q3 2 10.5 5t10.5 -2z" />
    <glyph glyph-name="brokenbar" unicode="&#xa6;" horiz-adv-x="166" 
d="M124 680q-1 -5 -2 -9.5t-1 -9.5q-2 -11 -2 -22.5v-22.5q0 -25 1.5 -49.5t3.5 -50.5t3 -52.5t-1 -52.5q-2 -35 -3.5 -69t-1.5 -69q0 -6 -4.5 -12t-8.5 -10q-11 -15 -29 -28q-2 -1 -8 -5t-12.5 -7.5t-12 -3.5t-6.5 6q-3 35 0 70.5t5 70.5q1 16 1.5 31.5t-0.5 31.5
q-1 11 -1.5 22t-2.5 22q-2 26 -3 51.5t-1 51.5q1 20 3 41t12 40q8 15 21.5 27.5t27.5 21.5q2 1 7.5 4t11 4t8 -1t-0.5 -9q-2 -4 -3 -7q0 -1 -0.5 -2.5t-0.5 -2.5zM118 -123q-2 -26 -4 -51.5t-4 -51.5q-1 -13 -1.5 -26t0.5 -26q1 -12 2.5 -23.5t2.5 -23.5q1 -5 -4.5 -11.5
t-7.5 -9.5q-13 -16 -29 -27q-1 -1 -6.5 -4.5t-12 -7.5t-12 -5.5t-6.5 2.5q-9 23 -9.5 49.5t1.5 51.5q2 26 4.5 52t3.5 52q2 28 0.5 55.5t-3.5 56.5l-4 58t0 58q1 6 4.5 11.5t7.5 10.5q6 7 13 13.5t15 12.5q2 1 8 5t12.5 7t11.5 3.5t6 -5.5q3 -28 4 -56.5t3 -57.5
q2 -28 3.5 -55.5t0.5 -56.5z" />
    <glyph glyph-name="section" unicode="&#xa7;" horiz-adv-x="388" 
d="M287 624q-2 -2 -2 -2.5t1 1.5q-24 -32 -56 -48q-3 -2 -9.5 -4.5t-9.5 1.5t0 10t5 8q11 17 25 31.5t28 28.5q-9 22 -24 40.5t-35 30.5q-11 6 -19.5 10t-20.5 6q-6 1 -12 1.5t-11 0.5h-5q-1 -2 -1 -7q-11 -58 17 -110q13 -26 31 -49t37.5 -45t39 -44.5t35.5 -46.5
q16 -23 27 -49.5t13 -55.5q2 -40 -14.5 -78t-43.5 -67q-11 -11 -28 -23q26 -28 47 -58t31 -68t-4 -77t-38 -67q-16 -18 -36 -35.5t-43 -30t-48 -17.5t-50 3q-35 11 -62.5 39t-28.5 67q0 24 7 47t20 43.5t30.5 37t38.5 28.5q5 2 10 4.5t10 4.5q4 2 8.5 1t3.5 -6q-1 -6 -5 -12
t-8 -11t-7.5 -8.5l-8.5 -8.5q-4 -8 -5 -12t-3 -13q-2 -15 -2 -29.5t7 -28.5q8 -17 20.5 -30.5t29.5 -23.5q8 -5 16.5 -8t18.5 -5q8 -2 16.5 -2t13.5 1q1 0 1.5 0.5t1.5 0.5q3 7 5 13l2 6q0 2 0.5 3.5t0.5 3.5q1 5 1.5 8.5t0.5 8.5q2 38 -15 71t-41 61q-12 14 -25 27t-26 27
q-11 12 -23 24.5t-20 26.5q-14 23 -19 50t-7 53q-1 29 3 59t17 57q16 36 45 63l1 1q-30 35 -55.5 72.5t-31.5 84.5q-5 30 1.5 61t25.5 56q12 16 27.5 31.5t33.5 28.5t38 21t41 10q23 2 46 -5.5t41 -21.5q23 -17 35.5 -39.5t17.5 -48.5q2 -5 -4 -12.5t-9 -10.5
q-9 -13 -26 -25q-9 -11 -18 -18l-12 -12zM78 12l12 6zM160 372q-2 -27 1 -54.5t13 -52.5q9 -23 25.5 -42t33.5 -37l1 1q3 7 6 13t5 13q5 11 6 25.5t-1 30.5q-3 28 -14 51q-11 26 -28 49t-36 45q-2 2 -2.5 3t-2.5 2q0 -2 -0.5 -3t-0.5 -3q-1 -3 -1.5 -6.5t-1.5 -6.5
q-1 -7 -1.5 -14t-1.5 -14z" />
    <glyph glyph-name="copyright" unicode="&#xa9;" horiz-adv-x="640" 
d="M458 500q3 -1 2.5 -5t-1.5 -6q-8 -14 -19 -25q-15 -15 -31 -25l-12 -6q-11 -7 -26 -7q-10 0 -20 3q-11 3 -20.5 8t-19.5 11q-11 8 -22.5 17.5t-20.5 20.5q0 -1 -1 -1v-1q-1 -5 -1.5 -8.5t-0.5 -8.5q-2 -19 -0.5 -37.5t2.5 -37.5t-1 -38t2 -37q4 -15 13.5 -26t21.5 -20
t24.5 -17t23.5 -18q2 2 4 2q6 5 12 9t13 7l-6 -3l2 1t5.5 3t5.5 3q7 4 15 4t3 -12q-6 -13 -17 -24.5t-22 -19.5q-8 -15 -20 -26.5t-25 -22.5q-2 -1 -8 -5.5t-13 -8t-13 -5t-9 2.5q-9 12 -21 21.5t-25 18.5q-11 8 -23.5 16.5t-19.5 19.5q-8 13 -11 27t-4 28.5t0 29t0 29.5
q-2 31 -1.5 60.5t16.5 57.5q11 18 26 33t32 29q1 1 2 1.5t2 2.5q2 4 2 6q3 8 9.5 15t12.5 13t11.5 11t12.5 10q1 1 7.5 5.5t13.5 8t13.5 5.5t8.5 -2q8 -17 21 -30.5t27 -24.5t29.5 -19t33.5 -10q3 0 5 -3zM541 644q22 -24 37 -53t23.5 -60.5t11 -65t-0.5 -64.5
q-8 -79 -44 -151.5t-93 -126.5q-35 -33 -75.5 -60t-88.5 -40q-32 -8 -65 -9.5t-64 10.5q-57 23 -92.5 73t-51.5 106q-8 29 -13 59.5t-3 60.5q1 36 11 70t27 65q26 46 60 84.5t75 70.5q35 28 74 49.5t82 34.5q2 0 3.5 0.5t2.5 0.5q29 11 64 5q11 -2 23 -4t23 -6
q44 -17 74 -49zM502 235q11 31 18 64t8 68q0 32 -5.5 64.5t-18.5 62.5q-11 29 -29.5 55t-44.5 44q-27 19 -55 26q-10 2 -19.5 3.5t-19.5 3.5q-5 1 -10.5 1.5t-10.5 -0.5h-7q-2 -1 -3 -1t-1 -0.5t-1 -0.5q-3 -2 -10 -4.5t-10 1.5q0 1 -0.5 1t-0.5 1q-4 -2 -8 -3.5t1 0.5
q-2 -1 -3 -1t-3 -1q-8 -3 -14.5 -6.5t-14.5 -7.5l-4 -2l-4 -2q-1 -1 -2 -1.5t-2 -1.5q-9 -5 -16 -10q-2 -2 -4 -2.5t-4 -2.5q-4 -4 -6 -5q-4 -3 -10 -9h-1l-6 -6t-5 -6h-1q-2 -3 -6 -7q-2 -2 -3 -4t-3 -4q0 -1 -1 -2l-2 -2q-20 -27 -33.5 -57.5t-18.5 -66.5
q-6 -59 7.5 -118.5t45.5 -109.5q16 -24 36 -44.5t46 -34.5t55.5 -17t57.5 3q9 2 18.5 4.5t18.5 6.5h2l1 1q2 1 8 3l12 6q2 1 3 2t2 1q3 2 7 4q1 2 2 2.5t3 2.5q2 1 2.5 1.5t2.5 1.5q1 3 4 4q1 1 2 2.5t3 3.5l1 1q2 2 4 5t4 5q1 1 3.5 5t4.5 6q2 3 4.5 6.5t4.5 7.5q1 1 3 4.5
t1 2.5q2 4 3 5l4 8l4 8q4 8 7.5 16t6.5 16z" />
    <glyph glyph-name="ordfeminine" unicode="&#xaa;" horiz-adv-x="281" 
d="M229.398 652.469q-1.06152 -32.3877 3.98047 -51.2363q5.04199 -18.8477 10.8799 -28.9355q6.89844 -11.6816 16.4512 -16.46q-37.1494 -33.4492 -66.3379 -59.9961q-12.7363 -11.1504 -24.6768 -22.0342q-11.9414 -10.8848 -21.2285 -19.3799t-14.8594 -13.5391
l-5.57227 -5.04395q-7.42969 14.335 -21.4932 24.6885q-14.0645 10.3535 -28.3926 17.7871q-16.9824 8.49512 -35.5576 14.335q4.77637 1.0625 9.81836 2.9209t9.28711 8.49512q4.24609 6.63672 6.89941 20.1758t2.65332 37.9629q0 13.8037 -3.71484 21.5029
q-3.71484 7.69824 -7.96094 11.415q-5.30664 4.24805 -11.1445 5.30957q26.0049 23.3613 47.2324 41.4141l47.7627 41.4131q5.83789 -12.2119 13.7988 -19.3789q7.95996 -7.16797 15.3896 -10.8848q1.59277 28.1406 5.30762 45.9268q3.71484 17.7871 4.24512 18.8486
q-14.8594 15.9287 -28.127 22.0342t-23.3506 7.16797q-3.18457 -9.02637 -2.91895 -14.8662q0.265625 -5.84082 1.5918 -10.8848q1.32715 -5.04395 2.91895 -10.3535q1.59277 -5.30957 1.59277 -13.2734l-57.8467 -52.5635q0 16.9902 -4.77637 25.4854t-10.6143 12.2119
q-6.89941 3.71582 -15.9209 3.18555l65.8066 59.4658l65.8076 59.4658q7.42969 -14.3359 21.4932 -24.9551q14.0635 -10.6182 28.3926 -18.0518q16.9824 -8.49512 35.5566 -14.3359q-4.77637 -1.06152 -10.083 -3.98145q-5.30762 -2.9209 -10.084 -12.4775
t-8.22559 -28.1396t-3.98047 -50.4404zM122.197 522.919q15.9209 -17.5215 30.5156 -23.0967q14.5938 -5.57422 25.208 -5.04395q5.30664 15.3975 5.57227 31.8564q0.265625 16.46 -1.5918 32.6533q-1.85742 16.1943 -5.04199 32.1221q-3.18457 15.9287 -4.24609 29.7334
l-23.3506 -24.9541q-12.7363 13.8037 -24.9424 20.1758q1.06152 -6.90234 2.12207 -14.0703q1.06152 -7.16797 1.06152 -14.6016q0 -10.0879 -0.795898 -21.2373t-1.5918 -20.707q-0.795898 -9.55664 -1.85742 -15.9277q-1.06152 -6.37207 -1.06152 -6.90234z" />
    <glyph glyph-name="guillemotleft" unicode="&#xab;" horiz-adv-x="401" 
d="M217 538q2 1 5 4q1 1 0 0t-5 -4zM264 561q3 -4 0 -9.5t-5 -7.5q-5 -8 -11 -14.5t-13 -12.5q2 2 3 2.5t2 1.5q-2 -1 -5 -4l-5 -5q-1 -1 -2 -2.5t-2 -2.5q-2 -2 -3.5 -4t-3.5 -4q-17 -20 -34.5 -39t-37.5 -37q-5 -5 -9 -8.5t-9 -8.5q-4 -4 -7 -6l-13 -13q-1 -3 -4 -4v-1
q0 -1 -1 -1v-1q-1 -10 0 -19q3 -23 13 -45q11 -29 26.5 -56.5t33.5 -53.5q14 -21 29.5 -41.5t32.5 -39.5q3 -4 0 -10t-5 -8q-13 -18 -27 -29q-8 -6 -15.5 -11.5t-16.5 -10.5q-3 -2 -9 -4t-10 1q-15 14 -28 31q-36 46 -67 102q-14 25 -26 51.5t-16 54.5q-2 18 3.5 34t16 30
t23.5 27t25 24q10 10 20 19t21 19l2 2q2 1 2.5 2t2.5 3l7 7l3 3q7 8 13 16t14 16q5 5 10.5 11.5t10.5 11.5q4 4 8 7t8 7q-3 -2 4 3.5t9 7.5q6 5 12 9t13 7q2 2 8 4t9 -1zM321 520l3 3zM365 143q2 -5 -0.5 -9.5t-4.5 -8.5q-5 -8 -11.5 -14.5t-14.5 -13.5q-8 -6 -15.5 -11.5
t-15.5 -9.5q-3 -2 -9 -4.5t-10 1.5q-20 20 -36.5 44t-32.5 48q-17 27 -33 55t-29 58q-11 26 -17 54q-1 12 6 22l4 4.5t7.5 8.5t4.5 5.5t-5 -4.5q2 2 2.5 3t2.5 2l12 14t11 14q12 15 24 30.5t25 31.5q5 7 11 13.5t12 14.5q5 5 9 9.5t9 9.5l5.5 5.5l7.5 7.5t4 3.5t-5 -4.5
q8 7 15.5 13.5t15.5 11.5q5 3 11 6t12 3q5 0 4.5 -4t-3.5 -9t-7 -10.5t-7 -8.5l-4 -6q1 2 -1 -1l-3.5 -3.5l-3.5 -3.5q-4 -5 -7.5 -9.5t-7.5 -9.5q-8 -10 -15 -19t-15 -19q-11 -14 -22 -27.5t-22 -27.5q8 -35 24.5 -66.5t34.5 -61.5l22 -34t23 -34q10 -14 20 -28.5t18 -30.5
zM324 524q2 1 0 -1v1z" />
    <glyph glyph-name="logicalnot" unicode="&#xac;" horiz-adv-x="833" 
d="M90 447h458v-55h-458v55zM482 457h76v-235h-76v235z" />
    <glyph glyph-name="registered" unicode="&#xae;" horiz-adv-x="586" 
d="M456 650q34 -18 56.5 -49.5t35 -68.5t16.5 -76.5t2 -74.5q-3 -42 -13 -84t-30 -80q-26 -52 -67.5 -94.5t-92.5 -68.5q-41 -21 -84.5 -23.5t-86.5 11.5q-31 11 -59 27t-50 41t-35.5 54.5t-19.5 61.5q-14 72 3.5 141.5t53.5 131.5q23 41 55.5 75.5t72.5 57.5q66 40 139 37
q5 0 5 -2q13 2 25.5 2t26.5 -2q23 -4 47 -17zM466 249q8 42 9 83t-7 83q-2 11 -3.5 17.5t-5.5 17.5l-6 18t-7 17q-18 35 -40 59q-11 11 -26 21q-4 3 -7.5 5t-7.5 4q-4 1 -8 4q-2 0 -2.5 0.5t-1.5 0.5q-43 15 -87 4q-9 -2 -10.5 1.5t0.5 8.5q-7 -1 -13 -1.5t-12 -2.5
q-17 -3 -31 -9q-3 -1 -7 -3q-1 -1 -2 -1t-2 -1q-2 -2 -4 -3.5t1 1.5q-4 -4 -5 -7q-1 0 -1 -1q-1 -1 -5 -7q-2 -3 -4.5 -6.5t-4.5 -7.5q-1 -1 -1 -2q-1 -1 -1 -2q-2 -4 -3 -5q-2 -5 -4.5 -8.5t-4.5 -8.5q-7 -16 -13.5 -31.5t-11.5 -32.5l-2 -7q-1 -2 -1 -4t-1 -4
q-1 -4 -1.5 -8t-1.5 -8q-2 -8 -3 -16l-2 -16q-4 -31 -1 -66q3 -29 12 -57t25 -53q0 11 0.5 20.5t0.5 20.5q1 21 -2 42t-4 43q-2 23 0 46.5t13 43.5q5 11 11.5 19.5t13.5 17.5q0 1 0.5 1.5t0.5 1.5q2 1 4 5q2 2 4 6q1 2 2 4.5t-1 -2.5q3 7 8.5 13.5t10.5 11.5q8 7 15.5 13.5
t15.5 11.5q3 2 8 4.5t9.5 3.5t7.5 0t3 -6q2 -8 -4 -17.5t-11 -15.5q-2 -4 -8 -12q-2 -2 -4 -6q-4 -7 -5.5 -14.5t-3.5 -15.5q9 5 14 3q5 5 10.5 8.5t10.5 7.5t8.5 7t8.5 7q3 3 11 9q9 8 22 18t27 10h3q6 0 6 -5q6 -6 13 -11t13 -11q7 -6 14 -14t5 -19q-2 -18 -15 -34
t-27 -28q1 -1 2 -1.5t2 -1.5q5 -2 5.5 -2.5t5.5 -2.5q8 -2 14.5 -6t9.5 -12q5 -14 6 -29.5t-1 -29.5q-2 -15 -3.5 -30t5.5 -29q2 -5 -0.5 -10t-5.5 -9q-5 -8 -12 -15.5t-15 -14.5l-16 -12t-17 -11q-3 -1 -10 -3.5t-10 1.5q-11 14 -11 29t3 32q2 13 3 28t-5 27q-5 9 -10 11
q-1 1 -2 1l-2 1q-1 0 -5 2q-20 7 -33 23q-3 4 -0.5 9.5t7 11.5t9.5 11.5t7 7.5q7 7 14 13t15 12q-1 1 -1 2q-2 2 -2.5 3.5t-2.5 3.5l-7.5 7.5t-7.5 6.5q-3 3 -6.5 5.5t-6.5 5.5q-3 -2 -6.5 -5t-6.5 -5q-7 -5 -13.5 -10t-13.5 -10q0 -5 1 -7q2 -22 4 -42.5t1 -41.5v-31
q0 -4 -0.5 -7.5t0.5 -6.5q0 -7 -3 -11q1 -2 -1 -7q-8 -17 -23 -30.5t-30 -23.5q-3 -2 -7.5 -4t-9.5 -4q33 -38 79.5 -60t97.5 -22q5 1 10.5 1t10.5 1h3h1q2 1 4 1t4 1q5 1 9.5 2t9.5 3q1 0 2 1l6 3q1 0 5 2q1 0 1 0.5t1 0.5q1 1 1 2l6 6q2 4 4.5 7.5t5.5 7.5q1 1 1.5 2.5
t1.5 3.5t1.5 2.5t1.5 2.5l4 8t4 9q4 9 7.5 18.5t6.5 19.5q1 1 1 2t1 3q1 4 3 10q1 5 2 9.5t2 9.5z" />
    <glyph glyph-name="degree" unicode="&#xb0;" horiz-adv-x="293" 
d="M247 665q11 -16 15 -35.5t1 -38.5q-5 -35 -27 -62t-49 -47q-15 -11 -31 -18.5t-35 -9.5q-13 -1 -25.5 2.5t-23.5 8.5q-15 7 -29 16.5t-20 25.5q-7 14 -6.5 28t5.5 28q10 31 31 57.5t43 50.5q11 13 25.5 25.5t31.5 17.5q8 2 9.5 -1t-0.5 -8t-5.5 -10.5t-4.5 -7.5
q-2 -2 -3 -3.5t-3 -3.5q9 7 21 10q23 5 44.5 0t35.5 -25zM105 586q8 -20 28 -34.5t43 -18.5q1 5 0.5 10.5t-1.5 11.5t-1.5 8.5t-2.5 7.5q-2 4 -3.5 8t-3.5 8q-11 17 -25 23t-33 6v-1q-2 -7 -2.5 -15.5t1.5 -13.5z" />
    <glyph glyph-name="plusminus" unicode="&#xb1;" horiz-adv-x="723" 
d="M332 519h64v-408h-64v408zM200 357h323v-80h-323v80zM191 51h349v-51h-349v51z" />
    <glyph glyph-name="twosuperior" unicode="&#xb2;" horiz-adv-x="222" 
d="M198.258 476.176q1.12207 -1.49512 -0.186523 -3.9248t-2.05664 -3.55078q-1.49609 -1.86914 -2.80469 -3.7373q-1.30957 -1.86914 -2.80469 -3.73828v0.374023q-6.73145 -8.9707 -16.0811 -15.3252q-4.11328 -2.61621 -7.85254 -4.85938
q-3.74023 -2.24219 -8.22754 -4.11133q-7.10547 -2.24219 -13.8369 -0.560547t-13.0879 5.60645q-6.35742 3.9248 -12.1543 8.9707q-5.7959 5.0459 -10.2842 9.15723q-11.9668 10.8398 -24.4941 22.4277q-12.5273 11.5869 -27.8604 18.3145
q-7.47949 2.99023 -14.585 2.61719q-2.99121 -1.86914 -5.7959 -3.36426t-5.79688 -2.99023q-0.74707 -0.374023 -2.05664 -0.93457q-1.30859 -0.560547 -2.80469 -0.748047q-1.49512 -0.186523 -2.43066 0.1875q-0.93457 0.373047 -0.93457 2.24219
q0.374023 3.73828 3.55273 7.47559q3.17871 3.73828 5.7959 5.98047q5.23535 5.2334 11.4062 10.4658q6.16992 5.2334 13.6494 8.59766l0.748047 0.74707l2.24414 2.24316q1.12109 1.49414 2.43066 2.80273q1.30859 1.30859 2.43066 2.80371q2.24316 2.99023 4.4873 5.41992
q2.24414 2.42871 4.4873 5.0459q4.86133 5.98047 9.72363 11.4004q4.86133 5.41992 9.72266 11.4004q1.49609 2.24219 2.24414 2.99023q0.748047 0.74707 1.49512 2.24219q0.748047 0.748047 1.49609 1.86914t1.49609 1.86914q1.87012 2.99023 4.11328 5.98047
q2.24414 2.99023 4.11426 5.98047q1.86914 3.36328 4.11328 6.91406q2.24316 3.55078 4.11328 6.91504q0.374023 0.374023 0.748047 1.12207q0 0.373047 0.186523 0.373047q0.1875 0 0.1875 0.374023l0.374023 0.374023q0.374023 0.74707 0.560547 1.30762
q0.1875 0.561523 0.935547 1.30859q0.748047 1.86914 1.68262 3.17676q0.93457 1.30859 1.68262 3.17773q2.61816 5.23242 4.86133 10.4658q2.24414 5.23242 4.11426 10.4658q0.374023 0.74707 0.560547 1.49512q0.186523 0.74707 0.560547 1.49512v0.74707
q0 0.374023 0.1875 0.560547q0.186523 0.1875 0.186523 0.561523l1.12207 4.48438q0.748047 2.61719 0.93457 4.85938q0.1875 2.24316 0.561523 4.85938q0.374023 4.11133 0.186523 8.22266q-0.186523 4.1123 -1.30859 8.22363q-2.99121 10.0918 -10.0967 16.8203
q-7.10547 6.72754 -16.8281 10.8389q-5.23633 1.86914 -10.6582 3.36426q-5.42285 1.49512 -11.4062 1.12207h-2.43066t-2.43066 -0.374023h-1.12207q-0.748047 -0.374023 -2.24316 -0.374023q-2.99219 -0.748047 -5.79688 -1.49512t-5.7959 -1.86914l-3.36621 -1.12109
q-0.748047 0 -1.12207 -0.374023q-0.374023 0 -0.560547 -0.186523q-0.1875 -0.186523 -0.560547 -0.186523v-0.748047q0 -2.61621 -1.87012 -4.85938q-1.87012 -2.24219 -3.36621 -4.11133q-4.86133 -5.98047 -11.9668 -11.2129q-0.748047 -0.748047 -3.17871 -2.42969
q-2.43066 -1.68262 -5.23535 -2.99023q-2.80469 -1.30859 -5.04785 -1.49512q-2.24414 -0.1875 -2.24414 2.42871q-0.748047 5.98047 2.43066 11.0273q3.17871 5.0459 6.54492 9.53125q5.23535 7.10156 12.3398 12.8955q7.10547 5.79297 14.585 10.6523
q9.34863 6.35449 20.1943 10.8398q10.8447 4.48535 21.6895 6.35449q4.4873 0.74707 8.97461 1.30762q4.48828 0.560547 8.97559 -0.186523q5.60938 -0.748047 11.0322 -2.80371q5.42188 -2.05566 10.6572 -4.29785q8.22754 -4.1123 14.585 -10.4668
q6.35742 -6.35352 9.34863 -15.3242q3.36621 -11.2139 1.87012 -22.6143q-1.49609 -11.3994 -5.23535 -22.2393q-5.23535 -14.9512 -13.2754 -28.7812t-16.6416 -26.9121q-9.72266 -14.2031 -20.5684 -27.2861q-10.8447 -13.082 -22.0635 -26.1641
q-3.73926 -4.1123 -7.29199 -8.41016q-3.55273 -4.29883 -7.66602 -8.41016q13.0879 -1.49512 24.1201 -9.53125t20.7549 -16.2598q6.35742 -5.98047 12.9014 -11.9609q6.54492 -5.98047 13.2764 -11.9609q5.23535 -4.48535 10.8447 -8.7832
q5.60938 -4.29883 11.9668 -7.28906q1.87012 -0.74707 3.36523 -1.12109q1.49609 -0.374023 3.36621 -0.374023q5.9834 4.85938 12.3408 8.22266q1.12207 0.374023 3.73926 1.49609q2.61816 1.12109 4.11328 -0.748047z" />
    <glyph glyph-name="threesuperior" unicode="&#xb3;" horiz-adv-x="219" 
d="M169.699 624.981q11.4102 -7.74121 17.5381 -18.9824q6.12793 -11.2422 8.0293 -23.5898q1.90137 -12.3486 0.422852 -25.249q-1.47949 -12.9004 -5.2832 -23.958q-4.64844 -14.0068 -12.0439 -27.0918t-18.3838 -24.5117q-6.76172 -7.00293 -14.5801 -13.8213
q-7.81836 -6.81934 -16.9043 -12.1641t-19.2285 -9.03027q-10.1426 -3.68652 -20.707 -4.79199q-14.3691 -1.47461 -27.8926 2.58008t-24.5117 12.5322q-5.07031 4.05469 -9.29688 8.66211t-5.91602 10.1357q-2.53613 7.74121 -0.845703 14.1914t6.33887 12.7158
q4.64941 6.2666 12.0449 11.7949q7.39551 5.5293 15.002 8.84668q1.26855 0.737305 4.22656 1.6582q2.95801 0.921875 4.64844 -0.552734q0.844727 -1.47461 0 -3.13281t-1.69043 -3.13281q0.422852 0.368164 -0.210938 -0.737305q-0.634766 -1.10547 -1.05664 -1.84277
q0 -0.369141 -0.211914 -0.921875q-0.210938 -0.552734 -0.210938 -0.921875q0 -0.368164 -0.210938 -0.736328q-0.211914 -0.369141 -0.211914 -1.10645v-3.50098q0 -1.65918 0.845703 -3.50195q3.38086 -10.3203 13.3115 -17.6924q9.93164 -7.37207 20.9189 -11.4268
q9.7207 -3.68555 21.1309 -3.68555h7.18457q0.422852 0 0.844727 0.369141h0.845703q0.844727 0 1.05664 0.183594q0.210938 0.18457 1.05664 0.18457q1.26758 0.368164 2.74609 0.552734q1.47949 0.18457 2.74707 0.921875h0.422852q0.422852 0 0.422852 0.183594
q0 0.18457 0.422852 0.18457l0.421875 0.737305l0.845703 0.737305q1.69043 2.21094 3.38086 4.79199q0.844727 0.368164 1.69043 1.84277v0.368164q1.69043 2.58008 2.95801 5.16016q2.53516 4.42383 4.64844 8.84668t3.80371 9.21484l0.844727 1.84277
q0 0.737305 0.211914 1.10547q0.210938 0.369141 0.210938 1.10645q0.845703 1.84277 1.69043 4.79102q0.845703 2.58008 1.05664 4.97656q0.210938 2.39551 1.05664 4.97559q1.69043 9.95215 1.47949 20.0879q-0.211914 10.1367 -3.16992 20.0889
q-3.38086 9.58301 -9.93164 19.3506q-6.5498 9.76758 -17.5381 14.1914q-8.45215 2.58008 -17.749 2.58008q-5.91699 0.368164 -11.4111 0h-2.74609q-1.47949 0 -2.74707 -0.369141q-0.845703 0 -2.53613 -0.18457q-1.69043 -0.183594 -1.26758 -0.183594
q-2.53516 -0.369141 -5.07129 -0.737305q-2.53613 -0.369141 -5.07129 -1.10547q-2.53516 -2.58105 -5.28223 -4.97656t-6.12793 -4.23828q-0.845703 -0.369141 -3.38086 -1.84375q-2.53613 -1.47363 -5.70508 -2.76367q-3.16992 -1.29004 -5.49414 -1.47461
t-2.32422 2.02734v1.84277q-0.422852 -1.47461 0.210938 1.10547t0.210938 2.21191q0.845703 1.47461 1.69141 2.76465q0.844727 1.29004 1.68945 2.39551q9.29785 10.3203 20.708 18.0615q8.03027 5.16016 16.9043 9.21387q0.845703 0 1.69043 0.737305l6.33984 4.42383
q0.421875 0.368164 1.26758 0.736328q0.844727 0.369141 1.69043 1.10645l0.422852 0.368164l4.22559 3.68652q0.844727 0.736328 1.47949 1.47363q0.633789 0.737305 1.47852 1.47461q0.845703 0.737305 1.47949 1.6582q0.633789 0.921875 1.47949 1.65918
q1.26758 1.47461 2.53516 2.94824q1.26758 1.47461 2.53516 3.31738q0.845703 0.737305 1.26855 1.84375q0.422852 1.10547 1.26758 1.84277l0.422852 0.368164q0 0.369141 0.421875 0.737305q2.11328 3.31738 3.80371 6.81934q1.69043 3.50098 2.95801 7.1875
l0.845703 1.47363v0.369141q0.422852 1.47461 1.26758 3.68555q0.422852 1.84375 0.633789 3.31738q0.211914 1.47461 0.211914 3.31738q0.421875 5.16016 -0.845703 12.5322q-2.95801 7.74023 -9.29688 14.0068q-6.33984 6.26562 -14.791 9.58301
q-7.60742 2.58008 -15.8486 3.87012q-8.24023 1.29004 -16.6924 0.921875q-2.11328 -2.94922 -4.22656 -4.79199q-5.49414 -5.89746 -13.5234 -11.0576q-0.844727 -0.737305 -3.5918 -2.21191q-2.74707 -1.47363 -5.70508 -2.76465q-2.95898 -1.28906 -5.2832 -1.47363
t-2.74609 2.39551q0 0.737305 -0.211914 0.737305q-0.210938 0 -0.210938 -0.737305q0 0.737305 -0.211914 0.921875q-0.210938 0.183594 -0.210938 0.920898v1.84277q0 2.21191 0.422852 2.94922q1.69043 5.89746 5.49316 10.6895q7.18457 8.47754 16.0596 15.2959
q8.875 6.81934 19.8623 11.2422q9.7207 4.42285 20.9189 5.71387q11.1992 1.28906 22.1875 -0.18457q11.4102 -1.47461 22.3975 -5.5293q10.9883 -4.05469 17.75 -12.9004q8.45215 -10.6895 7.81836 -22.8525q-0.633789 -12.1641 -5.70508 -23.5898
q-6.33984 -14.375 -16.6934 -26.9072t-22.6094 -23.5898q-1.26758 -0.737305 -2.11328 -1.84277q1.26758 0.368164 2.74707 0.368164t3.16992 0.368164q10.1426 0.737305 21.3418 0q11.1982 -0.736328 19.6514 -6.63379z" />
    <glyph glyph-name="mu" unicode="&#xb5;" horiz-adv-x="414" 
d="M147 487l3 3zM396 102q3 -4 -0.5 -10.5t-5.5 -9.5q-11 -16 -29 -31q-17 -15 -35 -25q-3 -1 -10.5 -4t-10.5 1q-8 9 -14 18.5t-11 20.5q-20 -21 -42 -39t-48 -32q-3 -2 -9.5 -4.5t-10.5 1.5q-14 13 -26.5 26.5t-24.5 28.5q-9 11 -21 19.5t-23 19.5t-14 23t-3 26
q0 33 -3 68q-8 73 -12 147q-2 18 -0.5 35t6.5 34q6 18 18.5 34.5t26.5 30.5q9 9 20 17t21 13.5t16.5 7.5t8.5 -1q3 -6 -1 -13.5t-9 -13.5q-2 -2 -5 -5.5t-6 -6.5q0 -1 -1 -3.5t0 -1.5q-3 -9 -3 -18q-2 -23 0.5 -44.5t4.5 -44.5q2 -26 4.5 -53t4.5 -53q1 -12 1.5 -23.5
t0.5 -23.5v-18t2 -17q5 -16 21 -26t27 -21q8 -8 14.5 -16t13.5 -16q5 -5 9.5 -10t9.5 -10l1 2q1 1 1 1.5t1 1.5q0 1 1 1q1 2 2 6t-1 -3q4 13 16 27q-4 32 -9 64.5t-9 64.5q-3 28 -7 57.5t-4 59t7 57.5t26 52q9 14 21 24.5t26 19.5q3 1 8.5 4t11 4.5t8.5 0t1 -8.5
q0 -2 -0.5 -2.5t-0.5 -1.5q-1 -2 -2 -5.5t-2 -4.5q-2 -5 -3 -8.5t-3 -8.5q-1 -1 -2 -4.5t-1 -2.5q0 -3 -1 -4q-1 -6 -1.5 -11.5t-0.5 -11.5q-2 -26 1 -51t6 -51q5 -27 8 -54.5t8 -54.5q3 -21 5 -43t7 -43q4 -14 11.5 -26.5t17.5 -23.5zM53 196h98v-437h-98v437zM20 -222h127
v-23h-127v23z" />
    <glyph glyph-name="paragraph" unicode="&#xb6;" horiz-adv-x="655" 
d="M118 430q0 31 9 58t24 47t35 32t43 12t43 -12t35 -32t24 -47t9 -58t-9 -58t-24 -47.5t-35 -32t-43 -11.5t-43 11.5t-35 32t-24 47.5t-9 58zM291 600h49v-780h-49v780zM229 579h357v-45h-357v45zM374 575h25v-755h-25v755z" />
    <glyph glyph-name="periodcentered" unicode="&#xb7;" horiz-adv-x="222" 
d="M179 358q2 -7 -0.5 -13.5t-7.5 -11.5q-8 -11 -17.5 -20.5t-20.5 -17.5q-15 -12 -33 -18q-5 -3 -11 1q-5 10 -12 19t-15 17q-3 5 -7 9.5t-7 9.5q-4 5 -5 11q0 2 1 0q-1 2 -1 4q-2 4 0.5 9.5t4.5 7.5q5 8 11.5 14.5t13.5 12.5q13 12 30 21q3 2 8.5 3.5t9.5 -1.5
q11 -1 20 -10.5t16 -17.5q5 -5 9 -10.5t8 -10.5q2 -2 3 -4z" />
    <glyph glyph-name="onesuperior" unicode="&#xb9;" horiz-adv-x="137" 
d="M111.472 533.058q1.47949 -0.740234 0.370117 -2.96094q-1.11035 -2.2207 -2.77441 -4.62598q-1.66504 -2.40625 -3.51465 -4.25684t-2.21973 -2.2207q-5.54883 -6.29199 -12.9473 -10.7334q-2.95996 -1.85059 -6.28906 -3.33105t-7.02832 -0.740234l-6.65918 1.11035
q-4.80957 0.740234 -9.61816 1.66602q-4.80957 0.924805 -9.61816 1.66504q-0.370117 0.370117 -1.48047 0.370117h-1.10938q-1.47949 0 -1.47949 0.370117q-4.06934 0.740234 -7.9541 1.2959q-3.88379 0.554688 -7.95312 0.554688q-1.11035 0.370117 -3.33008 0.370117
q-3.69922 -2.59082 -7.21289 -4.07129q-3.51465 -1.48047 -4.25488 0.370117l-0.370117 0.740234q-1.47949 0.370117 -1.47949 2.2207q-0.370117 2.96094 1.84961 5.7373q2.21973 2.77539 3.69922 4.62598q2.58984 3.33105 6.10449 6.47754q3.51465 3.14551 7.21387 5.73633
q4.06934 2.96094 8.13867 5.18164q4.06836 2.2207 9.24805 2.96094q0 2.96094 0.18457 6.10742q0.185547 3.14551 0.185547 6.10645q0 35.9014 -1.11035 72.1729q-0.739258 19.2461 -1.47949 38.3066q-0.740234 19.0615 -1.47949 38.3076
q-0.370117 4.07129 -0.555664 7.58691q-0.18457 3.5166 -0.18457 7.58789q-0.740234 -0.740234 -1.66504 -1.48047t-1.66406 -1.48047q-2.95996 -2.96094 -5.91895 -5.55176q-2.95996 -2.59082 -6.65918 -4.44141q-1.84961 -1.48047 -4.25391 -2.77637
q-2.40527 -1.29492 -4.99414 -0.924805q-3.3291 0 -1.47949 3.5166q1.84961 3.51562 4.43848 6.84668q0.740234 1.48047 1.84961 2.59082q1.11035 1.11035 2.21973 2.2207q0.740234 1.11035 1.66504 2.03516q0.924805 0.925781 1.66504 2.03613
q0.369141 0.740234 1.66406 2.2207t0.924805 1.11035q0.740234 0.740234 1.29492 1.66602q0.554688 0.924805 1.29492 1.66504q0.740234 1.11035 1.29492 2.2207t1.29492 2.59082q0.369141 0.370117 0.739258 1.11035t0.740234 0.740234q0.370117 1.11035 1.10938 2.59082
q1.11035 2.2207 2.03516 4.62695q0.924805 2.40527 1.66406 4.62598q1.84961 6.66211 7.21387 11.8438t10.543 9.25293q0.370117 0.370117 3.14453 2.2207t5.5498 3.33105q2.77441 1.48047 5.17871 1.66504q2.4043 0.185547 2.4043 -2.40527q0 -3.33105 0.370117 -4.81152
q1.10938 -33.6807 2.58984 -66.4355q1.47949 -32.7559 2.21973 -66.4365q0.739258 -17.7656 0.924805 -35.1611q0.18457 -17.3955 -0.555664 -35.1611q-0.369141 -5.18164 -0.554688 -10.3633q-0.18457 -5.18164 -1.29492 -10.3633q0 -1.11035 -0.739258 -3.33105
q2.95898 -0.740234 6.28906 -1.11035q3.3291 -0.370117 6.28809 -1.11035q2.21973 -0.740234 4.43945 -0.925781q2.21973 -0.18457 4.80957 -0.924805q0.739258 0 1.66406 -0.18457q0.924805 -0.185547 1.66504 -0.185547q1.47949 -0.370117 1.66504 -0.740234
q0.18457 -0.370117 2.03418 -1.11035z" />
    <glyph glyph-name="ordmasculine" unicode="&#xba;" horiz-adv-x="210" 
d="M230.445 675.888q-1.22461 -35.2617 4.59082 -55.7832q5.81445 -20.5215 12.5469 -31.5049q7.95703 -12.7168 18.9736 -17.9199q-42.8438 -36.418 -76.5078 -65.3213q-14.6895 -12.1387 -28.46 -23.9893q-13.7715 -11.8506 -24.4824 -21.0996
q-10.7119 -9.24902 -17.1377 -14.7402l-6.42676 -5.49219q-8.56934 15.6084 -24.7891 26.8799q-16.2197 11.2725 -32.7451 19.3652q-19.5859 9.24902 -41.0078 15.6084q5.50879 1.15625 11.6289 4.62402q6.12109 3.46875 11.6289 13.874q5.50879 10.4053 9.4873 30.6367
q3.97852 20.2324 4.59082 54.916q0.611328 34.6846 -4.89648 55.4941q-5.50879 20.8105 -12.2412 31.7939q-7.95703 12.7178 -18.9736 17.9199q42.8438 36.418 76.5068 65.3213q14.0771 12.1396 27.8486 23.9893q13.7715 11.8506 24.7891 21.0996
q12.2412 10.4053 23.8701 20.2324q8.56934 -15.6074 24.7881 -27.1689q16.2197 -11.5615 32.7461 -19.6543q19.5859 -9.24902 41.0078 -15.6074q-5.50879 -1.15625 -11.6289 -4.33594q-6.12109 -3.17969 -11.6299 -13.584q-5.50879 -10.4053 -9.48633 -30.6377
q-3.97852 -20.2324 -4.59082 -54.916zM106.809 534.84q18.3623 -19.0762 35.1943 -25.1455q16.8311 -6.06934 29.0723 -5.49219q6.7334 18.498 6.7334 38.4414t-3.06055 39.5977t-6.73242 38.1523q-3.67285 18.498 -3.67285 34.1055q0 19.0762 1.83594 35.8398
q1.83691 16.7646 3.97852 29.1924q2.14258 12.4287 3.97852 19.6543t1.83594 7.80371q-18.3613 18.498 -34.5811 24.8564q-16.2197 6.35938 -27.8486 6.9375q-6.7334 -18.498 -7.03906 -38.7305t2.44824 -40.1758t6.12109 -38.7305q3.36621 -18.7871 3.36621 -34.3945
q0 -19.0762 -1.83691 -35.5508q-1.83594 -16.4746 -3.97754 -28.9033q-2.14258 -12.4287 -3.97852 -19.6543q-1.83691 -7.22559 -1.83691 -7.80371z" />
    <glyph glyph-name="guillemotright" unicode="&#xbb;" horiz-adv-x="405" 
d="M251 368q9 -27 -1 -53q-11 -32 -33 -60.5t-45 -54.5q-11 -12 -21.5 -24.5t-21.5 -25.5q-3 -3 -5.5 -6t-5.5 -7q-1 -2 -3.5 -4.5t-2.5 -3.5q-3 -3 -4 -5l-6 -8v-1l4 6l-1 -1q-4 -6 -6 -8q-10 -15 -25 -27.5t-31 -20.5q-6 -3 -14.5 -3.5t-4.5 9.5q1 3 2.5 6.5t3.5 5.5
q1 2 2 3.5t2 3.5q2 4 3 5q4 5 7 9t7 9q5 6 9 11.5t9 10.5q21 25 44 50q5 7 11 14t11 14q1 1 2 2.5t3 3.5t3 4q2 2 3 3.5t3 3.5q2 4 4 7t4 7h1l3 6l2 6l2 6q1 0 1.5 2t0.5 1v3q3 15 -1.5 29t-13 27.5t-18.5 25t-19 21.5q-21 23 -44 46t-33 53q-3 10 8.5 23.5t26.5 25t29 18
t16 2.5t4 -7t4 -7q20 -28 44.5 -50.5t46.5 -48.5q11 -13 20 -27t14 -30zM378 395q3 -14 -1 -27t-11 -25q-17 -32 -39 -60q-6 -9 -12.5 -17.5t-13.5 -16.5q-2 -3 -5 -6.5t-5 -6.5l-2 -2q-11 -16 -20 -32.5t-19 -33.5q-14 -23 -29 -44.5t-34 -40.5q-11 -11 -23.5 -20.5
t-27.5 -14.5q-6 -2 -8.5 -0.5t-2.5 5t2 7.5t4 7q6 9 12.5 18t12.5 18q6 8 11.5 17t10.5 18q9 16 18 31.5t20 30.5q9 12 18.5 24.5t19.5 25.5q1 1 4 5t4 6l9 12q2 3 4.5 6.5t4.5 7.5q1 1 1.5 2.5t1.5 1.5v1q2 3 3 6.5t3 6.5q0 1 1 3t0 1q1 0 1 1q1 11 -2 24q-3 14 -10 26
t-15 24q-10 14 -19.5 27t-18.5 27q-5 6 -9 12.5t-7 13.5q-2 4 -3.5 7.5t-3.5 7.5t-2 7q-3 3 0 6q-2 6 1 12.5t8.5 12.5t11 11t9.5 8q1 1 8 6.5t15 10.5t15.5 8t9.5 -1q0 -2 1.5 -2.5t2.5 -2.5q2 -2 2.5 -3.5t1.5 -3.5q2 -3 4 -6.5t4 -6.5q8 -13 19 -29q10 -14 20 -27.5
t20 -27.5q8 -13 15 -27t9 -29z" />
    <glyph glyph-name="onequarter" unicode="&#xbc;" horiz-adv-x="468" 
d="M160.661 516.945q1.65625 -0.828125 0.414062 -3.31641q-1.24121 -2.48633 -3.10449 -5.18164q-1.8623 -2.69434 -3.93262 -4.76758q-2.06934 -2.07227 -2.4834 -2.48633q-6.20898 -7.04785 -14.4883 -12.0225q-3.31055 -2.07324 -7.03613 -3.73145t-7.86523 -0.828125
l-7.45117 1.24316q-5.38086 0.829102 -10.7627 1.86523q-5.38086 1.03613 -10.7617 1.86621q-0.414062 0.414062 -1.65625 0.414062h-1.24121q-1.65625 0 -1.65625 0.414062q-4.55371 0.830078 -8.89941 1.45117q-4.34668 0.62207 -8.90039 0.62207
q-1.24121 0.415039 -3.72461 0.415039q-4.13965 -2.90234 -8.07227 -4.56055t-4.75977 0.414062l-0.414062 0.830078q-1.65625 0.414062 -1.65625 2.48633q-0.414062 3.31641 2.07031 6.42578q2.4834 3.10938 4.13867 5.18164q2.89746 3.73145 6.83008 7.25488
q3.93262 3.52441 8.07227 6.42578q4.55273 3.31641 9.10645 5.80371t10.3486 3.31641q0 3.31641 0.207031 6.83984t0.207031 6.83984q0 40.2119 -1.24219 80.8379q-0.828125 21.5566 -1.65527 42.9062q-0.828125 21.3496 -1.65625 42.9062
q-0.414062 4.55957 -0.621094 8.49805q-0.207031 3.9375 -0.207031 8.49805q-0.827148 -0.829102 -1.8623 -1.6582t-1.86328 -1.6582q-3.31055 -3.31641 -6.62305 -6.21875q-3.31055 -2.90137 -7.4502 -4.97461q-2.07031 -1.6582 -4.76074 -3.1084
q-2.69043 -1.45117 -5.58789 -1.03613q-3.72559 0 -1.65625 3.9375q2.07031 3.93848 4.96777 7.66992q0.828125 1.6582 2.06934 2.90137q1.24219 1.24316 2.48438 2.4873q0.827148 1.24414 1.8623 2.28027t1.8623 2.28027q0.414062 0.828125 1.86328 2.48633
q1.44824 1.6582 1.03516 1.24414q0.827148 0.829102 1.44824 1.86523q0.621094 1.03711 1.44922 1.86523q0.827148 1.24414 1.44824 2.48828q0.621094 1.24316 1.44922 2.90137q0.414062 0.415039 0.828125 1.24316q0.413086 0.830078 0.827148 0.830078
q0.414062 1.24316 1.24219 2.90137q1.24121 2.4873 2.27637 5.18164t1.86328 5.18262q2.06934 7.46094 8.07129 13.2656q6.00195 5.80273 11.7979 10.3633q0.414062 0.414062 3.51855 2.4873t6.20898 3.73145t5.79492 1.86523t2.69043 -2.69531
q0 -3.73047 0.414062 -5.38867q1.24219 -37.7246 2.89746 -74.4121q1.65625 -36.6875 2.4834 -74.4121q0.828125 -19.8984 1.03516 -39.3818t-0.621094 -39.3818q-0.414062 -5.80469 -0.621094 -11.6074q-0.207031 -5.80469 -1.44824 -11.6074
q0 -1.24414 -0.828125 -3.73145q3.31152 -0.829102 7.03711 -1.24316q3.72559 -0.415039 7.03711 -1.24414q2.4834 -0.829102 4.9668 -1.03613q2.48438 -0.208008 5.38184 -1.03613q0.828125 0 1.8623 -0.208008q1.03516 -0.207031 1.86328 -0.207031
q1.65527 -0.415039 1.8623 -0.829102t2.27637 -1.24414zM304 720l66 -6q-115 -206 -199 -393q-36 -80 -68 -163.5t-54.5 -162t-30.5 -147.5t4 -118q2 0 -12 5.5t-31 12.5q-20 8 -47 18q-14 5 19 106q14 43 39.5 111.5t67.5 170t102.5 241t143.5 325.5zM440.757 189.787
q0.822266 -2.46582 0 -4.31543q-0.821289 -1.84961 -2.05371 -3.9043q-2.46484 -3.28809 -5.33984 -6.37109q-2.875 -3.08203 -6.16113 -5.95996q-3.28613 -2.87695 -6.77832 -5.34277q-3.49121 -2.46582 -7.59863 -4.52051l-0.411133 -0.411133
q0.411133 -8.2207 0.616211 -16.2354q0.206055 -8.01465 0.616211 -16.2344q0.411133 -6.9873 0.821289 -13.7695q0.411133 -6.78125 0.822266 -13.7686q0 -6.9873 -0.411133 -13.9746t-2.46484 -13.9746q-3.28613 -10.2744 -8.4209 -18.4951
q-5.13379 -8.2207 -12.5283 -15.6182q-6.16113 -6.16504 -13.3496 -11.9199q-7.18848 -5.75391 -15.4033 -9.04199q-4.51855 -2.05469 -9.44824 -3.49316q-4.92871 -1.43848 -10.2686 -0.617188q-9.03711 0.822266 -16.0205 5.75488q-1.64258 1.23242 -3.28613 2.46582
q-1.64258 1.2334 -2.875 2.46582q-2.46484 3.69922 -5.33984 6.57617q-1.23242 2.05469 0.205078 4.31543t2.25879 3.49414q4.1084 6.16504 11.0908 11.9189q3.28613 2.87695 6.36719 5.1377t6.77734 4.31543q1.23242 0.822266 3.90234 1.64453t4.31348 -0.411133
q4.51855 -4.93262 11.0908 -9.24805t13.5547 -5.1377v0.411133q3.28613 14.3857 2.25977 28.7705q-1.02734 14.3857 -1.84863 28.7715q-0.821289 15.207 -1.23242 30.209q-0.410156 15.002 -0.821289 30.209l-3.69727 -1.23242q-3.28613 -0.822266 -7.18848 -1.2334
t-7.18848 -0.411133q-8.21484 -0.822266 -16.2246 -0.411133q-8.01074 0.411133 -16.2256 0.822266q-16.4307 0.822266 -30.8076 -1.64355q-10.6797 -1.64453 -22.7979 -3.28906q-12.1172 -1.64355 -22.7969 1.2334q-2.05371 0.411133 -2.25977 1.84961
q-0.205078 1.43848 0.616211 3.49316q26.2891 51.377 57.918 98.2324q6.16211 9.04199 12.1182 18.084t11.707 18.4961q6.98242 11.9189 15.6084 23.6328t19.7168 19.9336q1.64355 1.2334 3.08105 2.67188t3.08105 2.67188q0.410156 0 2.46387 1.43848
q2.05469 1.43848 4.51855 2.6709q2.46484 1.2334 4.92969 2.05566q2.46484 0.821289 3.69629 0q2.05469 2.05469 5.34082 4.52051q0.410156 0.411133 3.08008 2.05566q2.66992 1.64355 5.75098 3.28809q3.08105 1.64355 5.54492 1.84961q2.46484 0.205078 2.46484 -2.67188
q-1.23242 -26.7158 1.64355 -53.0205q2.875 -26.3047 2.875 -53.4316q0 -14.3848 0.205078 -28.5645q0.206055 -14.1807 0.616211 -28.5654q2.46484 2.05469 7.39453 4.10938q1.64258 1.2334 5.75 2.05566q6.57227 -0.411133 10.2695 -5.75391
q1.64258 -2.05566 3.49121 -4.31641q1.84863 -2.25977 2.66992 -4.31543zM351.21 195.131q5.33984 0 10.6797 -0.206055q5.34082 -0.205078 10.6807 -0.616211q0 18.4951 -0.206055 36.1689q-0.205078 17.6729 -1.4375 35.7578q-0.821289 16.0293 -1.84863 32.4697
q-1.02637 16.4404 1.02734 32.4697q-0.821289 -0.821289 -1.23242 -1.64355t-1.23242 -1.64453l-11.0908 -17.2617q-5.75098 -9.4541 -11.2959 -18.085t-11.2959 -17.6738q-14.377 -21.7832 -26.7002 -41.9229q-12.3223 -20.1396 -23.8242 -42.334
q9.44727 -0.822266 18.8955 0q9.44727 0.822266 18.8955 2.46582q7.80371 0.822266 14.9922 1.64453q7.18848 0.821289 14.9932 0.411133z" />
    <glyph glyph-name="onehalf" unicode="&#xbd;" horiz-adv-x="445" 
d="M167.59 540.72q1.58203 -0.791016 0.395508 -3.16504q-1.1875 -2.37402 -2.96777 -4.94629t-3.75781 -4.55078l-2.37402 -2.37402q-5.93457 -6.72656 -13.8467 -11.4746q-3.16602 -1.97852 -6.72656 -3.56152t-7.5166 -0.791016l-7.12109 1.18652
q-5.14355 0.791016 -10.2861 1.78125q-5.14355 0.988281 -10.2871 1.78027q-0.395508 0.395508 -1.58203 0.395508h-1.1875q-1.58203 0 -1.58203 0.395508q-4.35156 0.791992 -8.50586 1.38477q-4.1543 0.59375 -8.50586 0.59375q-1.1875 0.395508 -3.56152 0.395508
q-3.95605 -2.76953 -7.71484 -4.35254q-3.75781 -1.58301 -4.5498 0.395508l-0.395508 0.791992q-1.58203 0.395508 -1.58203 2.37402q-0.395508 3.16504 1.97754 6.13281q2.37402 2.96777 3.95703 4.94629q2.76953 3.56152 6.52734 6.9248q3.75879 3.36328 7.71484 6.13281
q4.35254 3.16602 8.7041 5.54004t9.89062 3.16504q0 3.16602 0.198242 6.5293q0.197266 3.36328 0.197266 6.5293q0 38.3818 -1.18652 77.1592q-0.791016 20.5762 -1.58301 40.9541q-0.791016 20.3779 -1.58203 40.9541q-0.395508 4.35254 -0.59375 8.11133
q-0.197266 3.75977 -0.197266 8.1123q-0.791992 -0.791992 -1.78027 -1.58301q-0.989258 -0.791016 -1.78027 -1.58301q-3.16602 -3.16504 -6.33008 -5.93555q-3.16602 -2.76953 -7.12207 -4.74805q-1.97754 -1.58301 -4.5498 -2.96777
q-2.57129 -1.38477 -5.34082 -0.989258q-3.56055 0 -1.58203 3.75977q1.97754 3.75879 4.74707 7.32031q0.791016 1.58203 1.97852 2.76953q1.18652 1.18652 2.37305 2.37402q0.791992 1.1875 1.78125 2.17676q0.988281 0.988281 1.78027 2.17578
q0.395508 0.791016 1.78027 2.37402t0.988281 1.1875q0.791992 0.791016 1.38477 1.78027q0.59375 0.989258 1.38477 1.78027q0.791992 1.1875 1.38477 2.375q0.59375 1.18652 1.38477 2.76953q0.395508 0.395508 0.791016 1.18652q0.396484 0.791992 0.791992 0.791992
q0.395508 1.18652 1.18652 2.76953q1.1875 2.37402 2.17578 4.94629q0.989258 2.57227 1.78027 4.94629q1.97852 7.12207 7.71484 12.6621q5.7373 5.53906 11.2754 9.8916q0.395508 0.396484 3.36328 2.375q2.9668 1.97852 5.93457 3.56055q2.9668 1.58301 5.53906 1.78125
q2.57129 0.197266 2.57129 -2.57227q0 -3.56152 0.395508 -5.14453q1.18652 -36.0078 2.76953 -71.0264q1.58203 -35.0186 2.37402 -71.0264q0.791016 -18.9932 0.988281 -37.5908q0.198242 -18.5967 -0.592773 -37.5898q-0.395508 -5.54004 -0.59375 -11.0801
q-0.197266 -5.53906 -1.38477 -11.0791q0 -1.1875 -0.791016 -3.56152q3.16504 -0.791016 6.72559 -1.18652t6.72559 -1.1875q2.37402 -0.791016 4.74805 -0.989258q2.37305 -0.197266 5.14258 -0.989258q0.791016 0 1.78027 -0.197266
q0.989258 -0.198242 1.78027 -0.198242q1.58301 -0.395508 1.78027 -0.791016q0.198242 -0.395508 2.17676 -1.1875zM295 714l66 -6q-115 -206 -199 -393q-36 -80 -68 -163.5t-54.5 -162t-30.5 -147.5t4 -118q2 0 -12 5.5t-31 12.5q-20 8 -47 18q-14 5 19 106
q14 43 39.5 111.5t67.5 170t102.5 241t143.5 325.5zM397.293 23.0166q1.05273 -1.38867 -0.174805 -3.64453t-1.92969 -3.29785q-1.40332 -1.73535 -2.63086 -3.4707q-1.22852 -1.73535 -2.63184 -3.4707v0.34668q-6.31445 -8.33105 -15.0859 -14.2314
q-3.8584 -2.42969 -7.36719 -4.5127q-3.50781 -2.08203 -7.71777 -3.81738q-6.66602 -2.08301 -12.9814 -0.521484q-6.31445 1.5625 -12.2783 5.20703t-11.4023 8.33008q-5.4375 4.68652 -9.64746 8.50488q-11.2266 10.0654 -22.9795 20.8262
q-11.7529 10.7598 -26.1367 17.0078q-7.0166 2.77734 -13.6826 2.42969q-2.80664 -1.73535 -5.4375 -3.12402q-2.63184 -1.3877 -5.43848 -2.77637q-0.701172 -0.34668 -1.92969 -0.868164q-1.22754 -0.520508 -2.63086 -0.694336q-1.40332 -0.172852 -2.28027 0.173828
q-0.876953 0.347656 -0.876953 2.08301q0.350586 3.4707 3.33301 6.94238q2.98145 3.4707 5.4375 5.55371q4.91113 4.85938 10.7002 9.71875t12.8057 7.9834l0.701172 0.694336l2.10547 2.08203q1.05176 1.38867 2.28027 2.60352q1.22754 1.21484 2.28027 2.60352
q2.10449 2.77637 4.20996 5.0332q2.10547 2.25586 4.20996 4.68555q4.56055 5.55371 9.12207 10.5869q4.56055 5.0332 9.12109 10.5869q1.40332 2.08203 2.10547 2.77637q0.701172 0.694336 1.40234 2.08301q0.702148 0.694336 1.4043 1.73535
q0.701172 1.04199 1.40234 1.73535q1.75488 2.77734 3.85938 5.55371q2.10547 2.77734 3.85938 5.55371q1.75391 3.12402 3.85938 6.42188q2.10449 3.29785 3.85938 6.42188q0.350586 0.34668 0.701172 1.04102q0 0.34668 0.175781 0.34668q0.174805 0 0.174805 0.347656
l0.350586 0.34668q0.351562 0.694336 0.526367 1.21484q0.175781 0.520508 0.87793 1.21484q0.701172 1.73535 1.57812 2.9502q0.876953 1.21582 1.5791 2.95117q2.45605 4.85938 4.56055 9.71875t3.85938 9.71875q0.350586 0.694336 0.526367 1.38867
q0.174805 0.694336 0.525391 1.38867v0.694336q0 0.34668 0.175781 0.520508q0.175781 0.172852 0.175781 0.520508l1.05273 4.16504q0.701172 2.42969 0.876953 4.5127q0.174805 2.08203 0.525391 4.51172q0.351562 3.81836 0.175781 7.63672t-1.22754 7.63672
q-2.80664 9.37207 -9.47266 15.6191q-6.66602 6.24805 -15.7871 10.0664q-4.91211 1.73535 -9.99902 3.12402t-10.7002 1.04102h-2.28027q-1.22852 0 -2.28027 -0.34668h-1.05273q-0.702148 -0.347656 -2.10449 -0.347656q-2.80664 -0.693359 -5.43848 -1.3877
q-2.63086 -0.694336 -5.4375 -1.73535l-3.15723 -1.04199q-0.702148 0 -1.05273 -0.34668q-0.351562 0 -0.526367 -0.173828q-0.175781 -0.173828 -0.526367 -0.173828v-0.693359q0 -2.43066 -1.75391 -4.5127q-1.75391 -2.08301 -3.1582 -3.81836
q-4.56055 -5.55371 -11.2266 -10.4131q-0.701172 -0.694336 -2.98145 -2.25586q-2.28027 -1.5625 -4.91211 -2.77734q-2.63086 -1.21484 -4.73535 -1.38867q-2.10547 -0.172852 -2.10547 2.25684q-0.701172 5.55371 2.28027 10.2393q2.98242 4.68555 6.13965 8.85156
q4.91211 6.59473 11.5771 11.9746q6.66602 5.38086 13.6826 9.89258q8.77051 5.90137 18.9453 10.0664q10.1738 4.16504 20.3477 5.90039q4.20996 0.694336 8.41992 1.21484q4.20996 0.521484 8.41992 -0.172852q5.2627 -0.694336 10.3496 -2.60352t9.99805 -3.99219
q7.71875 -3.81738 13.6826 -9.71875q5.96387 -5.90039 8.77051 -14.2314q3.1582 -10.4131 1.75488 -21t-4.91211 -20.6523q-4.91113 -13.8848 -12.4541 -26.7275t-15.6123 -24.9912q-9.12109 -13.1904 -19.2959 -25.3389q-10.1738 -12.1494 -20.6982 -24.2979
q-3.50879 -3.81836 -6.8418 -7.80957q-3.33301 -3.99219 -7.19141 -7.81055q12.2783 -1.3877 22.6279 -8.85059t19.4717 -15.0996q5.96387 -5.55371 12.1035 -11.1074t12.4541 -11.1074q4.91211 -4.16504 10.1738 -8.15723q5.2627 -3.99121 11.2266 -6.76855
q1.75488 -0.694336 3.1582 -1.04102q1.40332 -0.347656 3.15723 -0.347656q5.61328 4.5127 11.5771 7.63672q1.05273 0.347656 3.50879 1.38867t3.8584 -0.694336z" />
    <glyph glyph-name="threequarters" unicode="&#xbe;" horiz-adv-x="456" 
d="M173.427 629.81q11.4736 -8.88965 17.6348 -21.7988q6.16113 -12.9102 8.07324 -27.0898q1.91211 -14.1807 0.424805 -28.9951t-5.31152 -27.5127q-4.67383 -16.085 -12.1104 -31.1113q-7.43555 -15.0264 -18.4844 -28.1484q-6.79883 -8.04199 -14.6592 -15.8721
q-7.86133 -7.83105 -16.9971 -13.9688q-9.13672 -6.1377 -19.335 -10.3701q-10.1982 -4.2334 -20.8213 -5.50293q-14.4473 -1.69336 -28.0449 2.96289t-24.6455 14.3916q-5.09961 4.65625 -9.34863 9.94727t-5.94922 11.6396q-2.5498 8.88965 -0.849609 16.2969
t6.37402 14.6025q4.67383 7.19629 12.1104 13.5449q7.43652 6.34961 15.085 10.1592q1.27441 0.84668 4.24902 1.9043q2.97461 1.05859 4.6748 -0.634766q0.849609 -1.69336 0 -3.59766q-0.850586 -1.9043 -1.7002 -3.59766q0.424805 0.422852 -0.212891 -0.84668
q-0.636719 -1.26953 -1.06152 -2.11621q0 -0.423828 -0.212891 -1.05859t-0.212891 -1.05859q0 -0.422852 -0.211914 -0.845703q-0.212891 -0.423828 -0.212891 -1.27051v-4.02051q0 -1.90527 0.850586 -4.02148q3.39941 -11.8516 13.3848 -20.3174
q9.98633 -8.46582 21.0342 -13.1221q9.77344 -4.23242 21.2461 -4.23242h7.22363q0.424805 0 0.849609 0.423828h0.850586q0.849609 0 1.06152 0.210938q0.212891 0.211914 1.0625 0.211914q1.27539 0.422852 2.7627 0.634766t2.76172 1.05859h0.424805
q0.424805 0 0.424805 0.210938q0 0.211914 0.424805 0.211914l0.424805 0.84668l0.850586 0.84668q1.69922 2.53906 3.39941 5.50293q0.849609 0.422852 1.69922 2.11621v0.422852q1.7002 2.96289 2.97461 5.92578q2.5498 5.08008 4.67383 10.1592
q2.125 5.0791 3.8252 10.582l0.849609 2.11621q0 0.84668 0.211914 1.26953q0.212891 0.423828 0.212891 1.27051q0.849609 2.11621 1.69922 5.50195q0.850586 2.96289 1.0625 5.71484q0.212891 2.75098 1.0625 5.71387q1.7002 11.4287 1.4873 23.0684
q-0.212891 11.6406 -3.1875 23.0693q-3.39844 11.0049 -9.98535 22.2217q-6.58594 11.2168 -17.6348 16.2969q-8.49805 2.96289 -17.8467 2.96289q-5.94922 0.422852 -11.4727 0h-2.7627t-2.76172 -0.423828q-0.849609 0 -2.5498 -0.211914
q-1.69922 -0.210938 -1.27441 -0.210938q-2.5498 -0.423828 -5.09863 -0.84668q-2.5498 -0.423828 -5.09961 -1.26953q-2.5498 -2.96387 -5.31152 -5.71484t-6.16113 -4.86719q-0.850586 -0.423828 -3.39941 -2.11719q-2.5498 -1.69238 -5.7373 -3.17383
q-3.18652 -1.48145 -5.52344 -1.69336t-2.33691 2.32812v2.11621q-0.424805 -1.69336 0.211914 1.26953q0.637695 2.96289 0.212891 2.54004q0.849609 1.69336 1.69922 3.1748t1.7002 2.75098q9.34863 11.8516 20.8213 20.7412q8.07324 5.92578 16.9971 10.5811
q0.849609 0 1.69922 0.84668l6.37402 5.08008q0.424805 0.422852 1.27539 0.845703q0.849609 0.423828 1.69922 1.27051l0.424805 0.422852l4.24902 4.2334q0.850586 0.845703 1.4873 1.69238q0.637695 0.84668 1.4873 1.69336q0.850586 0.84668 1.4873 1.9043
q0.637695 1.05859 1.4873 1.90527q1.27539 1.69336 2.5498 3.38574q1.27441 1.69336 2.5498 3.80957q0.849609 0.84668 1.27441 2.11719q0.424805 1.26953 1.27441 2.11621l0.425781 0.422852q0 0.423828 0.424805 0.84668q2.12402 3.80957 3.82422 7.83105
q1.69922 4.02051 2.97461 8.25391l0.849609 1.69238v0.423828q0.424805 1.69336 1.27441 4.23242q0.425781 2.11719 0.637695 3.80957q0.212891 1.69336 0.212891 3.80957q0.424805 5.92578 -0.850586 14.3916q-2.97461 8.88867 -9.34766 16.085
q-6.37402 7.19531 -14.873 11.0049q-7.64844 2.96289 -15.9346 4.44434t-16.7842 1.05859q-2.125 -3.38672 -4.25 -5.50293q-5.52344 -6.77246 -13.5977 -12.6982q-0.849609 -0.84668 -3.61133 -2.54004q-2.76172 -1.69238 -5.73633 -3.1748
q-2.97461 -1.48047 -5.31152 -1.69238q-2.33789 -0.211914 -2.7627 2.75098q0 0.84668 -0.211914 0.84668q-0.212891 0 -0.212891 -0.84668q0 0.84668 -0.211914 1.05859q-0.212891 0.210938 -0.212891 1.05762v2.11621q0 2.54004 0.424805 3.38672
q1.7002 6.77246 5.52441 12.2754q7.22363 9.73535 16.1465 17.5654q8.92383 7.83105 19.9717 12.9102q9.77344 5.0791 21.0342 6.56152q11.2607 1.48047 22.3086 -0.211914q11.4727 -1.69336 22.5215 -6.34961q11.0479 -4.65625 17.8467 -14.8145
q8.49902 -12.2754 7.86133 -26.2432q-0.637695 -13.9688 -5.73633 -27.0898q-6.37402 -16.5078 -16.7852 -30.8994q-10.4102 -14.3916 -22.7334 -27.0898q-1.27441 -0.84668 -2.125 -2.11621q1.27539 0.422852 2.7627 0.422852t3.18652 0.422852q10.1982 0.84668 21.459 0
q11.2607 -0.845703 19.7588 -7.61816zM321 715l66 -6q-115 -206 -199 -393q-36 -80 -68 -163.5t-54.5 -162t-30.5 -147.5t4 -118q2 0 -12 5.5t-31 12.5q-20 8 -47 18q-14 5 19 106q14 43 39.5 111.5t67.5 170t102.5 241t143.5 325.5zM432.686 178.525
q0.871094 -2.54883 0 -4.46094q-0.871094 -1.91113 -2.17871 -4.03516q-2.61426 -3.39844 -5.66309 -6.58398q-3.0498 -3.18652 -6.53516 -6.16016t-7.18848 -5.52246t-8.06055 -4.67285l-0.435547 -0.424805q0.435547 -8.49609 0.65332 -16.7803
q0.21875 -8.2832 0.654297 -16.7793q0.435547 -7.22168 0.871094 -14.2305q0.435547 -7.00977 0.871094 -14.2314q0 -7.22168 -0.435547 -14.4434t-2.61426 -14.4434q-3.48535 -10.6201 -8.93066 -19.1162q-5.44629 -8.49609 -13.2881 -16.1426
q-6.53516 -6.37207 -14.1592 -12.3193t-16.3379 -9.3457q-4.79199 -2.12402 -10.0205 -3.61035q-5.22754 -1.4873 -10.8916 -0.637695q-9.58496 0.849609 -16.9912 5.94727q-1.74219 1.27441 -3.48535 2.54883q-1.74219 1.27441 -3.0498 2.54883
q-2.61328 3.82324 -5.66309 6.79688q-1.30762 2.12402 0.217773 4.45996q1.52441 2.33691 2.39551 3.61133q4.35742 6.37207 11.7637 12.3193q3.48535 2.97363 6.75293 5.30957q3.26758 2.33691 7.18848 4.46094q1.30664 0.849609 4.13867 1.69922t4.57422 -0.424805
q4.79297 -5.09766 11.7637 -9.55762q6.9707 -4.46094 14.377 -5.31055v0.424805q3.48535 14.8682 2.39648 29.7363q-1.08984 14.8682 -1.96094 29.7363q-0.871094 15.7178 -1.30664 31.2236q-0.435547 15.5049 -0.87207 31.2227l-3.9209 -1.27441
q-3.48535 -0.849609 -7.62402 -1.27441t-7.62402 -0.424805q-8.71387 -0.849609 -17.209 -0.424805q-8.49609 0.424805 -17.209 0.849609q-17.4268 0.849609 -32.6748 -1.69922q-11.3281 -1.69922 -24.1797 -3.39844q-12.8525 -1.69922 -24.1797 1.27441
q-2.17871 0.424805 -2.39648 1.91113q-0.217773 1.4873 0.65332 3.61133q27.8828 53.1006 61.4297 101.528q6.53516 9.3457 12.8525 18.6914q6.31641 9.3457 12.416 19.1162q7.40625 12.3193 16.5557 24.4258q9.14844 12.1074 20.9121 20.6035
q1.74219 1.27441 3.26758 2.76172q1.52441 1.48633 3.26758 2.76074q0.435547 0 2.61328 1.4873q2.17871 1.48633 4.79297 2.76074t5.22754 2.12402q2.61426 0.849609 3.9209 0q2.17871 2.12402 5.66406 4.67285q0.435547 0.424805 3.26758 2.12402t6.09961 3.39844
t5.88086 1.91211q2.61426 0.211914 2.61426 -2.76172q-1.30664 -27.6123 1.74316 -54.7998t3.0498 -55.2246q0 -14.8682 0.217773 -29.5244q0.217773 -14.6553 0.65332 -29.5234q2.61426 2.12402 7.8418 4.24805q1.74316 1.27441 6.09961 2.12402
q6.9707 -0.424805 10.8916 -5.94727q1.74219 -2.12402 3.70312 -4.45996q1.96094 -2.33691 2.83203 -4.46094zM337.71 184.048q5.66309 0 11.3271 -0.211914q5.66406 -0.212891 11.3271 -0.637695q0 19.1162 -0.217773 37.3828t-1.52441 36.958
q-0.87207 16.5674 -1.96094 33.5596t1.08887 33.5596q-0.871094 -0.849609 -1.30664 -1.69922t-1.30664 -1.69922l-11.7637 -17.8418q-6.09961 -9.77051 -11.9805 -18.6914q-5.88184 -8.9209 -11.9814 -18.2666q-15.248 -22.5146 -28.3184 -43.3301
q-13.0693 -20.8154 -25.2686 -43.7549q10.0205 -0.849609 20.041 0t20.041 2.54883q8.27734 0.849609 15.9014 1.69922t15.9023 0.424805z" />
    <glyph glyph-name="questiondown" unicode="&#xbf;" horiz-adv-x="455" 
d="M66.0225 -53.9639q-18.999 26.999 -31.998 59.9971q-12.999 32.9971 -7.99902 67.9951q7.99902 38.998 32.998 71.9961q17.998 24.998 39.9971 45.9971t45.9971 38.9971q17.999 14 38.498 26.499t42.4971 21.998q21.999 9.5 44.4971 14.999q22.499 5.5 46.498 4.5
q5.99902 0 5.49902 -4.99902q-0.5 -5 -2.5 -9l-1 -2q-1.99902 -7.99902 -8.99902 -15.499q-7 -7.49902 -11.999 -12.499q-5 -5 -10.5 -9.99902q-5.49902 -5 -12.499 -10q-5 -4 -15.999 -11.499q-10.999 -7.5 -18.999 -6.5q-4.99902 -1 -9.49902 -1h-9.49902q-6 -1 -7.5 -1
t-6.5 -1q-4.99902 -0.999023 -10.499 -1.99902t-10.499 -3q-6 -2 -8 -3q-1 -1 -2 -1h-1q-4.99902 -2 -9.99902 -5q-5 -2.99902 -9.99902 -4.99902h-1q-6 -4 -8 -6q-1 0 -3 -2l-3.99902 -2l-1 -1q0 -1 -0.5 -1t-0.5 -1q-2 0 -2 -1.99902l-2 -2q-1 -2 -3.5 -6t-0.5 0
q-2 -4 -2 -5q-1 -1.99902 -1.99902 -3.99902q-1 -2 -1 -4q-1 0 -1.5 -3t-0.5 -2q-7 -27.998 1 -58.9961q10.999 -39.998 36.4971 -73.4961q25.499 -33.4971 54.4971 -62.4961q13.999 -13.999 28.498 -25.498t28.498 -24.498q12 -10 23.999 -20.499t25.998 -18.499
q11 13.999 21.999 24.998q5 5 10.999 10.5q6 5.49902 11.999 10.499q2 2 2 3l2 2l1 1q2 9.99902 -3 14.999q-3.99902 4 -0.5 9.99902q3.5 6 5.5 8q5 7.99902 11.499 14.999q6.5 6.99902 13.499 12.999q8 6.99902 15.499 12.499q7.5 5.5 16.499 9.5q3 1.99902 8.5 3.99902
t9.49902 -1q4 -3.99902 7 -6.99902t3 -10q0 -10.999 -5 -20.998q-7.99902 -15.999 -18.999 -29.498q-10.999 -13.5 -23.998 -25.499q-5 -5.99902 -11 -10.999q-5.99902 -5 -10.999 -10q-6.99902 -7.99902 -12.999 -15.498q-6 -7.5 -12.999 -15.5
q-15.999 -17.998 -33.498 -34.9971t-38.498 -29.999q-7.99902 -4.99902 -16.999 -9.49902q-8.99902 -4.5 -18.999 -4.5q-4.99902 0 -9.49902 2t-9.49902 4q-19.999 9.99902 -37.498 25.498t-34.498 29.499q-26.998 21.998 -51.9971 46.9971q-24.998 24.998 -44.9971 53.9961
zM237.012 466.005q-2.99902 3 -0.499023 8.99902q2.49902 6 6.99902 12.499q4.5 6.5 9.5 11.5l6.99902 6.99902q10.999 11 25.498 22.499q14.5 11.499 30.499 15.499q10.999 3 16.998 -5q6 -7.99902 13 -14.999q4.99902 -5.99902 10.999 -11.999t11.999 -12.999q3 -3 6 -6.5
t5 -7.49902q3.99902 -6 3.99902 -10q-1 -2 -1 -5q0 -3.99902 -2.99902 -8.99902q-3 -5 -7 -8.99902q-7 -11 -15.999 -19.499q-8.99902 -8.5 -18.999 -16.499q-5 -4 -15.499 -10.999q-10.499 -7 -18.499 -5h-2q-3.99902 -1 -8.99902 2q-8.99902 10.999 -18.999 21.998
q-9.99902 11 -19.999 21.999q-1.99902 3 -4.99902 6q-3 2.99902 -5 5.99902q-2 1 -3 3t-2 3z" />
    <glyph glyph-name="multiply" unicode="&#xd7;" horiz-adv-x="519" 
d="M373 515q2 2 3 2l10 12l-6 -9l-23 -27q-14 -20 -27.5 -41.5t-24.5 -42.5q-6 -12 -11 -24t-14 -23l-4 -4q22 -18 47.5 -36t50 -32.5t45.5 -24t35 -9.5l-78 -92q-14 0 -35 9.5t-45.5 24t-50 32.5t-47.5 36q-10 -12 -23 -18l-5 -6l-2 -2l-5 -3l-8 -10q-22 -18 -46.5 -30.5
t-48.5 -26.5l78 92l39 21q-29 25 -42 39q-9 10 -20 27.5t-21 37.5t-16.5 39t-6.5 33l78 92q0 -14 6.5 -33t16.5 -39t21 -37.5t20 -27.5q6 -8 18 -18.5t28 -23.5l18 26t18 25z" />
    <glyph glyph-name="divide" unicode="&#xf7;" horiz-adv-x="206" 
d="M-150 265h484v-44h-484v44zM78 -26q-9 29 -22 46.5t-26 27.5q-15 11 -30 17q31 24 57 42q11 8 21 15.5l18 13.5q10 7 18 13q12 -24 25.5 -42t25.5 -30q14 -14 28 -24zM78 344q-9 29 -22 46.5t-26 27.5q-15 11 -30 17q31 24 57 42q11 8 21 15.5l18 13.5q10 7 18 13
q12 -24 25.5 -42t25.5 -30q14 -14 28 -24z" />
  </font>
</defs>
</svg>
